<svg width="559" height="406" viewBox="0 0 559 406" fill="none" xmlns="http://www.w3.org/2000/svg">
<path d="M530.027 201.277C499.408 273.948 547.129 350.332 345.786 363.781C167.925 375.662 61.9339 311.837 40.3309 211.142C9.35647 66.7653 193.519 18.4951 321.884 44.8992C450.249 71.3032 571.112 103.764 530.027 201.277Z" fill="#FFF4F4"/>
<path d="M431.95 269.351C431.78 269.351 431.61 269.342 431.439 269.331C431.939 266.391 432.459 263.441 433.15 260.481C433.81 263.331 434.32 266.161 434.8 269.001C433.865 269.223 432.91 269.34 431.95 269.351Z" fill="black"/>
<path d="M435.17 271.172C435.15 272.872 435.15 274.572 435.15 276.272C435.15 278.132 435.16 280.002 435.15 281.862V335.292C434.54 338.862 433.95 342.422 433.15 345.982C432.35 342.422 431.76 338.862 431.15 335.292V276.522C431.15 274.742 431.15 272.952 431.13 271.172C431.2 270.772 431.26 270.382 431.33 269.982C432.534 270.123 433.752 270.1 434.95 269.912C435.03 270.332 435.1 270.752 435.17 271.172Z" fill="black"/>
<path d="M367.3 180.812C367.3 180.812 367.51 181.182 367.919 181.762L367.9 181.782L364.96 184.932C363.76 185.782 362.56 186.632 361.27 187.392C361.95 186.062 362.72 184.812 363.48 183.552L365.71 181.182C366.68 180.982 367.3 180.812 367.3 180.812Z" fill="black"/>
<path d="M384.87 162.211C384.18 163.531 383.41 164.792 382.65 166.042L379.7 169.191L379.16 169.761C378.441 169.521 377.706 169.331 376.96 169.191L378.24 167.822L381.19 164.671C382.39 163.831 383.59 162.991 384.87 162.211Z" fill="black"/>
<path d="M417.558 186.437C417.713 186.091 417.952 185.788 418.252 185.557C418.478 185.387 418.742 185.277 419.021 185.236C419.3 185.198 419.584 185.232 419.846 185.337C420.197 185.477 420.506 185.704 420.745 185.997H420.747L420.76 186.016L420.747 186.034L420.75 186.034C420.595 186.379 420.356 186.679 420.053 186.905C419.828 187.074 419.563 187.182 419.283 187.217C419.003 187.25 418.719 187.213 418.458 187.107C418.107 186.962 417.798 186.732 417.558 186.437Z" fill="#020202"/>
<path d="M376.823 191.849L354.942 194.553C347.648 195.448 340.351 196.32 333.051 197.167C318.45 198.845 303.86 200.621 289.249 202.202L245.428 207.062L201.582 211.692L201.576 211.693C201.455 211.705 201.333 211.692 201.217 211.655C194.966 209.63 188.708 207.625 182.474 205.545L163.755 199.357C157.512 197.307 151.278 195.225 145.055 193.111L126.385 186.772L145.265 192.454C151.559 194.349 157.842 196.274 164.116 198.229L182.948 204.062C189.231 205.989 195.49 207.99 201.756 209.972L201.391 209.935L245.214 205.082L289.061 200.46C303.672 198.88 318.304 197.496 332.927 196.013C340.237 195.269 347.552 194.56 354.87 193.886L376.823 191.849Z" fill="#020202"/>
<path d="M126.382 196.091C132.578 198.248 138.734 200.507 144.91 202.718L163.373 209.513L172.601 212.921L181.799 216.406L200.195 223.375L199.725 223.319C208.492 222.135 217.277 221.088 226.054 219.988L252.394 216.737L278.757 213.665C287.552 212.701 296.342 211.698 305.147 210.811C296.402 212.168 287.642 213.41 278.888 214.69L252.601 218.353L226.291 221.838C217.519 222.983 208.754 224.181 199.971 225.241L199.96 225.243C199.805 225.261 199.647 225.241 199.501 225.185L181.164 218.06L171.996 214.498L162.857 210.858L144.587 203.559C138.518 201.071 132.43 198.632 126.382 196.091Z" fill="#020202"/>
<path d="M199.103 313.836C198.915 305.241 198.855 296.65 198.922 288.062C198.961 279.472 199.117 270.886 199.296 262.3C199.511 253.715 199.753 245.13 200.11 236.549C200.439 227.966 200.898 219.387 201.486 210.811C201.676 219.405 201.738 227.996 201.671 236.585C201.631 245.174 201.475 253.76 201.294 262.346C201.075 270.931 200.834 279.516 200.476 288.097C200.146 296.68 199.688 305.259 199.103 313.836Z" fill="#020202"/>
<path d="M467.331 118.247C466.101 117.697 464.972 116.944 463.991 116.02C463.019 115.068 462.178 113.99 461.491 112.816C460.816 111.636 460.258 110.393 459.824 109.105C459.386 107.802 459.071 106.463 458.881 105.102C458.873 105.04 458.875 104.977 458.886 104.915L458.907 104.803C459.216 103.405 459.375 101.978 459.38 100.546C459.391 99.1211 459.24 97.6991 458.932 96.3075C458.319 93.5337 457.166 90.9077 455.54 88.579L455.649 88.6944C453.919 87.0404 451.992 85.6052 449.912 84.4212C447.8 83.2624 445.508 82.4699 443.131 82.0775C438.255 81.4617 433.311 82.433 429.03 84.8473C427.954 85.4231 426.917 86.068 425.925 86.7779C425.429 87.1314 424.944 87.4974 424.477 87.8785C424.257 88.0597 423.982 88.2848 423.835 88.4374C423.649 88.6378 423.459 88.8717 423.275 89.0985C421.844 91.0053 420.766 93.1532 420.092 95.4405C419.415 97.7163 419.06 100.076 419.036 102.45C419.061 104.832 419.347 107.204 419.889 109.524C419.924 109.69 419.927 109.861 419.897 110.028C419.671 111.278 419.427 112.501 419.15 113.737C418.886 114.996 418.551 116.239 418.147 117.461C417.959 118.032 417.51 119.031 417.611 118.823C417.569 118.751 417.634 118.939 417.986 119.185C418.788 119.673 419.703 119.943 420.642 119.968L420.737 119.965C420.947 119.957 421.155 120.002 421.344 120.093C421.533 120.185 421.696 120.322 421.82 120.491C423.221 122.431 424.703 124.344 426.174 126.239C427.607 128.121 429.161 129.906 430.828 131.584C431.034 131.771 431.239 131.948 431.44 132.101C431.536 132.168 431.637 132.24 431.72 132.29L431.831 132.352C431.864 132.37 431.856 132.357 431.869 132.372C431.909 132.394 431.782 132.35 431.748 132.386C431.717 132.404 431.847 132.365 431.888 132.358C432.019 132.33 432.148 132.296 432.275 132.255C432.539 132.182 432.811 132.086 433.081 131.995C434.176 131.591 435.237 131.101 436.253 130.528C438.334 129.457 440.125 127.899 441.473 125.986L441.506 125.935C441.533 125.893 441.568 125.857 441.609 125.828C441.651 125.799 441.697 125.779 441.746 125.769C441.795 125.758 441.846 125.757 441.895 125.766C441.945 125.775 441.992 125.793 442.034 125.821L442.075 125.851C442.674 126.358 443.231 126.911 443.74 127.507C443.999 127.805 444.23 128.125 444.432 128.464C444.649 128.804 444.799 129.184 444.872 129.581C444.877 129.612 444.869 129.643 444.852 129.669C444.834 129.695 444.807 129.713 444.777 129.72C444.747 129.727 444.715 129.722 444.688 129.707C444.661 129.692 444.64 129.667 444.631 129.637L444.629 129.63C444.344 128.954 443.9 128.357 443.335 127.889C442.791 127.383 442.208 126.922 441.59 126.508L442.192 126.374C440.985 128.61 439.216 130.491 437.059 131.833C436.01 132.534 434.907 133.149 433.759 133.673C433.463 133.798 433.174 133.931 432.858 134.038C432.706 134.096 432.545 134.149 432.374 134.197C432.276 134.231 432.176 134.256 432.074 134.274C431.884 134.303 431.691 134.301 431.502 134.266C431.074 134.167 430.67 133.986 430.312 133.733C430.018 133.536 429.751 133.332 429.496 133.126C427.633 131.476 425.902 129.682 424.321 127.761C422.717 125.904 421.219 123.988 419.723 122.039L420.901 122.561C420.117 122.611 419.33 122.525 418.574 122.309C417.831 122.118 417.125 121.803 416.487 121.376C416.095 121.117 415.754 120.788 415.48 120.407C415.124 119.922 414.942 119.332 414.964 118.731C414.971 118.437 415.03 118.147 415.139 117.874L415.279 117.521L415.355 117.352C415.459 117.134 415.557 116.858 415.651 116.593C416.386 114.286 416.995 111.94 417.475 109.566L417.484 110.069C416.968 107.545 416.732 104.972 416.783 102.396C416.886 99.8083 417.394 97.2528 418.286 94.8218C418.505 94.2152 418.783 93.6295 419.04 93.0401C419.35 92.4727 419.61 91.8831 419.962 91.3404C420.611 90.2252 421.373 89.1793 422.235 88.2188C422.459 87.9788 422.674 87.7449 422.926 87.5074C423.182 87.289 423.448 87.084 423.724 86.8934C424.243 86.5245 424.771 86.178 425.308 85.846C426.379 85.1793 427.498 84.6004 428.625 84.0467C433.149 81.7707 438.197 80.7386 443.251 81.0562C445.803 81.2706 448.3 81.9107 450.641 82.95C452.985 84.007 455.158 85.4097 457.086 87.1114C457.122 87.1434 457.156 87.1784 457.187 87.2161L457.196 87.2271C458.183 88.4914 459.005 89.8769 459.64 91.3499C460.283 92.7971 460.756 94.3138 461.049 95.8697C461.371 97.4223 461.493 99.0097 461.413 100.593C461.343 102.171 461.097 103.736 460.679 105.259L460.705 104.96C460.8 106.209 461.009 107.448 461.328 108.66C461.638 109.889 462.058 111.088 462.583 112.243C463.115 113.395 463.787 114.478 464.584 115.467C465.407 116.457 466.371 117.32 467.446 118.027L467.454 118.033C467.48 118.05 467.498 118.077 467.504 118.107C467.511 118.137 467.507 118.169 467.491 118.196C467.476 118.223 467.451 118.244 467.421 118.253C467.392 118.262 467.36 118.26 467.331 118.247L467.331 118.247Z" fill="black"/>
<path d="M422.114 116.847C421.898 116.847 421.685 116.791 421.498 116.684C421.31 116.577 421.154 116.423 421.044 116.237L417.618 110.428C417.535 110.288 417.48 110.132 417.457 109.971C417.434 109.809 417.443 109.644 417.483 109.486C417.524 109.328 417.595 109.179 417.693 109.049C417.791 108.918 417.914 108.808 418.055 108.726C418.195 108.643 418.351 108.588 418.512 108.565C418.674 108.543 418.839 108.552 418.997 108.593C419.155 108.634 419.303 108.706 419.433 108.804C419.564 108.902 419.673 109.025 419.756 109.166L423.182 114.975C423.293 115.163 423.352 115.378 423.354 115.597C423.356 115.815 423.3 116.031 423.191 116.221C423.083 116.411 422.926 116.569 422.737 116.679C422.548 116.789 422.333 116.847 422.114 116.847Z" fill="black"/>
<path d="M419.439 111.693C419.307 111.692 419.178 111.65 419.072 111.572C418.965 111.494 418.887 111.384 418.847 111.258C418.807 111.132 418.809 110.997 418.851 110.872C418.894 110.747 418.975 110.638 419.083 110.563C420.884 109.307 436.781 98.3176 440.161 98.4534C440.243 98.4571 440.323 98.4768 440.397 98.5114C440.47 98.546 440.537 98.5948 440.592 98.655C440.647 98.7152 440.689 98.7857 440.717 98.8623C440.745 98.939 440.757 99.0204 440.753 99.1018C440.743 99.2655 440.67 99.4189 440.549 99.5294C440.428 99.6399 440.269 99.6988 440.105 99.6936C440.09 99.6926 440.073 99.6926 440.057 99.6926C437.715 99.6926 426.415 106.962 419.793 111.58C419.689 111.653 419.566 111.692 419.439 111.693Z" fill="black"/>
<path d="M438.347 102.052C438.325 101.126 438.623 100.22 439.191 99.4868C439.362 99.2876 439.572 99.1248 439.807 99.008C440.043 98.8912 440.299 98.8227 440.561 98.8066L440.96 98.8003C441.088 98.8149 441.208 98.8518 441.332 98.8784C441.576 98.9254 441.812 99.0079 442.031 99.1233C442.463 99.3206 442.87 99.566 443.247 99.8547C443.59 100.158 443.952 100.433 444.281 100.765C444.938 101.435 445.48 102.209 445.887 103.055C446.664 104.758 446.884 106.662 446.516 108.498C446.349 109.41 445.995 110.279 445.476 111.048C445.21 111.448 444.844 111.771 444.415 111.985C444.201 112.093 443.957 112.127 443.721 112.082C443.485 112.036 443.271 111.914 443.113 111.733C443.284 111.844 443.485 111.899 443.688 111.89C443.892 111.881 444.087 111.809 444.248 111.684C444.557 111.43 444.8 111.104 444.954 110.734C445.29 109.981 445.494 109.176 445.558 108.354C445.718 106.72 445.443 105.074 444.763 103.58C444.425 102.846 443.975 102.168 443.431 101.571C443.166 101.264 442.848 100.989 442.558 100.693C442.256 100.433 441.935 100.196 441.597 99.9849C441.319 99.7569 440.973 99.6273 440.614 99.6164C440.254 99.6055 439.901 99.7139 439.61 99.9246C439 100.503 438.563 101.24 438.347 102.052Z" fill="black"/>
<path d="M423.27 124.98C424.22 124.875 425.162 124.697 426.085 124.449C426.509 124.331 426.92 124.171 427.311 123.97C427.732 123.779 428.125 123.509 428.64 123.249C428.556 123.81 428.298 124.331 427.901 124.738C427.505 125.165 427 125.476 426.441 125.638C425.891 125.799 425.311 125.826 424.748 125.718C424.193 125.624 423.679 125.367 423.27 124.98Z" fill="black"/>
<path d="M419.439 107.379C419.395 106.528 419.673 105.692 420.218 105.037C420.759 104.363 421.473 103.848 422.284 103.546C423.069 103.257 423.903 103.124 424.74 103.153C425.145 103.184 425.548 103.236 425.948 103.309C426.34 103.41 426.726 103.537 427.102 103.691C426.716 103.789 426.326 103.866 425.931 103.918C425.551 103.988 425.179 104.071 424.811 104.119C424.103 104.258 423.406 104.454 422.729 104.704C421.357 105.189 420.194 106.134 419.439 107.379Z" fill="black"/>
<path d="M424.644 112.683C425.006 112.67 425.349 112.518 425.6 112.257C425.852 111.997 425.993 111.649 425.993 111.286C425.993 110.924 425.852 110.576 425.6 110.316C425.349 110.055 425.006 109.903 424.644 109.89C424.282 109.903 423.939 110.055 423.687 110.316C423.436 110.576 423.295 110.924 423.295 111.286C423.295 111.649 423.436 111.997 423.687 112.257C423.939 112.518 424.282 112.67 424.644 112.683Z" fill="black"/>
<path d="M452.794 148.074C451.374 146.891 449.763 145.959 448.03 145.317C446.32 144.676 444.546 144.222 442.739 143.964C440.921 143.69 439.086 143.539 437.248 143.512L434.461 143.525C433.53 143.567 432.595 143.614 431.645 143.606C432.55 143.342 433.471 143.132 434.397 142.919C435.33 142.777 436.27 142.634 437.216 142.544C439.122 142.391 441.039 142.456 442.93 142.738C444.837 143.017 446.69 143.59 448.422 144.436C450.168 145.252 451.674 146.505 452.794 148.074Z" fill="black"/>
<path d="M383.144 198.99C383.674 197.232 384.378 195.53 385.247 193.912C386.094 192.274 387.086 190.715 388.211 189.254C389.329 187.767 390.635 186.432 392.097 185.282C393.545 184.101 395.259 183.292 397.09 182.925C395.486 183.727 394.014 184.77 392.726 186.019C391.441 187.251 390.26 188.587 389.193 190.012C386.989 192.832 385.105 195.901 383.144 198.99Z" fill="black"/>
<path d="M427.101 218.074C427.659 218.216 428.241 218.245 428.811 218.161C429.377 218.098 429.934 217.971 430.472 217.784L431.265 217.471C431.525 217.359 431.768 217.205 432.02 217.075C432.52 216.807 432.998 216.499 433.45 216.155C435.267 214.775 436.884 213.152 438.255 211.33C438.92 210.398 439.595 209.475 440.231 208.524C440.827 207.544 441.467 206.595 442.026 205.593L443.69 202.577L445.206 199.479C447.209 195.314 449.169 191.104 451.24 186.961L454.342 180.742C455.416 178.69 456.452 176.619 457.559 174.584C456.703 176.745 455.776 178.868 454.888 181.011L452.1 187.376C450.231 191.617 448.312 195.818 446.325 200.012C444.388 204.274 441.926 208.276 438.995 211.927C437.49 213.74 435.736 215.332 433.787 216.657C433.29 216.976 432.768 217.255 432.227 217.493C431.954 217.607 431.693 217.744 431.413 217.839L430.566 218.097C429.435 218.44 428.227 218.432 427.101 218.074Z" fill="black"/>
<path d="M425.955 190.1C425.88 190.1 425.806 190.086 425.737 190.06L420.181 187.974C420.028 187.915 419.904 187.799 419.836 187.649C419.769 187.499 419.763 187.329 419.821 187.175C419.879 187.022 419.995 186.897 420.144 186.829C420.294 186.761 420.464 186.755 420.618 186.812L426.173 188.898C426.309 188.949 426.423 189.046 426.495 189.173C426.566 189.299 426.591 189.447 426.565 189.59C426.539 189.733 426.464 189.862 426.352 189.955C426.241 190.049 426.1 190.1 425.955 190.1V190.1Z" fill="black"/>
<path d="M380.331 188.554C378.995 188.971 377.579 189.064 376.2 188.826C374.801 188.572 373.461 188.061 372.248 187.319C371.044 186.585 369.937 185.705 368.95 184.699C367.962 183.682 367.084 182.563 366.332 181.361L367.594 181.885C365.031 182.543 362.387 182.828 359.743 182.733C358.39 182.712 357.049 182.484 355.765 182.058C355.079 181.826 354.472 181.407 354.011 180.849C353.771 180.562 353.589 180.233 353.473 179.877C353.388 179.503 353.388 179.114 353.472 178.739C353.658 178.053 354.021 177.428 354.524 176.926C354.97 176.43 355.46 175.974 355.988 175.565C357.011 174.743 358.086 173.99 359.208 173.31C361.418 171.942 363.721 170.732 366.1 169.686C367.297 169.195 368.419 168.622 369.796 168.2C371.136 167.791 372.528 167.574 373.929 167.554C375.314 167.548 376.694 167.734 378.028 168.105C379.347 168.434 380.63 168.897 381.855 169.485C384.243 170.652 386.456 172.147 388.43 173.927C390.396 175.646 392.141 177.603 393.624 179.751C393.642 179.776 393.649 179.807 393.646 179.837C393.642 179.867 393.628 179.894 393.605 179.915C393.583 179.935 393.554 179.946 393.524 179.947C393.493 179.947 393.464 179.936 393.441 179.917L393.435 179.912C389.707 176.534 385.46 173.778 380.857 171.748C379.748 171.275 378.594 170.915 377.413 170.673C376.273 170.365 375.097 170.204 373.916 170.193C372.75 170.156 371.585 170.279 370.452 170.557C369.355 170.822 368.146 171.343 366.951 171.765C364.577 172.671 362.186 173.532 359.867 174.546C358.72 175.059 357.609 175.65 356.543 176.316C356.031 176.656 355.551 177.043 355.11 177.471C354.688 177.862 354.376 178.357 354.206 178.906C354.139 179.161 354.142 179.43 354.215 179.684C354.289 179.937 354.43 180.166 354.623 180.345C354.999 180.769 355.501 181.06 356.055 181.175C357.252 181.419 358.482 181.451 359.69 181.271C362.153 180.887 364.595 180.375 367.005 179.738C367.244 179.683 367.494 179.704 367.721 179.798C367.947 179.892 368.138 180.054 368.268 180.262C368.92 181.327 369.665 182.332 370.493 183.267C371.313 184.223 372.229 185.093 373.226 185.862C374.217 186.631 375.319 187.244 376.495 187.679C377.711 188.117 378.996 188.33 380.289 188.309C380.322 188.308 380.354 188.321 380.378 188.344C380.402 188.367 380.416 188.398 380.417 188.432C380.417 188.458 380.409 188.485 380.393 188.507C380.378 188.528 380.356 188.545 380.331 188.554Z" fill="black"/>
<path d="M401.318 275.839L404.106 282.649C404.118 282.68 404.122 282.715 404.116 282.748C404.109 282.781 404.094 282.812 404.07 282.836C404.047 282.861 404.017 282.878 403.984 282.886C403.951 282.893 403.917 282.891 403.885 282.88L403.874 282.876C402.475 282.33 401.01 281.973 399.517 281.813C398.032 281.689 396.536 281.8 395.086 282.144C392.203 282.956 389.584 284.512 387.492 286.656C385.374 288.788 383.545 291.189 382.053 293.798C380.521 296.387 379.233 299.113 378.205 301.939L378.202 301.946C378.168 302.042 378.104 302.126 378.021 302.186C377.937 302.245 377.837 302.278 377.734 302.279C377.632 302.28 377.531 302.25 377.446 302.193C377.361 302.135 377.296 302.053 377.259 301.957L371.847 287.976L366.527 273.96L367.514 273.722L369.419 293.104C370.034 299.566 370.704 306.022 371.378 312.479C371.382 312.521 371.373 312.564 371.352 312.602C369.889 314.902 367.677 316.627 365.089 317.485C362.553 318.358 359.903 318.853 357.224 318.955C354.558 319.082 351.886 319.02 349.229 318.769C346.569 318.53 343.926 318.134 341.313 317.583C341.251 317.57 341.194 317.538 341.15 317.492C341.106 317.445 341.078 317.387 341.068 317.324L341.066 317.316C339.546 307.513 338.27 297.679 337.237 287.814C336.233 277.946 335.468 268.047 335.211 258.114C335.191 255.629 335.167 253.144 335.203 250.658L335.328 246.927L335.397 245.062L335.55 243.198L335.864 239.471L336.429 235.758C336.625 234.517 336.897 233.29 337.243 232.083C337.402 231.475 337.541 230.861 337.716 230.257L338.379 228.485L339.051 226.716C339.329 226.149 339.636 225.594 339.927 225.033C340.229 224.477 340.501 223.905 340.829 223.365L341.921 221.808C342.655 220.774 343.476 219.804 344.373 218.907C344.823 218.46 345.298 218.039 345.797 217.646C346.265 217.219 346.769 216.832 347.303 216.489L348.9 215.455L350.602 214.609C351.174 214.338 351.762 214.101 352.362 213.901C352.951 213.671 353.555 213.483 354.171 213.338C356.617 212.668 359.161 212.425 361.69 212.62L361.284 212.851C361.813 211.711 362.469 210.633 363.238 209.639C364.026 208.664 364.918 207.778 365.897 206.995C367.882 205.486 370.116 204.337 372.498 203.601C374.858 202.874 377.291 202.409 379.754 202.215C382.204 202 384.669 202.008 387.118 202.238C387.135 202.239 387.15 202.247 387.16 202.26C387.17 202.273 387.175 202.289 387.174 202.305C387.172 202.322 387.163 202.336 387.151 202.347C387.138 202.357 387.121 202.362 387.105 202.361C384.665 202.204 382.216 202.268 379.787 202.551C377.365 202.813 374.979 203.341 372.672 204.126C370.373 204.879 368.222 206.028 366.316 207.519C365.392 208.283 364.553 209.143 363.813 210.087C363.097 211.044 362.49 212.078 362.003 213.169C361.969 213.242 361.915 213.303 361.846 213.345C361.778 213.386 361.698 213.406 361.618 213.402L361.596 213.4C356.715 213.126 351.885 214.508 347.888 217.322C343.988 220.247 341.076 224.294 339.542 228.921L338.907 230.631C338.739 231.216 338.606 231.812 338.454 232.402C338.12 233.577 337.858 234.772 337.671 235.979L337.128 239.615L336.828 243.294L336.681 245.134L336.618 246.982L336.504 250.68C336.471 253.147 336.515 255.618 336.523 258.088C336.705 267.971 337.416 277.851 338.328 287.707C339.222 297.566 340.349 307.402 341.709 317.217L341.463 316.95C344.041 317.536 346.651 317.969 349.28 318.248C351.909 318.546 354.557 318.635 357.2 318.516C359.839 318.431 362.451 317.96 364.953 317.116C367.464 316.312 369.607 314.64 370.999 312.4L370.973 312.522C370.258 306.07 369.539 299.619 368.766 293.174L366.496 273.832C366.481 273.708 366.512 273.584 366.583 273.481C366.654 273.379 366.76 273.306 366.881 273.276C367.002 273.246 367.129 273.261 367.24 273.318C367.35 273.375 367.436 273.471 367.481 273.587L367.483 273.593L372.889 287.577L378.198 301.597L377.252 301.615C378.324 298.731 379.661 295.953 381.247 293.317C382.814 290.662 384.732 288.23 386.95 286.088C389.169 283.898 391.926 282.331 394.943 281.544C396.462 281.213 398.026 281.138 399.569 281.322C401.097 281.532 402.59 281.945 404.009 282.55L403.778 282.777L401.203 275.885C401.197 275.869 401.198 275.853 401.204 275.838C401.211 275.823 401.223 275.811 401.238 275.805C401.254 275.799 401.27 275.799 401.285 275.806C401.3 275.812 401.312 275.824 401.319 275.839H401.318Z" fill="black"/>
<path d="M367.005 273.777L368.11 284.004L361.271 245.218L368.742 278.307L367.005 273.777Z" fill="black"/>
<path d="M417.665 219.153C403.866 219.153 363.487 213.879 361.563 213.626C361.482 213.616 361.404 213.589 361.333 213.549C361.262 213.508 361.2 213.454 361.15 213.389C361.101 213.325 361.064 213.251 361.043 213.172C361.022 213.093 361.016 213.011 361.027 212.93C361.037 212.849 361.064 212.771 361.105 212.7C361.145 212.63 361.2 212.568 361.265 212.518C361.329 212.468 361.403 212.432 361.482 212.411C361.561 212.39 361.643 212.385 361.724 212.396C362.253 212.464 414.677 219.309 421.204 217.673C421.283 217.653 421.366 217.648 421.447 217.66C421.527 217.672 421.605 217.699 421.675 217.741C421.745 217.783 421.807 217.838 421.855 217.903C421.904 217.969 421.939 218.043 421.959 218.123C421.979 218.202 421.983 218.284 421.971 218.365C421.959 218.446 421.932 218.523 421.89 218.593C421.848 218.663 421.792 218.724 421.727 218.773C421.661 218.821 421.586 218.856 421.507 218.876C420.24 219.105 418.952 219.198 417.665 219.153Z" fill="black"/>
<path d="M511.77 151.051C511.77 151.051 467.09 140.631 456.07 193.951C445.05 247.261 442.24 243.391 442.24 243.391C422.13 272.541 382.91 254.661 374.01 250.071C372.999 249.524 371.846 249.296 370.702 249.42C369.559 249.543 368.481 250.011 367.61 250.761C365.22 252.951 365.59 256.491 365.59 256.491L365.76 260.501C365.79 261.147 365.96 261.779 366.256 262.354C366.553 262.929 366.971 263.433 367.48 263.831C381.98 275.351 407.79 277.741 431.15 276.521C432.49 276.451 433.83 276.371 435.15 276.271C455.34 274.861 473.05 270.901 479.01 268.121C492.41 261.861 496.28 264.541 517.13 209.431C537.99 154.331 511.77 151.051 511.77 151.051ZM520.66 165.741L520.65 165.731C514.791 162.539 508.045 161.358 501.45 162.371C494.97 163.461 489.3 167.251 484.96 172.121C482.772 174.584 480.823 177.249 479.14 180.081C477.418 182.923 475.888 185.876 474.56 188.921C471.94 195.072 469.751 201.397 468.01 207.851C467.16 211.091 466.27 214.341 465.51 217.621C465.11 219.261 464.64 220.881 464.22 222.511C463.8 224.141 463.35 225.761 462.89 227.381C461.192 233.924 459.084 240.353 456.58 246.631C455.95 248.201 455.19 249.721 454.46 251.251C453.64 252.751 452.89 254.271 451.96 255.701C450.205 258.652 448.107 261.384 445.71 263.842C443.306 266.354 440.342 268.263 437.06 269.411C436.371 269.634 435.666 269.802 434.95 269.911C433.752 270.099 432.534 270.123 431.33 269.981C429.815 269.796 428.356 269.291 427.05 268.501C427.039 268.494 427.029 268.485 427.021 268.474C427.013 268.463 427.008 268.451 427.005 268.438C427.002 268.425 427.002 268.411 427.005 268.398C427.007 268.385 427.012 268.373 427.02 268.362C427.032 268.341 427.051 268.326 427.073 268.319C427.095 268.312 427.119 268.313 427.14 268.322L427.15 268.331C428.498 268.951 429.957 269.291 431.44 269.331C431.61 269.342 431.78 269.351 431.95 269.351C432.91 269.34 433.866 269.223 434.8 269.001C435.451 268.848 436.093 268.654 436.72 268.421C439.738 267.15 442.431 265.215 444.6 262.761C446.822 260.318 448.779 257.646 450.44 254.791C451.32 253.381 452.07 251.891 452.87 250.441C453.58 248.931 454.4 247.481 455.06 245.951C457.914 239.885 460.321 233.619 462.26 227.201C463.26 223.991 464.03 220.721 464.82 217.461C465.58 214.181 466.21 210.891 466.95 207.591C468.326 200.959 470.294 194.463 472.83 188.181C475.333 181.797 478.901 175.883 483.38 170.691C485.702 168.11 488.415 165.91 491.42 164.171C494.444 162.441 497.77 161.304 501.22 160.821C508.089 160.044 515.011 161.723 520.76 165.561C520.771 165.568 520.781 165.578 520.789 165.589C520.796 165.6 520.802 165.612 520.805 165.625C520.807 165.638 520.808 165.651 520.805 165.665C520.803 165.678 520.797 165.69 520.79 165.701C520.776 165.722 520.756 165.737 520.732 165.744C520.708 165.751 520.683 165.75 520.66 165.741H520.66Z" fill="black"/>
<path d="M476.747 345.319C476.726 346.346 476.401 347.344 475.813 348.186C475.236 349.016 474.538 349.755 473.744 350.38C472.163 351.621 470.439 352.668 468.608 353.497C464.954 355.163 461.143 356.462 457.232 357.373C449.418 359.227 441.398 360.06 433.37 359.853C425.37 359.645 417.407 358.691 409.584 357.004C405.659 356.21 401.814 355.067 398.093 353.587C396.206 352.832 394.418 351.851 392.769 350.664C391.915 350.045 391.164 349.296 390.541 348.445C389.871 347.535 389.487 346.447 389.438 345.319C389.438 344.175 389.777 343.058 390.411 342.106C391.005 341.207 391.735 340.405 392.574 339.729C394.184 338.427 395.966 337.352 397.869 336.535C401.582 334.912 405.458 333.688 409.43 332.884C417.303 331.244 425.328 330.442 433.37 330.494C441.407 330.457 449.419 331.375 457.24 333.228C461.15 334.151 464.96 335.456 468.616 337.122C470.448 337.954 472.172 339.003 473.753 340.248C474.547 340.874 475.244 341.616 475.82 342.448C476.406 343.292 476.729 344.291 476.747 345.319ZM476.499 345.319C476.464 343.339 475.057 341.694 473.523 340.535C471.934 339.372 470.19 338.436 468.342 337.755C464.643 336.388 460.812 335.407 456.911 334.828C449.12 333.655 441.249 333.091 433.37 333.142C425.501 333.106 417.645 333.785 409.899 335.172C406.059 335.872 402.293 336.933 398.653 338.341C396.875 339.039 395.189 339.95 393.63 341.054C392.141 342.145 390.858 343.622 390.796 345.319C390.745 347.021 391.974 348.636 393.435 349.829C394.953 351.05 396.634 352.054 398.428 352.813C402.062 354.366 405.858 355.507 409.745 356.216C413.635 356.946 417.57 357.412 421.523 357.61C425.47 357.851 429.425 357.874 433.37 357.787C441.254 357.668 449.122 357.02 456.919 355.847C460.819 355.256 464.649 354.269 468.35 352.902C470.199 352.219 471.943 351.281 473.532 350.114C475.066 348.952 476.469 347.299 476.499 345.319Z" fill="black"/>
<path d="M368.921 315.137C369.574 316.33 370.056 317.609 370.354 318.936C370.699 320.247 370.964 321.574 371.191 322.906C371.634 325.571 371.995 328.249 372.245 330.935C372.363 332.293 372.495 333.594 372.56 334.997C372.593 336.415 372.352 337.826 371.85 339.152C371.596 339.82 371.264 340.456 370.861 341.046C370.453 341.616 370.006 342.158 369.524 342.668C368.563 343.684 367.455 344.549 366.235 345.234C363.81 346.561 361.129 347.352 358.372 347.553C357.008 347.673 355.635 347.64 354.278 347.457C353.596 347.374 352.923 347.234 352.264 347.039C351.61 346.837 350.981 346.608 350.345 346.377C345.249 344.526 340.614 341.709 335.602 339.785C330.624 337.802 325.486 336.13 320.552 333.882C318.033 332.802 315.64 331.449 313.417 329.847C312.294 329.008 311.282 328.031 310.403 326.939C309.9 326.324 309.574 325.583 309.463 324.796C309.405 324.391 309.415 323.98 309.491 323.578C309.579 323.19 309.717 322.815 309.9 322.462C310.666 321.186 311.797 320.169 313.146 319.542C314.414 318.911 315.778 318.495 317.182 318.312C317.878 318.22 318.578 318.174 319.28 318.177C319.976 318.205 320.695 318.258 321.332 318.31C322.643 318.42 323.981 318.42 325.315 318.401C330.664 318.294 336.03 317.776 341.379 317.205C341.395 317.203 341.412 317.208 341.425 317.218C341.438 317.228 341.446 317.243 341.448 317.259C341.45 317.275 341.446 317.291 341.436 317.303C341.427 317.316 341.413 317.325 341.398 317.328C336.095 318.344 330.734 319.027 325.346 319.371C323.992 319.428 322.634 319.467 321.26 319.39C320.555 319.352 319.93 319.327 319.282 319.316C318.637 319.333 317.995 319.393 317.359 319.495C316.096 319.698 314.872 320.095 313.731 320.672C312.629 321.194 311.706 322.029 311.075 323.072C310.818 323.557 310.715 324.11 310.781 324.656C310.848 325.202 311.08 325.714 311.446 326.124C312.26 327.127 313.188 328.033 314.209 328.825C316.334 330.403 318.625 331.743 321.042 332.822C325.88 335.107 330.94 336.94 335.87 339.161C338.34 340.252 340.739 341.496 343.138 342.714C345.501 343.989 347.959 345.078 350.49 345.973C351.725 346.462 353.019 346.79 354.338 346.951C355.658 347.069 356.987 347.041 358.301 346.866C360.921 346.556 363.446 345.697 365.711 344.344C366.822 343.677 367.835 342.858 368.719 341.91C369.618 341 370.336 339.928 370.837 338.75C371.31 337.56 371.548 336.289 371.539 335.007C371.501 333.722 371.39 332.341 371.297 331.015C371.089 328.34 370.892 325.661 370.547 323.002C370.331 320.334 369.748 317.709 368.814 315.201L368.811 315.194C368.805 315.18 368.804 315.164 368.809 315.149C368.815 315.134 368.825 315.122 368.839 315.114C368.853 315.107 368.869 315.105 368.885 315.11C368.9 315.114 368.913 315.124 368.921 315.137L368.921 315.137Z" fill="black"/>
<path d="M346.274 318.148C346.397 319.582 346.607 321.007 346.903 322.416C347.172 323.804 347.58 325.162 348.12 326.47C348.597 327.725 349.421 328.82 350.495 329.625C351.016 329.974 351.614 330.19 352.237 330.256C352.882 330.304 353.532 330.237 354.154 330.056C355.472 329.664 356.716 329.058 357.836 328.26C358.999 327.499 360.037 326.564 360.914 325.487C362.71 323.273 363.738 320.537 363.844 317.688C364.215 320.656 363.443 323.653 361.686 326.072C359.891 328.521 357.364 330.335 354.471 331.255C353.701 331.465 352.899 331.535 352.104 331.46C351.286 331.368 350.505 331.069 349.834 330.593C348.603 329.63 347.692 328.317 347.223 326.826C346.319 324.028 345.997 321.075 346.274 318.148Z" fill="black"/>
<path d="M324.856 325.979C324.517 325.194 324.402 324.329 324.524 323.482C324.627 322.611 324.94 321.777 325.435 321.052C325.928 320.328 326.588 319.732 327.358 319.314C327.729 319.107 328.122 318.941 328.53 318.82C328.937 318.717 329.353 318.651 329.772 318.624C329.45 318.912 329.112 319.12 328.802 319.366C328.505 319.63 328.178 319.832 327.915 320.106C327.779 320.239 327.641 320.363 327.5 320.483L327.13 320.893C326.882 321.158 326.658 321.444 326.462 321.749C325.633 323.029 325.085 324.471 324.856 325.979Z" fill="black"/>
<path d="M331.559 325.979C331.214 325.208 331.106 324.351 331.249 323.518C331.374 322.68 331.657 321.874 332.084 321.143C332.515 320.426 333.06 319.786 333.697 319.245C334.015 318.984 334.349 318.744 334.698 318.527C335.059 318.329 335.433 318.157 335.819 318.013C335.596 318.349 335.356 318.674 335.1 318.986L334.401 319.911C333.953 320.509 333.537 321.13 333.154 321.771C332.373 323.066 331.833 324.492 331.559 325.979Z" fill="black"/>
<path d="M343.237 349.338C340.913 348.582 338.672 347.592 336.547 346.384C332.923 344.311 326.593 340.749 324.806 340.054C319.171 337.845 312.483 335.561 310.074 331.862C305.967 325.558 310.072 322.302 310.072 322.302C311.371 329.238 319.494 333.128 331.111 337.597C342.728 342.065 344.168 344.174 352.111 346.756C356.331 348.134 365.9 347.315 370.406 340.724C370.727 340.256 371.001 339.757 371.225 339.235L372.05 332.758C378.147 356.938 352.173 352.229 343.237 349.338Z" fill="black"/>
<path d="M379.786 330.769C378.545 330.363 377.463 329.578 376.692 328.524C375.922 327.471 375.503 326.201 375.493 324.896C375.382 323.025 375.871 321.167 376.889 319.594C377.908 318.021 379.402 316.814 381.155 316.149C387.445 313.501 390.424 305.808 391.545 302.001C392.483 298.764 393.935 295.698 395.844 292.921C398.975 288.408 403.89 283.893 409.886 287.118C411.964 288.302 413.542 290.201 414.325 292.462C415.827 296.49 418.234 300.467 411.718 309.328C410.662 310.745 409.52 312.097 408.299 313.376C406.411 315.415 404.932 317.797 403.942 320.394C403.037 322.926 394.176 335.346 379.786 330.769Z" fill="black"/>
<path d="M380.974 294.727C381.602 297.94 381.598 301.244 380.96 304.455C380.36 307.688 379.244 310.803 377.655 313.682C376.863 315.099 375.992 316.47 375.045 317.79C374.626 318.432 374.294 319.127 374.058 319.856C373.851 320.598 373.766 321.369 373.806 322.139C373.803 323.723 374.086 325.295 374.641 326.779C374.885 327.536 375.322 328.217 375.91 328.754C376.497 329.291 377.214 329.666 377.991 329.841C377.169 329.774 376.389 329.449 375.763 328.912C375.145 328.358 374.647 327.686 374.297 326.934C373.605 325.434 373.207 323.815 373.125 322.165C373.05 321.322 373.099 320.473 373.268 319.644C373.462 318.817 373.771 318.021 374.187 317.28C375.038 315.832 375.88 314.558 376.596 313.119C378.069 310.307 379.187 307.323 379.923 304.235C380.698 301.127 381.051 297.929 380.974 294.727Z" fill="black"/>
<path d="M401.286 281.858C401.877 281.897 402.456 282.041 402.996 282.282C403.529 282.507 404.033 282.795 404.497 283.142C404.97 283.494 405.388 283.913 405.738 284.387C406.117 284.866 406.351 285.445 406.411 286.053C405.923 285.681 405.486 285.386 405.051 285.07L403.75 284.133C402.84 283.478 402.012 282.714 401.286 281.858Z" fill="black"/>
<path d="M385.26 200.672C385.262 200.691 385.26 200.71 385.255 200.728C385.249 200.747 385.24 200.764 385.228 200.779C385.216 200.793 385.201 200.806 385.184 200.815C385.168 200.824 385.149 200.83 385.13 200.832L345.22 206.432L306.22 211.732L306.48 254.632L306.6 276.542L306.66 298.452C306.662 298.815 306.532 299.167 306.295 299.442C306.058 299.718 305.73 299.899 305.37 299.952H305.36L252.35 307.712L199.31 315.282H199.3C199.012 315.323 198.719 315.274 198.46 315.142L161.99 296.952L125.57 278.662H125.56C125.39 278.576 125.247 278.445 125.148 278.282C125.049 278.119 124.998 277.932 125 277.742L125.56 232.262C125.77 217.092 125.79 201.932 125.92 186.772C125.921 186.657 125.964 186.546 126.042 186.461C126.119 186.376 126.226 186.323 126.34 186.311L156.01 183.172L157.24 183.042L157.51 183.012C157.35 183.392 157.19 183.772 157.04 184.162L156.17 184.252L126.85 187.192C126.86 202.222 126.76 217.242 126.85 232.262L127.05 277.112L163.14 294.632L199.33 312.332L251.9 304.582L303.63 297.142L303.69 276.542L303.82 254.632L304.09 210.812V210.802C304.09 210.546 304.184 210.299 304.353 210.108C304.523 209.916 304.756 209.793 305.01 209.762L345.04 205.072L385.1 200.542C385.119 200.54 385.138 200.542 385.157 200.547C385.175 200.553 385.192 200.562 385.207 200.574C385.222 200.586 385.234 200.601 385.243 200.617C385.252 200.634 385.258 200.653 385.26 200.672Z" fill="black"/>
<path d="M158.62 182.892C158.76 183.252 158.91 183.612 159.05 183.962C158.51 184.012 157.97 184.072 157.43 184.122C157.64 183.732 157.85 183.342 158.05 182.952L158.62 182.892Z" fill="black"/>
<path d="M159.38 182.812C160.27 182.722 161.16 182.632 162.05 182.532C161.89 182.922 161.73 183.322 161.57 183.712C161.01 183.762 160.45 183.822 159.89 183.882C159.72 183.522 159.55 183.172 159.38 182.812Z" fill="black"/>
<path d="M162.97 182.912L163.23 183.542C163.05 183.562 162.87 183.582 162.7 183.602C162.79 183.372 162.88 183.142 162.97 182.912Z" fill="black"/>
<path d="M166.4 182.062H166.5L166.05 183.272C165.43 183.332 164.81 183.392 164.2 183.452L163.79 182.342C164.66 182.252 165.53 182.152 166.4 182.062Z" fill="black"/>
<path d="M167.04 182.562L167.25 183.152C167.11 183.172 166.96 183.182 166.82 183.192L167.04 182.562Z" fill="black"/>
<path d="M170.82 181.892L170.41 182.852L167.89 183.092L167.54 182.042C168.63 182.012 169.73 181.962 170.82 181.892Z" fill="black"/>
<path d="M171.12 181.992L171.43 182.752C171.22 182.772 171.01 182.792 170.8 182.812L171.12 181.992Z" fill="black"/>
<path d="M424.3 172.761C424.291 172.798 424.269 172.83 424.237 172.85C424.205 172.871 424.167 172.878 424.13 172.871L398.79 167.522C390.39 165.742 382 163.938 373.62 162.112L342.85 165.561L311.96 168.871L281.06 172.171L250.15 175.301C239.84 176.351 229.53 177.311 219.22 178.281L188.28 181.171C183.52 181.612 178.763 182.058 174.01 182.511C173.24 182.581 172.47 182.651 171.7 182.731L171.38 181.851C172.3 181.782 173.22 181.701 174.15 181.581C173.6 181.512 173.04 181.451 172.49 181.391C173.07 181.331 173.64 181.262 174.21 181.201C178.85 180.681 183.487 180.158 188.12 179.631L219 176.161C229.29 174.992 239.58 173.831 249.88 172.772L280.79 169.522L311.71 166.451L342.63 163.391L373.56 160.481H373.58C373.66 160.478 373.741 160.484 373.82 160.501C382.23 162.461 390.63 164.458 399.02 166.491L424.19 172.581C424.209 172.585 424.227 172.593 424.244 172.605C424.26 172.616 424.273 172.631 424.284 172.648C424.294 172.664 424.301 172.683 424.304 172.703C424.306 172.722 424.305 172.742 424.3 172.761Z" fill="black"/>
<path d="M214.149 269.002V304.062L292.789 293.932V259.972L214.149 269.002ZM258.829 283.982C253.029 283.982 253.039 274.982 258.829 274.982C264.629 274.982 264.619 283.982 258.829 283.982V283.982Z" fill="black"/>
<path d="M214.149 227.651V262.711L292.789 252.581V218.621L214.149 227.651ZM258.829 242.631C253.029 242.631 253.039 233.631 258.829 233.631C264.629 233.631 264.619 242.631 258.829 242.631V242.631Z" fill="black"/>
<path d="M388.18 174.82L388.192 174.819C389.842 174.397 391.506 174.051 393.162 173.665C394.823 173.306 396.486 172.954 398.152 172.626C398.24 172.608 398.332 172.618 398.414 172.655L398.438 172.665C401.931 174.204 405.391 175.813 408.836 177.453C412.277 179.103 415.703 180.784 419.096 182.534L419.124 182.548C419.224 182.6 419.3 182.69 419.335 182.798C419.369 182.906 419.36 183.024 419.308 183.124C419.274 183.188 419.226 183.242 419.166 183.283C419.106 183.323 419.038 183.347 418.966 183.354C417.542 183.483 416.12 183.63 414.692 183.73C413.265 183.834 411.84 183.959 410.408 184.03C411.811 183.732 413.22 183.489 414.627 183.225C416.033 182.957 417.445 182.735 418.854 182.496L418.724 183.316C415.225 181.789 411.759 180.193 408.307 178.567C404.86 176.93 401.427 175.263 398.029 173.525L398.313 173.565C396.633 173.812 394.949 174.034 393.263 174.25C391.573 174.44 389.889 174.668 388.192 174.821H388.192L388.18 174.82Z" fill="black"/>
<path d="M380.944 187.877L380.932 187.878L372.595 189.214C369.817 189.667 367.03 190.045 364.248 190.464C361.463 190.865 358.684 191.302 355.895 191.672L347.533 192.808C347.444 192.819 347.353 192.81 347.268 192.781C343.907 191.624 340.533 190.507 337.188 189.304L327.135 185.749C327.067 185.726 327.005 185.689 326.952 185.641C326.898 185.594 326.854 185.536 326.823 185.472C326.792 185.407 326.774 185.337 326.769 185.266C326.765 185.194 326.775 185.122 326.799 185.055C326.831 184.963 326.888 184.881 326.962 184.818C327.037 184.755 327.126 184.713 327.222 184.696C331.724 183.928 336.245 183.274 340.757 182.568C345.269 181.865 349.794 181.23 354.321 180.617C349.847 181.542 345.369 182.446 340.879 183.283C336.389 184.115 331.907 185.001 327.406 185.771L327.493 184.718L337.584 188.163C340.954 189.294 344.294 190.51 347.648 191.687L347.383 191.659L355.757 190.615C358.548 190.259 361.347 189.969 364.141 189.643C366.938 189.335 369.729 188.987 372.53 188.713C375.33 188.428 378.127 188.124 380.931 187.877H380.932L380.944 187.877Z" fill="black"/>
<path d="M348.463 170.132C345.453 171.006 342.427 171.803 339.409 172.634C338.652 172.834 337.902 173.061 337.139 173.231L334.844 173.711L330.261 174.702L327.969 175.198C327.137 175.424 326.267 175.476 325.414 175.351C324.509 175.212 323.667 174.803 322.999 174.177C322.661 173.836 322.401 173.425 322.237 172.974C322.074 172.523 322.01 172.041 322.051 171.563C322.242 169.844 323.025 168.245 324.267 167.041C324.863 166.448 325.536 165.94 326.27 165.532C326.631 165.331 327.003 165.15 327.384 164.991C327.733 164.843 328.077 164.684 328.416 164.514C331.162 163.243 333.473 161.194 335.065 158.621C335.813 157.331 336.308 155.91 336.525 154.435C336.72 152.986 336.722 151.377 336.801 149.825L337.566 131.085L337.58 131.243C337.504 131.036 337.399 130.841 337.267 130.665C337.114 130.456 336.94 130.262 336.747 130.089C336.324 129.741 335.869 129.434 335.389 129.172C334.361 128.63 333.261 128.237 332.122 128.005C330.947 127.777 329.757 127.633 328.561 127.575C327.357 127.508 326.147 127.515 324.931 127.536C326.132 127.371 327.339 127.189 328.561 127.134C329.79 127.064 331.023 127.083 332.249 127.19C333.512 127.311 334.75 127.613 335.926 128.087C336.541 128.346 337.105 128.712 337.591 129.169C338.146 129.653 338.561 130.277 338.792 130.977C338.804 131.016 338.809 131.056 338.808 131.096L338.806 131.135L338.041 149.877C337.959 151.446 337.97 152.972 337.752 154.623C337.511 156.251 336.964 157.818 336.14 159.242C334.426 162.027 331.932 164.247 328.967 165.627C328.607 165.806 328.242 165.975 327.872 166.132C327.531 166.274 327.199 166.435 326.877 166.614C326.243 166.967 325.661 167.406 325.146 167.917C324.122 168.908 323.467 170.22 323.29 171.635C323.258 171.937 323.293 172.243 323.394 172.53C323.495 172.817 323.658 173.078 323.872 173.294C324.358 173.738 324.965 174.028 325.616 174.127C326.316 174.226 327.028 174.178 327.707 173.985L329.999 173.489L334.582 172.498L336.87 171.987C337.635 171.827 338.412 171.724 339.184 171.593C342.276 171.102 345.361 170.579 348.463 170.132Z" fill="black"/>
<path d="M329.479 114.141C330.809 115.651 332.039 117.251 333.669 118.801L316.239 140.391C315.939 119.841 301.649 118.801 301.649 118.801L325.139 109.861C325.955 110.51 326.733 111.204 327.47 111.941C328.169 112.651 328.819 113.391 329.479 114.141Z" fill="black"/>
<path d="M341.12 118.801H333.669C333.565 117.693 333.264 116.613 332.779 115.611C332.315 114.606 331.713 113.67 330.99 112.831C330.257 111.974 329.385 111.247 328.41 110.681C327.421 110.101 326.286 109.816 325.14 109.861L328.46 103.601L341.12 118.801Z" fill="black"/>
<path d="M316.243 140.394C314.017 139.708 311.941 138.607 310.124 137.15C308.265 135.712 306.643 133.99 305.32 132.047C304.976 131.569 304.666 131.068 304.39 130.548C304.113 130.028 303.792 129.532 303.555 128.994C303.062 127.927 302.658 126.822 302.347 125.689C301.703 123.452 301.466 121.118 301.647 118.798C302.238 120.966 302.964 123.095 303.82 125.172C304.66 127.195 305.716 129.121 306.969 130.917C308.197 132.737 309.599 134.434 311.153 135.985C312.74 137.576 314.441 139.05 316.243 140.394Z" fill="black"/>
<path d="M310.136 133.468C317.324 133.468 317.336 122.298 310.136 122.298C302.949 122.298 302.937 133.468 310.136 133.468Z" fill="black"/>
<path d="M257.972 179.052L276.348 175.869C282.607 174.804 288.946 173.71 295.269 172.892L295.29 172.889C295.383 172.877 295.478 172.894 295.561 172.939L302.914 176.903C305.358 178.238 307.826 179.524 310.293 180.815C312.75 182.123 315.247 183.356 317.727 184.619C320.206 185.885 322.716 187.092 325.209 188.332C325.272 188.363 325.324 188.413 325.357 188.476C325.39 188.538 325.402 188.609 325.392 188.679C325.383 188.749 325.351 188.814 325.302 188.865C325.254 188.915 325.19 188.95 325.121 188.963L325.108 188.965C318.835 190.099 312.558 191.206 306.271 192.247C299.986 193.306 293.702 194.37 287.402 195.333L287.396 195.334C287.258 195.355 287.117 195.331 286.994 195.265C282.029 192.6 277.111 189.816 272.244 187.085C267.412 184.329 262.656 181.634 257.972 179.052ZM258.094 179.073C263.166 181.702 268.165 184.217 273.088 186.672C277.976 189.151 282.814 191.577 287.604 194.122L287.197 194.054C293.482 192.997 299.783 192.039 306.083 191.078C312.381 190.099 318.689 189.185 325.001 188.299L324.9 188.932C322.441 187.627 319.999 186.289 317.526 185.012C315.054 183.731 312.598 182.419 310.104 181.183C307.618 179.93 305.135 178.672 302.626 177.462L295.123 173.793L295.414 173.841C289.301 174.921 283.204 175.726 277.027 176.56L267.662 177.784L258.094 179.073Z" fill="black"/>
<path d="M279.927 182.973C281.275 182.673 282.638 182.441 284.01 182.279C285.31 182.486 286.616 182.651 287.918 182.839L295.738 183.935L303.557 185.031L307.466 185.579C308.717 186.135 309.97 186.681 311.204 187.356C309.831 187.667 308.477 187.847 307.122 188.038L303.212 187.49L295.393 186.394L287.574 185.298C286.27 185.121 284.969 184.92 283.662 184.762C282.388 184.229 281.141 183.632 279.927 182.973Z" fill="black"/>
<path d="M178.34 185.992L196.716 182.809C202.976 181.744 209.314 180.65 215.637 179.832L215.658 179.829C215.751 179.817 215.846 179.834 215.929 179.879L223.282 183.843C225.726 185.178 228.195 186.464 230.661 187.755C233.119 189.063 235.615 190.296 238.095 191.559C240.574 192.825 243.084 194.032 245.577 195.271C245.64 195.303 245.692 195.353 245.725 195.415C245.758 195.478 245.77 195.549 245.76 195.619C245.751 195.689 245.719 195.753 245.671 195.804C245.622 195.855 245.558 195.89 245.489 195.903L245.476 195.905C239.204 197.039 232.927 198.146 226.639 199.187C220.354 200.246 214.07 201.31 207.77 202.273L207.764 202.274C207.626 202.295 207.485 202.271 207.362 202.205C202.397 199.54 197.479 196.756 192.612 194.025C187.78 191.269 183.024 188.574 178.34 185.992ZM178.462 186.013C183.534 188.642 188.533 191.157 193.456 193.612C198.344 196.091 203.182 198.517 207.972 201.062L207.565 200.994C213.85 199.937 220.151 198.979 226.451 198.018C232.749 197.039 239.057 196.125 245.369 195.238L245.269 195.872C242.809 194.567 240.367 193.229 237.894 191.952C235.422 190.671 232.966 189.359 230.472 188.123C227.986 186.87 225.503 185.612 222.995 184.402L215.491 180.733L215.782 180.781C209.669 181.861 203.572 182.666 197.395 183.5L188.031 184.724L178.462 186.013Z" fill="black"/>
<path d="M223.793 184.403C226.046 183.943 228.303 183.508 230.564 183.101C232.826 182.707 235.084 182.274 237.352 181.913C241.886 181.179 246.413 180.397 250.968 179.802L250.992 179.799C251.091 179.786 251.191 179.805 251.278 179.853L258.607 183.864C261.049 185.203 263.518 186.488 265.99 187.768C268.475 189.023 270.959 190.279 273.47 191.485L280.983 195.135C281.076 195.18 281.152 195.253 281.2 195.344C281.249 195.435 281.267 195.539 281.253 195.641C281.239 195.743 281.193 195.838 281.122 195.912C281.05 195.987 280.957 196.036 280.856 196.055L280.836 196.058L271.416 197.688C268.275 198.226 265.133 198.758 261.986 199.256C258.837 199.746 255.689 200.238 252.533 200.681C249.377 201.129 246.226 201.601 243.063 202.006L243.042 202.008C242.966 202.018 242.89 202.003 242.823 201.966C240.137 200.446 237.465 198.9 234.807 197.328C234.793 197.32 234.783 197.306 234.779 197.291C234.775 197.276 234.776 197.259 234.784 197.245C234.791 197.231 234.804 197.22 234.819 197.215C234.834 197.21 234.851 197.211 234.865 197.218C237.654 198.546 240.426 199.904 243.182 201.293L242.942 201.253C246.073 200.648 249.214 200.111 252.351 199.55C255.487 198.983 258.631 198.465 261.775 197.945C264.921 197.435 268.071 196.957 271.223 196.485L280.68 195.087L280.533 196.01L273.191 192.028C270.749 190.689 268.281 189.4 265.814 188.111C263.334 186.847 260.851 185.588 258.34 184.382L250.813 180.76L251.122 180.81C246.597 181.602 242.043 182.205 237.496 182.858C235.223 183.19 232.94 183.45 230.662 183.749C228.383 184.037 226.1 184.296 223.812 184.526C223.796 184.527 223.78 184.523 223.767 184.513C223.755 184.503 223.746 184.489 223.744 184.473C223.741 184.458 223.745 184.441 223.754 184.428C223.763 184.415 223.777 184.406 223.793 184.403L223.793 184.403Z" fill="black"/>
<path d="M377.18 124.352C376.66 125.822 376.07 127.262 375.48 128.702L373.13 132.662L368.62 140.282H366.88L367.15 139.832L371.84 131.902L374.19 127.932C375.17 126.732 376.14 125.522 377.18 124.352Z" fill="black"/>
<path d="M366.2 129.331L365.64 134.231L364.95 140.281H363.439L364.15 134.061L364.7 129.161C365.11 127.551 365.509 125.941 366.009 124.351C366.13 126.021 366.169 127.671 366.2 129.331Z" fill="black"/>
<path d="M360.009 140.282H360.959L360.429 136.572L359.999 133.592L359.339 128.912C358.889 127.392 358.449 125.862 357.919 124.352C357.849 125.662 357.829 126.962 357.839 128.262V129.132L358.029 130.422L358.519 133.802L359.449 140.282H360.009Z" fill="black"/>
<path d="M356.84 140.282H355.33L354.39 133.802L353.72 129.132C353.71 127.542 353.71 125.952 353.8 124.352C354.33 125.862 354.77 127.392 355.22 128.912L355.88 133.592L356.52 138.052L356.84 140.282Z" fill="black"/>
<path d="M358.03 129.541V130.421L358.02 134.141V140.281H356.52V129.542C356.74 128.012 356.96 126.481 357.27 124.941C357.49 126.052 357.68 127.161 357.84 128.261C357.91 128.691 357.97 129.112 358.03 129.541Z" fill="black"/>
<path d="M362.65 130.311L362.13 134.881L361.52 140.281H360.01L360.43 136.571L360.64 134.711L361.15 130.141C361.54 128.641 361.93 127.141 362.41 125.661C362.55 127.211 362.6 128.761 362.65 130.311Z" fill="black"/>
<path d="M352.21 146.401V151.802C352.47 151.772 352.73 151.752 352.99 151.722L355.24 146.672C354.23 146.601 353.22 146.522 352.21 146.401ZM355.52 146.762L353.11 151.712C354.56 151.561 356.02 151.462 357.47 151.402L355.52 146.762ZM355.84 146.712L357.9 151.152L359.54 146.862C358.31 146.842 357.07 146.782 355.84 146.712L355.84 146.712ZM360.06 147.292L358.37 151.372C359.44 151.332 360.5 151.311 361.57 151.302L360.06 147.292ZM362.19 146.902C361.67 146.892 361.14 146.882 360.62 146.882L362.15 150.652L363.45 146.882C363.03 146.891 362.61 146.891 362.19 146.901L362.19 146.902ZM364.12 147.852L362.81 151.302C363.65 151.312 364.49 151.322 365.33 151.352C364.91 150.182 364.51 149.022 364.12 147.851V147.852ZM364.82 146.862C365.25 148.052 365.66 149.242 366.06 150.432C366.6 149.202 367.13 147.982 367.68 146.762C366.73 146.811 365.78 146.842 364.82 146.862L364.82 146.862ZM368.24 147.322C367.74 148.682 367.22 150.032 366.7 151.392C367.85 151.432 369 151.502 370.14 151.602C369.48 150.182 368.86 148.762 368.24 147.322L368.24 147.322ZM352.21 140.282V146.402C355.524 146.04 358.856 145.873 362.19 145.902C362.8 145.902 363.41 145.912 364.02 145.922C364.108 145.897 364.202 145.897 364.29 145.922C365.57 145.942 366.84 145.992 368.11 146.062C368.142 146.05 368.176 146.044 368.21 146.042C368.262 146.042 368.313 146.052 368.36 146.072C369.63 146.152 370.9 146.252 372.17 146.402V140.282L352.21 140.282ZM354.54 144.752C354.151 144.739 353.782 144.575 353.511 144.295C353.24 144.015 353.089 143.641 353.089 143.252C353.089 142.862 353.24 142.488 353.511 142.208C353.782 141.928 354.151 141.765 354.54 141.752C354.929 141.765 355.297 141.929 355.567 142.209C355.837 142.489 355.988 142.863 355.988 143.252C355.988 143.641 355.837 144.014 355.567 144.294C355.297 144.574 354.929 144.738 354.54 144.752L354.54 144.752ZM359.94 144.752C359.551 144.739 359.182 144.575 358.911 144.295C358.64 144.015 358.489 143.641 358.489 143.252C358.489 142.862 358.64 142.488 358.911 142.208C359.182 141.928 359.551 141.765 359.94 141.752C360.329 141.765 360.697 141.929 360.967 142.209C361.237 142.489 361.388 142.863 361.388 143.252C361.388 143.641 361.237 144.014 360.967 144.294C360.697 144.574 360.329 144.738 359.94 144.752L359.94 144.752ZM365.16 144.572C364.771 144.559 364.402 144.395 364.131 144.115C363.86 143.836 363.709 143.461 363.709 143.072C363.709 142.682 363.86 142.308 364.131 142.028C364.402 141.748 364.771 141.585 365.16 141.572C365.549 141.585 365.917 141.749 366.187 142.029C366.457 142.309 366.608 142.683 366.608 143.072C366.608 143.461 366.457 143.834 366.187 144.114C365.917 144.394 365.549 144.558 365.16 144.572L365.16 144.572ZM370.29 144.752C369.901 144.739 369.532 144.575 369.261 144.295C368.99 144.015 368.839 143.641 368.839 143.252C368.839 142.862 368.99 142.488 369.261 142.208C369.532 141.928 369.901 141.765 370.29 141.752C370.679 141.765 371.047 141.929 371.317 142.209C371.587 142.489 371.738 142.863 371.738 143.252C371.738 143.641 371.587 144.014 371.317 144.294C371.047 144.574 370.679 144.738 370.29 144.752L370.29 144.752ZM368.68 146.702C369.24 148.332 369.78 149.962 370.28 151.612C370.91 151.672 371.54 151.722 372.17 151.802V146.402C371.01 146.532 369.85 146.631 368.68 146.702L368.68 146.702ZM355.52 146.762L353.11 151.712C354.56 151.562 356.02 151.462 357.47 151.402L355.52 146.762ZM355.84 146.712L357.9 151.152L359.54 146.862C358.31 146.842 357.07 146.782 355.84 146.712L355.84 146.712ZM360.06 147.292L358.37 151.372C359.44 151.332 360.5 151.312 361.57 151.302L360.06 147.292ZM362.19 146.902C361.67 146.892 361.14 146.882 360.62 146.882L362.15 150.652L363.45 146.882C363.03 146.891 362.61 146.891 362.19 146.901L362.19 146.902ZM364.12 147.852L362.81 151.302C363.65 151.312 364.49 151.322 365.33 151.352C364.91 150.182 364.51 149.022 364.12 147.851L364.12 147.852ZM364.82 146.862C365.25 148.052 365.66 149.242 366.06 150.432C366.6 149.202 367.13 147.982 367.68 146.762C366.73 146.811 365.78 146.842 364.82 146.862L364.82 146.862ZM368.24 147.322C367.74 148.682 367.22 150.032 366.7 151.392C367.85 151.432 369 151.502 370.14 151.602C369.48 150.182 368.86 148.762 368.24 147.322L368.24 147.322ZM355.52 146.762L353.11 151.712C354.56 151.562 356.02 151.462 357.47 151.402L355.52 146.762ZM355.84 146.712L357.9 151.152L359.54 146.862C358.31 146.842 357.07 146.782 355.84 146.712L355.84 146.712ZM360.06 147.292L358.37 151.372C359.44 151.332 360.5 151.312 361.57 151.302L360.06 147.292ZM362.19 146.902C361.67 146.892 361.14 146.882 360.62 146.882L362.15 150.652L363.45 146.882C363.03 146.891 362.61 146.891 362.19 146.901L362.19 146.902ZM364.12 147.852L362.81 151.302C363.65 151.312 364.49 151.322 365.33 151.352C364.91 150.182 364.51 149.022 364.12 147.851L364.12 147.852ZM364.82 146.862C365.25 148.052 365.66 149.242 366.06 150.432C366.6 149.202 367.13 147.982 367.68 146.762C366.73 146.811 365.78 146.842 364.82 146.862L364.82 146.862ZM368.24 147.322C367.74 148.682 367.22 150.032 366.7 151.392C367.85 151.432 369 151.502 370.14 151.602C369.48 150.182 368.86 148.762 368.24 147.322L368.24 147.322ZM352.21 157.652V158.892C352.21 161.539 353.262 164.077 355.133 165.949C357.005 167.821 359.543 168.872 362.19 168.872C364.837 168.872 367.375 167.821 369.247 165.949C371.119 164.077 372.17 161.539 372.17 158.892V157.652C365.534 158.319 358.847 158.319 352.21 157.652ZM366.27 152.222C366.206 152.265 366.133 152.292 366.056 152.301C365.98 152.309 365.902 152.3 365.83 152.272C365.809 152.26 365.789 152.247 365.77 152.232C364.58 152.272 363.38 152.292 362.19 152.302C358.857 152.32 355.525 152.153 352.21 151.802V157.652C358.847 156.985 365.533 156.985 372.17 157.652V151.802C370.2 152.032 368.24 152.151 366.27 152.222L366.27 152.222ZM354.99 156.272C354.601 156.259 354.232 156.096 353.961 155.816C353.69 155.536 353.539 155.162 353.539 154.772C353.539 154.383 353.69 154.008 353.961 153.729C354.232 153.449 354.601 153.285 354.99 153.272C355.378 153.287 355.746 153.451 356.015 153.731C356.284 154.01 356.435 154.384 356.435 154.772C356.435 155.16 356.284 155.533 356.015 155.813C355.745 156.093 355.378 156.257 354.99 156.272L354.99 156.272ZM359.58 156.182C359.191 156.169 358.822 156.005 358.551 155.726C358.28 155.446 358.129 155.071 358.129 154.682C358.129 154.293 358.28 153.918 358.551 153.638C358.822 153.359 359.191 153.195 359.58 153.182C359.968 153.197 360.336 153.361 360.605 153.641C360.874 153.92 361.025 154.294 361.025 154.682C361.025 155.07 360.874 155.443 360.605 155.723C360.335 156.003 359.968 156.167 359.58 156.182L359.58 156.182ZM364.62 156.182C364.231 156.169 363.862 156.005 363.591 155.726C363.32 155.446 363.169 155.071 363.169 154.682C363.169 154.293 363.32 153.918 363.591 153.638C363.862 153.359 364.231 153.195 364.62 153.182C365.008 153.197 365.376 153.361 365.645 153.641C365.914 153.92 366.065 154.293 366.065 154.682C366.065 155.07 365.914 155.443 365.645 155.723C365.375 156.003 365.008 156.167 364.62 156.182L364.62 156.182ZM369.66 156.002C369.271 155.989 368.902 155.826 368.631 155.546C368.36 155.266 368.209 154.892 368.209 154.502C368.209 154.113 368.36 153.738 368.631 153.458C368.902 153.179 369.271 153.015 369.66 153.002C370.048 153.017 370.416 153.181 370.685 153.461C370.954 153.74 371.105 154.114 371.105 154.502C371.105 154.89 370.954 155.263 370.685 155.543C370.416 155.823 370.048 155.987 369.66 156.002L369.66 156.002ZM370.14 151.602C369.48 150.182 368.86 148.762 368.24 147.322C367.74 148.682 367.22 150.032 366.7 151.392C367.85 151.432 369 151.502 370.14 151.601L370.14 151.602ZM367.68 146.762C366.73 146.812 365.78 146.842 364.82 146.862C365.25 148.052 365.66 149.242 366.06 150.432C366.6 149.202 367.13 147.982 367.68 146.762L367.68 146.762ZM365.33 151.352C364.91 150.182 364.51 149.022 364.12 147.852L362.81 151.302C363.65 151.311 364.49 151.322 365.33 151.351L365.33 151.352ZM363.45 146.882C363.03 146.892 362.61 146.892 362.19 146.902C361.67 146.892 361.14 146.882 360.62 146.882L362.15 150.652L363.45 146.882ZM361.57 151.302L360.06 147.292L358.37 151.372C359.44 151.331 360.5 151.311 361.57 151.302L361.57 151.302ZM359.54 146.862C358.31 146.842 357.07 146.782 355.84 146.712L357.9 151.152L359.54 146.862ZM355.52 146.762L353.11 151.712C354.56 151.562 356.02 151.462 357.47 151.402L355.52 146.762ZM368.24 147.322C367.74 148.682 367.22 150.032 366.7 151.392C367.85 151.432 369 151.502 370.14 151.602C369.48 150.182 368.86 148.762 368.24 147.322L368.24 147.322ZM364.82 146.862C365.25 148.052 365.66 149.242 366.06 150.432C366.6 149.202 367.13 147.982 367.68 146.762C366.73 146.811 365.78 146.842 364.82 146.862L364.82 146.862ZM364.12 147.852L362.81 151.302C363.65 151.312 364.49 151.322 365.33 151.352C364.91 150.182 364.51 149.022 364.12 147.851L364.12 147.852ZM362.19 146.902C361.67 146.892 361.14 146.882 360.62 146.882L362.15 150.652L363.45 146.882C363.03 146.891 362.61 146.891 362.19 146.901L362.19 146.902ZM360.06 147.292L358.37 151.372C359.44 151.332 360.5 151.312 361.57 151.302L360.06 147.292ZM355.84 146.712L357.9 151.152L359.54 146.862C358.31 146.842 357.07 146.782 355.84 146.712L355.84 146.712ZM355.52 146.762L353.11 151.712C354.56 151.562 356.02 151.462 357.47 151.402L355.52 146.762ZM368.24 147.322C367.74 148.682 367.22 150.032 366.7 151.392C367.85 151.432 369 151.502 370.14 151.602C369.48 150.182 368.86 148.762 368.24 147.322L368.24 147.322ZM364.82 146.862C365.25 148.052 365.66 149.242 366.06 150.432C366.6 149.202 367.13 147.982 367.68 146.762C366.73 146.811 365.78 146.842 364.82 146.862L364.82 146.862ZM364.12 147.852L362.81 151.302C363.65 151.312 364.49 151.322 365.33 151.352C364.91 150.182 364.51 149.022 364.12 147.851L364.12 147.852ZM362.19 146.902C361.67 146.892 361.14 146.882 360.62 146.882L362.15 150.652L363.45 146.882C363.03 146.891 362.61 146.891 362.19 146.901L362.19 146.902ZM360.06 147.292L358.37 151.372C359.44 151.332 360.5 151.312 361.57 151.302L360.06 147.292ZM355.84 146.712L357.9 151.152L359.54 146.862C358.31 146.842 357.07 146.782 355.84 146.712L355.84 146.712ZM355.52 146.762L353.11 151.712C354.56 151.562 356.02 151.462 357.47 151.402L355.52 146.762Z" fill="black"/>
<path d="M189.768 310.819C189.954 313.289 190.049 315.758 190.179 318.227C190.316 320.697 190.377 323.166 190.466 325.635C190.522 328.105 190.614 330.574 190.641 333.043C190.672 335.513 190.736 337.982 190.736 340.451L190.024 339.518L196.983 341.396L196.486 341.389L203.42 339.745L202.688 340.675C202.749 336.092 202.832 331.509 202.978 326.926C203.065 324.634 203.129 322.343 203.259 320.051C203.379 317.76 203.473 315.468 203.646 313.177C203.818 315.468 203.913 317.76 204.032 320.051C204.162 322.343 204.227 324.634 204.314 326.926C204.459 331.509 204.543 336.092 204.603 340.675C204.606 340.887 204.537 341.094 204.407 341.262C204.278 341.43 204.095 341.55 203.889 341.601L203.871 341.605L196.955 343.322C196.791 343.362 196.62 343.359 196.457 343.315L189.513 341.385C189.309 341.328 189.129 341.206 189 341.037C188.872 340.869 188.802 340.663 188.801 340.451C188.801 337.982 188.865 335.513 188.896 333.043C188.923 330.574 189.014 328.105 189.071 325.635C189.16 323.166 189.221 320.697 189.357 318.227C189.488 315.758 189.583 313.289 189.768 310.819Z" fill="black"/>
<path d="M196.707 313.062C197.198 317.943 197.312 322.826 197.334 327.708C197.319 332.59 197.209 337.473 196.72 342.355C196.227 337.473 196.113 332.591 196.094 327.708C196.112 322.826 196.221 317.944 196.707 313.062Z" fill="black"/>
<path d="M126.225 277.84C126.421 280.309 126.516 282.779 126.656 285.248C126.783 287.717 126.869 290.187 126.944 292.656C127.088 297.595 127.186 302.533 127.201 307.472L126.483 306.531C128.804 307.151 131.126 307.769 133.437 308.427L132.945 308.42C135.257 307.876 137.565 307.311 139.885 306.802L139.183 307.695C139.223 305.714 139.234 303.733 139.297 301.752C139.359 299.77 139.392 297.789 139.478 295.808C139.548 293.827 139.63 291.846 139.746 289.864C139.852 287.883 139.946 285.902 140.102 283.921C140.259 285.902 140.352 287.883 140.458 289.864C140.574 291.846 140.657 293.827 140.727 295.808C140.813 297.789 140.846 299.77 140.907 301.752C140.971 303.733 140.982 305.714 141.022 307.695C141.026 307.896 140.963 308.092 140.842 308.252C140.722 308.412 140.551 308.527 140.357 308.579L140.319 308.589C138.023 309.199 135.713 309.755 133.409 310.332C133.254 310.371 133.092 310.371 132.937 310.331L132.917 310.325C130.593 309.713 128.281 309.062 125.967 308.413L125.959 308.411C125.754 308.353 125.574 308.23 125.446 308.061C125.318 307.891 125.249 307.684 125.249 307.472C125.264 302.533 125.363 297.595 125.506 292.656C125.581 290.187 125.667 287.717 125.794 285.248C125.933 282.779 126.029 280.309 126.225 277.84Z" fill="black"/>
<path d="M133.164 280.082C133.654 284.964 133.768 289.846 133.79 294.729C133.775 299.611 133.665 304.493 133.177 309.376C132.683 304.494 132.57 299.611 132.55 294.729C132.568 289.847 132.678 284.965 133.164 280.082Z" fill="black"/>
<path d="M291.544 300.244C291.711 302.44 291.805 304.635 291.92 306.83C292.046 309.025 292.116 311.22 292.198 313.416C292.344 317.806 292.431 322.197 292.489 326.587L291.968 325.742L298.244 328.843L297.538 328.772C299.989 328.075 302.457 327.442 304.916 326.774L304.203 327.708C304.204 325.286 304.263 322.863 304.297 320.441C304.324 318.018 304.414 315.596 304.471 313.173C304.558 310.751 304.623 308.328 304.758 305.906C304.89 303.483 304.985 301.061 305.172 298.638C305.358 301.061 305.453 303.483 305.585 305.906C305.72 308.328 305.785 310.751 305.872 313.173C305.93 315.596 306.02 318.018 306.046 320.441C306.08 322.863 306.14 325.286 306.14 327.708C306.14 327.92 306.07 328.127 305.941 328.295C305.812 328.464 305.632 328.586 305.428 328.643C302.972 329.321 300.525 330.034 298.061 330.683L298.045 330.687C297.814 330.748 297.568 330.722 297.355 330.613L291.12 327.432L291.103 327.424C290.95 327.345 290.821 327.225 290.732 327.077C290.643 326.929 290.597 326.76 290.599 326.587C290.657 322.197 290.744 317.806 290.89 313.416C290.972 311.22 291.042 309.025 291.168 306.83C291.283 304.635 291.377 302.44 291.544 300.244Z" fill="black"/>
<path d="M298.357 299.436C298.752 304.493 298.771 309.544 298.698 314.593C298.588 319.641 298.383 324.688 297.799 329.728C297.401 324.67 297.382 319.619 297.458 314.57C297.571 309.522 297.776 304.475 298.357 299.436Z" fill="black"/>
<path d="M372.181 249.092C371.19 249.035 370.217 248.804 369.305 248.409C366.579 247.306 364.143 245.59 362.187 243.394C363.096 243.743 363.98 244.155 364.831 244.628C365.683 245.072 366.499 245.564 367.321 246.043C368.128 246.546 368.943 247.029 369.741 247.548C370.55 248.053 371.335 248.583 372.181 249.092Z" fill="black"/>
<path d="M167.75 131.651C168.559 132.98 169.526 134.205 170.63 135.302C169.512 135.34 168.402 135.099 167.4 134.601C166.677 134.228 166.066 133.669 165.63 132.981C165.206 132.284 164.971 131.488 164.95 130.671C164.93 129.555 165.191 128.451 165.71 127.461C166.215 128.937 166.9 130.344 167.75 131.651Z" fill="black"/>
<path d="M171.4 132.091C171.42 133.209 171.155 134.314 170.63 135.301C170.126 133.826 169.44 132.419 168.59 131.111C167.778 129.785 166.811 128.559 165.71 127.461C166.826 127.421 167.934 127.666 168.93 128.171C169.654 128.543 170.268 129.098 170.71 129.781C171.144 130.475 171.382 131.273 171.4 132.091Z" fill="black"/>
<path d="M165.079 141.191C165.889 142.522 166.86 143.748 167.97 144.842C166.851 144.881 165.741 144.641 164.739 144.141C164.013 143.769 163.399 143.21 162.959 142.522C162.535 141.824 162.301 141.028 162.279 140.211C162.259 139.095 162.52 137.991 163.039 137.001C163.548 138.475 164.233 139.882 165.079 141.191Z" fill="black"/>
<path d="M168.73 141.631C168.749 142.748 168.488 143.852 167.97 144.842C167.457 143.37 166.772 141.963 165.93 140.651C165.115 139.325 164.145 138.099 163.04 137.002C164.156 136.96 165.265 137.205 166.26 137.712C166.991 138.077 167.607 138.635 168.043 139.326C168.478 140.017 168.716 140.815 168.73 141.631L168.73 141.631Z" fill="black"/>
<path d="M162.07 151.691C162.882 153.021 163.852 154.246 164.96 155.342C163.84 155.384 162.728 155.139 161.73 154.631C161.002 154.265 160.387 153.709 159.95 153.022C159.525 152.324 159.291 151.528 159.27 150.711C159.248 149.594 159.51 148.49 160.03 147.501C160.539 148.975 161.224 150.382 162.07 151.691Z" fill="black"/>
<path d="M165.719 152.121C165.74 153.242 165.479 154.349 164.959 155.342C164.447 153.867 163.759 152.461 162.909 151.151C162.098 149.825 161.131 148.6 160.029 147.502C161.146 147.46 162.254 147.705 163.249 148.212C163.973 148.583 164.587 149.139 165.029 149.822C165.461 150.512 165.7 151.307 165.719 152.121Z" fill="black"/>
<path d="M160.6 162.871C161.412 164.203 162.383 165.432 163.49 166.532C162.37 166.574 161.258 166.329 160.26 165.822C159.534 165.451 158.922 164.891 158.489 164.201C158.056 163.511 157.818 162.716 157.8 161.901C157.783 160.785 158.044 159.682 158.56 158.691C159.073 160.16 159.757 161.563 160.6 162.871Z" fill="black"/>
<path d="M164.249 163.311C164.275 164.432 164.014 165.541 163.49 166.532C162.434 163.592 160.752 160.916 158.56 158.691C159.676 158.65 160.784 158.895 161.78 159.401C162.507 159.768 163.123 160.324 163.56 161.012C163.997 161.7 164.236 162.496 164.249 163.311Z" fill="black"/>
<path d="M160.161 169.705C161.278 169.667 162.386 169.91 163.383 170.413C164.109 170.784 164.724 171.341 165.164 172.028C165.596 172.719 165.834 173.513 165.853 174.328C165.874 175.447 165.611 176.554 165.088 177.543C163.969 177.586 162.858 177.343 161.859 176.839C161.132 176.468 160.52 175.909 160.085 175.22C159.657 174.526 159.422 173.73 159.402 172.915C159.382 171.798 159.643 170.694 160.161 169.705Z" fill="black"/>
<path d="M174.44 134.591C173.102 135.223 171.812 135.951 170.58 136.771C170.751 135.709 171.143 134.694 171.73 133.791C172.134 133.181 172.689 132.685 173.34 132.351C173.973 132.041 174.678 131.91 175.38 131.971C176.413 132.074 177.428 132.31 178.4 132.671L174.44 134.591Z" fill="black"/>
<path d="M177.84 135.992C177.42 136.733 176.788 137.333 176.026 137.714C175.264 138.095 174.405 138.24 173.56 138.131C172.456 137.977 171.42 137.505 170.58 136.772C171.334 136.704 172.079 136.553 172.8 136.322C173.515 136.093 174.213 135.816 174.89 135.491C175.568 135.157 176.214 134.762 176.82 134.311C177.442 133.865 177.977 133.309 178.4 132.671C178.639 133.809 178.439 134.995 177.84 135.992Z" fill="black"/>
<path d="M172.88 143.592C171.23 144.191 169.55 144.721 167.86 145.431C168.345 144.358 169.031 143.387 169.88 142.572C170.502 141.986 171.237 141.533 172.04 141.241C172.802 140.966 173.613 140.857 174.42 140.921C175.534 141.033 176.637 141.23 177.72 141.511C176.173 142.349 174.553 143.045 172.88 143.592Z" fill="black"/>
<path d="M176.589 145.112C175.935 145.909 175.078 146.517 174.109 146.87C173.14 147.224 172.094 147.311 171.079 147.122C169.861 146.893 168.74 146.304 167.859 145.432C168.771 145.467 169.684 145.397 170.579 145.222C171.474 145.066 172.354 144.835 173.209 144.532C174.076 144.234 174.908 143.842 175.689 143.362C176.487 142.893 177.179 142.263 177.72 141.512C177.79 142.157 177.725 142.81 177.531 143.43C177.336 144.049 177.016 144.622 176.589 145.112Z" fill="black"/>
<path d="M170.999 151.372C169.35 151.972 167.669 152.502 165.979 153.212C166.464 152.135 167.153 151.164 168.009 150.352C168.626 149.764 169.359 149.311 170.16 149.022C170.921 148.746 171.732 148.637 172.54 148.702C173.653 148.813 174.756 149.011 175.84 149.292C174.292 150.129 172.672 150.825 170.999 151.372Z" fill="black"/>
<path d="M174.709 152.891C174.055 153.689 173.199 154.296 172.229 154.65C171.26 155.003 170.214 155.09 169.2 154.901C167.982 154.672 166.86 154.084 165.979 153.211C166.891 153.247 167.804 153.177 168.7 153.001C169.594 152.846 170.474 152.615 171.33 152.311C172.197 152.014 173.029 151.621 173.81 151.141C174.608 150.673 175.299 150.043 175.84 149.292C175.91 149.937 175.845 150.59 175.651 151.21C175.457 151.829 175.136 152.402 174.709 152.891Z" fill="black"/>
<path d="M169.42 160.902C167.75 161.662 166 162.282 164.25 163.062C164.739 161.959 165.428 160.955 166.28 160.102C166.895 159.481 167.616 158.976 168.41 158.612C169.14 158.289 169.923 158.106 170.72 158.072C171.58 157.992 172.46 158.162 174.01 157.952C173.393 158.64 172.667 159.221 171.86 159.672C171.075 160.135 170.26 160.546 169.42 160.902Z" fill="black"/>
<path d="M174.3 159.042C174.312 159.396 174.288 159.751 174.23 160.102C174.089 160.748 173.828 161.362 173.46 161.912C172.815 162.878 171.905 163.638 170.84 164.102C169.851 164.539 168.765 164.708 167.69 164.592C166.414 164.444 165.214 163.91 164.25 163.062C165.211 163.061 166.168 162.944 167.1 162.712C168.037 162.499 168.951 162.198 169.83 161.812C170.727 161.429 171.566 160.92 172.32 160.302C173.107 159.706 173.696 158.887 174.01 157.952C174.085 158.127 174.149 158.308 174.2 158.492C174.244 158.673 174.277 158.857 174.3 159.042Z" fill="black"/>
<path d="M164.21 174.452C164.264 173.351 164.505 172.268 164.923 171.248C165.196 170.575 165.607 169.967 166.128 169.462C166.597 169.034 167.162 168.725 167.775 168.56C168.743 168.379 169.679 168.056 170.553 167.602C170.698 167.709 170.836 167.826 170.967 167.952C171.084 168.084 171.193 168.224 171.294 168.369C171.463 168.66 171.596 168.971 171.688 169.294C171.836 169.901 171.848 170.532 171.723 171.144C171.523 172.197 170.985 173.156 170.191 173.876C169.475 174.538 168.576 174.966 167.611 175.105C166.437 175.266 165.241 175.037 164.21 174.452Z" fill="black"/>
<path d="M173.88 125.502C173.298 127.101 172.902 128.762 172.7 130.452C171.974 129.533 171.492 128.446 171.3 127.292C171.159 126.417 171.231 125.522 171.51 124.682C171.8 123.843 172.295 123.09 172.95 122.492C173.816 121.706 174.864 121.149 176 120.872C175.12 122.33 174.409 123.883 173.88 125.502Z" fill="black"/>
<path d="M177.19 126.642C176.894 127.477 176.396 128.226 175.74 128.822C174.88 129.613 173.835 130.173 172.7 130.452C173.572 128.99 174.283 127.437 174.82 125.822C175.401 124.222 175.797 122.561 176 120.872C176.728 121.79 177.213 122.877 177.41 124.032C177.553 124.907 177.477 125.803 177.19 126.642Z" fill="black"/>
<path d="M160.161 169.704C161.267 170.801 162.236 172.028 163.047 173.358C163.895 174.664 164.581 176.07 165.087 177.543C163.98 176.447 163.011 175.22 162.201 173.889C161.355 172.582 160.67 171.176 160.161 169.704Z" fill="white"/>
<path d="M164.21 174.452C165.428 173.33 166.68 172.367 167.822 171.302C168.4 170.792 168.935 170.236 169.423 169.638C169.93 169.04 170.314 168.348 170.553 167.602C170.693 168.454 170.524 169.327 170.076 170.066C169.665 170.807 169.132 171.474 168.498 172.037C167.884 172.596 167.211 173.085 166.489 173.495C165.776 173.916 165.01 174.238 164.21 174.452Z" fill="white"/>
<path d="M158.92 181.872C159.08 182.182 159.23 182.502 159.38 182.811C159.55 183.172 159.72 183.522 159.89 183.882C160.19 184.512 160.49 185.132 160.78 185.762C161.04 185.072 161.31 184.392 161.57 183.712C161.73 183.322 161.89 182.922 162.05 182.532C162.11 182.362 162.18 182.202 162.25 182.032C161.14 182.002 160.03 181.952 158.92 181.872ZM163.23 183.542L162.97 182.912C162.88 183.142 162.79 183.372 162.7 183.602C162.31 184.592 161.92 185.582 161.51 186.562C162.49 186.522 163.47 186.492 164.45 186.482L163.23 183.542ZM166.4 182.061C165.92 182.061 165.44 182.072 164.95 182.081C164.53 182.072 164.11 182.072 163.68 182.061L163.79 182.342L164.2 183.452L165.09 185.822L166.05 183.272L166.5 182.062L166.4 182.061ZM167.25 183.152L167.04 182.561L166.82 183.192L165.69 186.492C166.62 186.502 167.55 186.522 168.49 186.561L167.25 183.152ZM167.54 182.042L167.89 183.092L168.94 186.262L170.41 182.851L170.82 181.891C169.73 181.962 168.63 182.012 167.54 182.042H167.54ZM171.43 182.752L171.12 181.992L170.8 182.812L169.33 186.602C170.59 186.672 171.86 186.782 173.13 186.962L171.43 182.752ZM158.92 181.872C159.08 182.182 159.23 182.502 159.38 182.812C159.55 183.172 159.72 183.522 159.89 183.882C160.19 184.512 160.49 185.132 160.78 185.762C161.04 185.072 161.31 184.392 161.57 183.712C161.73 183.322 161.89 182.922 162.05 182.532C162.11 182.362 162.18 182.202 162.25 182.032C161.14 182.002 160.03 181.952 158.92 181.872L158.92 181.872ZM163.23 183.542L162.97 182.912C162.88 183.142 162.79 183.372 162.7 183.602C162.31 184.592 161.92 185.582 161.51 186.562C162.49 186.522 163.47 186.492 164.45 186.482L163.23 183.542ZM166.4 182.062C165.92 182.062 165.44 182.072 164.95 182.082C164.53 182.072 164.11 182.072 163.68 182.062L163.79 182.342L164.2 183.452L165.09 185.822L166.05 183.272L166.5 182.062L166.4 182.062ZM167.25 183.152L167.04 182.562L166.82 183.192L165.69 186.492C166.62 186.502 167.55 186.522 168.49 186.561L167.25 183.152ZM167.54 182.042L167.89 183.092L168.94 186.262L170.41 182.852L170.82 181.892C169.73 181.962 168.63 182.012 167.54 182.042L167.54 182.042ZM171.43 182.752L171.12 181.992L170.8 182.812L169.33 186.602C170.59 186.672 171.86 186.782 173.13 186.962L171.43 182.752ZM158.39 182.312C158.28 182.522 158.16 182.742 158.05 182.952L158.62 182.892C158.54 182.702 158.47 182.502 158.39 182.311L158.39 182.312ZM158.92 181.872C159.08 182.182 159.23 182.502 159.38 182.812C159.55 183.172 159.72 183.522 159.89 183.882C160.45 183.822 161.01 183.762 161.57 183.712C161.73 183.322 161.89 182.922 162.05 182.532C162.11 182.362 162.18 182.202 162.25 182.032C161.14 182.002 160.03 181.952 158.92 181.872L158.92 181.872ZM162.97 182.912C162.88 183.142 162.79 183.372 162.7 183.602C162.87 183.582 163.05 183.562 163.23 183.542L162.97 182.912ZM164.95 182.082C164.53 182.072 164.11 182.072 163.68 182.062L163.79 182.342C164.66 182.252 165.53 182.152 166.4 182.062C165.92 182.061 165.44 182.072 164.95 182.081L164.95 182.082ZM153.54 167.342L155.76 181.582C156.6 181.472 157.44 181.392 158.27 181.322C158.308 181.294 158.353 181.276 158.4 181.269C158.447 181.262 158.495 181.266 158.54 181.282L158.56 181.302C159.98 181.202 161.39 181.132 162.8 181.102C162.905 181.072 163.015 181.072 163.12 181.102C163.73 181.092 164.34 181.082 164.95 181.082C167.47 181.092 169.98 181.152 172.49 181.392C173.04 181.452 173.6 181.512 174.15 181.582L174.21 181.202L176.36 167.342L153.54 167.342ZM157.07 180.752C156.682 180.738 156.314 180.573 156.044 180.294C155.775 180.014 155.624 179.64 155.624 179.252C155.624 178.863 155.775 178.49 156.044 178.21C156.314 177.93 156.682 177.766 157.07 177.752C157.458 177.766 157.826 177.93 158.095 178.21C158.365 178.49 158.516 178.863 158.516 179.252C158.516 179.64 158.365 180.014 158.096 180.293C157.826 180.573 157.458 180.737 157.07 180.752L157.07 180.752ZM162.47 180.752C162.082 180.738 161.714 180.573 161.444 180.294C161.175 180.014 161.024 179.64 161.024 179.252C161.024 178.863 161.175 178.49 161.444 178.21C161.714 177.93 162.082 177.766 162.47 177.752C162.859 177.766 163.227 177.93 163.496 178.21C163.766 178.489 163.917 178.863 163.917 179.252C163.917 179.64 163.766 180.014 163.497 180.294C163.227 180.574 162.859 180.738 162.47 180.752L162.47 180.752ZM167.69 180.572C167.302 180.558 166.934 180.393 166.664 180.114C166.394 179.834 166.244 179.46 166.244 179.072C166.244 178.683 166.394 178.31 166.664 178.03C166.934 177.75 167.302 177.586 167.69 177.572C168.078 177.586 168.446 177.75 168.715 178.03C168.985 178.31 169.136 178.683 169.136 179.072C169.136 179.46 168.985 179.834 168.715 180.113C168.446 180.393 168.078 180.557 167.69 180.572L167.69 180.572ZM172.82 180.752C172.432 180.738 172.064 180.573 171.794 180.294C171.525 180.014 171.374 179.64 171.374 179.252C171.374 178.863 171.525 178.49 171.794 178.21C172.064 177.93 172.432 177.766 172.82 177.752C173.208 177.766 173.576 177.93 173.845 178.21C174.115 178.49 174.266 178.863 174.266 179.252C174.266 179.64 174.115 180.014 173.846 180.293C173.576 180.573 173.208 180.737 172.82 180.752L172.82 180.752ZM171.43 182.752L171.12 181.992L170.8 182.812L169.33 186.602C170.59 186.672 171.86 186.782 173.13 186.962L171.43 182.752ZM167.54 182.042L167.89 183.092L168.94 186.262L170.41 182.851L170.82 181.891C169.73 181.962 168.63 182.012 167.54 182.042H167.54ZM167.25 183.152L167.04 182.561L166.82 183.192L165.69 186.492C166.62 186.502 167.55 186.522 168.49 186.561L167.25 183.152ZM166.4 182.061C165.92 182.061 165.44 182.072 164.95 182.081C164.53 182.072 164.11 182.072 163.68 182.061L163.79 182.342L164.2 183.452L165.09 185.822L166.05 183.272L166.5 182.062L166.4 182.061ZM163.23 183.542L162.97 182.912C162.88 183.142 162.79 183.372 162.7 183.602C162.31 184.592 161.92 185.582 161.51 186.562C162.49 186.522 163.47 186.492 164.45 186.482L163.23 183.542ZM158.92 181.872C159.08 182.182 159.23 182.502 159.38 182.811C159.55 183.172 159.72 183.522 159.89 183.882C160.19 184.512 160.49 185.132 160.78 185.762C161.04 185.072 161.31 184.392 161.57 183.712C161.73 183.322 161.89 182.922 162.05 182.532C162.11 182.362 162.18 182.202 162.25 182.032C161.14 182.002 160.03 181.952 158.92 181.872H158.92ZM171.43 182.752L171.12 181.992L170.8 182.811L169.33 186.601C170.59 186.672 171.86 186.782 173.13 186.962L171.43 182.752ZM167.54 182.042L167.89 183.092L168.94 186.262L170.41 182.851L170.82 181.891C169.73 181.962 168.63 182.012 167.54 182.042L167.54 182.042ZM167.25 183.152L167.04 182.561L166.82 183.192L165.69 186.492C166.62 186.502 167.55 186.522 168.49 186.561L167.25 183.152ZM166.4 182.061C165.92 182.061 165.44 182.072 164.95 182.081C164.53 182.072 164.11 182.072 163.68 182.061L163.79 182.342L164.2 183.452L165.09 185.822L166.05 183.272L166.5 182.061L166.4 182.061ZM163.23 183.542L162.97 182.912C162.88 183.142 162.79 183.372 162.7 183.601C162.31 184.592 161.92 185.581 161.51 186.561C162.49 186.522 163.47 186.492 164.45 186.482L163.23 183.542ZM158.92 181.872C159.08 182.182 159.23 182.502 159.38 182.811C159.55 183.172 159.72 183.522 159.89 183.882C160.19 184.512 160.49 185.132 160.78 185.762C161.04 185.072 161.31 184.392 161.57 183.712C161.73 183.322 161.89 182.922 162.05 182.532C162.11 182.362 162.18 182.202 162.25 182.032C161.14 182.002 160.03 181.952 158.92 181.872L158.92 181.872ZM166.4 182.061C165.53 182.152 164.66 182.252 163.79 182.342L164.2 183.452C164.81 183.392 165.43 183.331 166.05 183.272L166.5 182.061H166.4ZM167.04 182.561L166.82 183.192C166.96 183.182 167.11 183.172 167.25 183.152L167.04 182.561ZM167.54 182.042L167.89 183.092L170.41 182.851L170.82 181.891C169.73 181.962 168.63 182.012 167.54 182.042L167.54 182.042ZM171.12 181.992L170.8 182.811C171.01 182.792 171.22 182.772 171.43 182.752L171.12 181.992ZM171.38 181.852L171.7 182.732L173.23 186.962V186.972C173.257 186.97 173.284 186.973 173.31 186.982L174.01 182.512L174.15 181.581C173.22 181.702 172.3 181.782 171.38 181.852L171.38 181.852ZM173.22 186.992C173.22 187.002 173.22 187.022 173.2 187.022C173.19 187.026 173.178 187.027 173.167 187.023C173.156 187.019 173.146 187.012 173.14 187.002C170.423 187.336 167.688 187.496 164.95 187.482C163.66 187.472 162.37 187.442 161.08 187.382C161.016 187.429 160.941 187.458 160.862 187.467C160.783 187.476 160.703 187.464 160.63 187.432C160.588 187.408 160.548 187.382 160.51 187.351C159.21 187.272 157.9 187.162 156.6 186.982L157.27 191.282H172.64L173.31 186.982C173.28 186.98 173.25 186.983 173.22 186.992L173.22 186.992ZM160.48 190.902C160.091 190.889 159.722 190.725 159.451 190.445C159.18 190.165 159.029 189.791 159.029 189.402C159.029 189.012 159.18 188.638 159.451 188.358C159.722 188.078 160.091 187.914 160.48 187.902C160.869 187.914 161.238 188.078 161.509 188.358C161.78 188.638 161.931 189.012 161.931 189.402C161.931 189.791 161.78 190.165 161.509 190.445C161.238 190.725 160.869 190.889 160.48 190.902ZM165.52 190.902C165.131 190.889 164.762 190.725 164.491 190.445C164.22 190.165 164.069 189.791 164.069 189.402C164.069 189.012 164.22 188.638 164.491 188.358C164.762 188.078 165.131 187.914 165.52 187.902C165.909 187.914 166.278 188.078 166.549 188.358C166.82 188.638 166.971 189.012 166.971 189.402C166.971 189.791 166.82 190.165 166.549 190.445C166.278 190.725 165.909 190.889 165.52 190.902ZM170.56 190.722C170.171 190.709 169.802 190.545 169.531 190.265C169.26 189.985 169.109 189.611 169.109 189.222C169.109 188.832 169.26 188.458 169.531 188.178C169.802 187.898 170.171 187.735 170.56 187.722C170.949 187.734 171.318 187.898 171.589 188.178C171.86 188.458 172.011 188.832 172.011 189.222C172.011 189.611 171.86 189.985 171.589 190.265C171.318 190.545 170.949 190.709 170.56 190.722H170.56ZM171.43 182.752L171.12 181.992L170.8 182.811L169.33 186.601C170.59 186.672 171.86 186.782 173.13 186.962L171.43 182.752ZM167.54 182.042L167.89 183.092L168.94 186.262L170.41 182.851L170.82 181.891C169.73 181.962 168.63 182.012 167.54 182.042L167.54 182.042ZM167.25 183.152L167.04 182.561L166.82 183.192L165.69 186.492C166.62 186.502 167.55 186.522 168.49 186.561L167.25 183.152ZM166.4 182.061C165.92 182.061 165.44 182.072 164.95 182.081C164.53 182.072 164.11 182.072 163.68 182.061L163.79 182.342L164.2 183.452L165.09 185.822L166.05 183.272L166.5 182.061L166.4 182.061ZM163.23 183.542L162.97 182.912C162.88 183.142 162.79 183.371 162.7 183.601C162.31 184.592 161.92 185.581 161.51 186.561C162.49 186.522 163.47 186.492 164.45 186.482L163.23 183.542ZM158.92 181.871C159.08 182.182 159.23 182.502 159.38 182.811C159.55 183.172 159.72 183.522 159.89 183.881C160.19 184.512 160.49 185.131 160.78 185.762C161.04 185.072 161.31 184.391 161.57 183.712C161.73 183.322 161.89 182.922 162.05 182.532C162.11 182.362 162.18 182.202 162.25 182.032C161.14 182.002 160.03 181.952 158.92 181.872L158.92 181.871ZM159.05 183.962C158.91 183.612 158.76 183.252 158.62 182.891C158.54 182.702 158.47 182.502 158.39 182.311C158.28 182.522 158.16 182.742 158.05 182.952C157.85 183.342 157.64 183.732 157.43 184.121C157.12 184.712 156.8 185.302 156.47 185.891C156.466 185.895 156.462 185.898 156.456 185.9C156.451 185.902 156.446 185.902 156.44 185.901L156.6 186.982C157.78 186.811 158.97 186.712 160.15 186.631C159.79 185.742 159.42 184.852 159.05 183.962L159.05 183.962ZM159.89 183.881C160.19 184.512 160.49 185.131 160.78 185.762C161.04 185.072 161.31 184.391 161.57 183.712C161.01 183.762 160.45 183.822 159.89 183.882L159.89 183.881ZM163.23 183.542C163.05 183.561 162.87 183.581 162.7 183.601C162.31 184.592 161.92 185.581 161.51 186.561C162.49 186.522 163.47 186.492 164.45 186.482L163.23 183.542ZM164.2 183.452L165.09 185.822L166.05 183.272C165.43 183.331 164.81 183.392 164.2 183.452L164.2 183.452ZM167.25 183.152C167.11 183.172 166.96 183.182 166.82 183.192L165.69 186.492C166.62 186.502 167.55 186.522 168.49 186.561L167.25 183.152ZM167.89 183.092L168.94 186.262L170.41 182.852L167.89 183.092ZM171.43 182.752C171.22 182.772 171.01 182.792 170.8 182.811L169.33 186.601C170.59 186.672 171.86 186.782 173.13 186.962L171.43 182.752ZM155.76 181.581L156.01 183.172L156.17 184.252L156.41 185.762C156.62 185.222 156.83 184.692 157.04 184.162C157.19 183.772 157.35 183.392 157.51 183.012C157.67 182.612 157.83 182.212 158 181.811C157.25 181.752 156.51 181.672 155.76 181.581Z" fill="black"/>
<path d="M166.338 179.307C165.503 178.557 164.885 177.596 164.548 176.525C164.391 175.991 164.187 175.463 164.067 174.917L163.728 173.271C163.452 171.056 163.368 168.82 163.476 166.59C163.516 164.356 163.85 162.155 164.109 159.945C164.514 157.762 164.826 155.555 165.355 153.401C165.852 151.239 166.349 149.076 166.978 146.951C167.583 144.818 168.164 142.68 168.91 140.594C169.631 138.5 170.278 136.383 171.08 134.32C171.892 132.26 172.662 130.187 173.508 128.144C172.331 132.413 170.969 136.61 169.824 140.87L168.933 144.053L168.113 147.253C167.848 148.321 167.528 149.376 167.29 150.45L166.567 153.668C166.017 155.801 165.707 157.976 165.266 160.129C164.942 162.296 164.6 164.466 164.425 166.648C164.21 168.825 164.177 171.017 164.329 173.2L164.523 174.824C164.595 175.365 164.749 175.888 164.859 176.425C165.109 177.492 165.616 178.482 166.338 179.307Z" fill="black"/>
<path d="M156.43 185.872L156.41 185.762L156.38 185.852C156.37 185.872 156.38 185.892 156.4 185.912C156.42 185.922 156.43 185.912 156.44 185.902L156.43 185.872Z" fill="#FCFCFC"/>
<path d="M191.817 187.798C195.097 186.895 198.424 186.175 201.783 185.64C205.135 185.06 208.516 184.669 211.912 184.468C208.633 185.373 205.306 186.093 201.947 186.626C198.594 187.203 195.213 187.595 191.817 187.798Z" fill="black"/>
<path d="M231.509 187.36C234.788 186.457 238.115 185.737 241.474 185.202C244.826 184.622 248.208 184.231 251.603 184.03C248.324 184.935 244.997 185.655 241.638 186.188C238.286 186.765 234.904 187.156 231.509 187.36Z" fill="black"/>
<path d="M272.209 180.306C275.488 179.403 278.815 178.683 282.175 178.148C285.526 177.568 288.908 177.177 292.303 176.976C289.025 177.881 285.697 178.602 282.338 179.134C278.986 179.711 275.604 180.103 272.209 180.306Z" fill="black"/>
<path d="M442.173 243.496C440.085 242.08 438.246 240.327 436.73 238.31C435.175 236.332 433.774 234.238 432.538 232.046C431.295 229.862 430.172 227.614 429.136 225.329C428.1 223.038 427.133 220.737 426.27 218.348L427.22 218.942C422.208 219.591 417.114 219.15 412.287 217.65C409.89 216.947 407.546 216.073 405.273 215.035C403 214.025 400.787 212.885 398.645 211.621C394.375 209.11 390.315 206.257 386.505 203.091C382.696 199.943 379.093 196.553 375.72 192.943L375.703 192.925C375.584 192.796 375.519 192.626 375.521 192.45C375.522 192.274 375.591 192.105 375.713 191.979C377.17 190.472 378.677 189.073 380.24 187.711C381.795 186.345 383.436 185.079 385.111 183.861C386.787 182.629 388.57 181.552 390.44 180.642C392.311 179.646 394.378 179.075 396.495 178.972C396.536 178.972 396.577 178.979 396.616 178.992C398.603 179.679 400.606 180.317 402.599 180.982L408.587 182.956C412.574 184.291 416.586 185.547 420.591 186.826L419.82 187.244L425.072 165.256C426.844 157.931 428.648 150.615 430.484 143.308L430.46 143.423C430.589 142.796 430.786 142.184 431.048 141.6C431.277 141.054 431.548 140.545 431.817 140.034C432.38 139.049 433.01 138.104 433.703 137.206C435.065 135.442 436.582 133.805 438.236 132.314C441.502 129.375 445.053 126.77 448.837 124.538C450.729 123.401 452.691 122.383 454.709 121.488C456.736 120.612 458.814 119.861 460.933 119.239C465.172 117.983 469.567 117.329 473.989 117.297C478.404 117.251 482.803 117.84 487.05 119.046C489.178 119.654 491.248 120.446 493.237 121.414C493.729 121.671 494.208 121.956 494.692 122.226L495.416 122.636L496.105 123.108C496.562 123.426 497.028 123.729 497.473 124.061L498.755 125.133C502.106 128.086 504.485 131.983 505.581 136.313C506.534 140.572 506.655 144.975 505.939 149.28C505.936 149.296 505.931 149.311 505.923 149.325C505.914 149.339 505.903 149.352 505.89 149.361C505.877 149.371 505.862 149.378 505.846 149.382C505.83 149.386 505.814 149.387 505.798 149.384C505.767 149.379 505.739 149.363 505.719 149.338C505.7 149.313 505.69 149.282 505.692 149.251C506.109 144.999 505.737 140.706 504.597 136.589C503.378 132.566 500.989 128.998 497.734 126.338L496.5 125.388C496.071 125.095 495.621 124.83 495.184 124.55L494.524 124.135L493.827 123.779C493.362 123.545 492.905 123.296 492.434 123.074C490.525 122.213 488.547 121.515 486.52 120.988C482.446 119.941 478.242 119.485 474.037 119.634C471.94 119.698 469.851 119.911 467.784 120.27C465.714 120.607 463.67 121.084 461.664 121.697C459.659 122.311 457.693 123.048 455.778 123.901C453.869 124.771 452.009 125.742 450.204 126.81C446.573 128.963 443.147 131.444 439.969 134.222C438.404 135.591 436.966 137.098 435.672 138.725C435.038 139.522 434.46 140.361 433.942 141.237C433.704 141.676 433.462 142.113 433.269 142.558C433.086 142.954 432.939 143.366 432.829 143.788L432.805 143.904C430.891 151.192 428.947 158.472 426.972 165.744L420.98 187.542L420.974 187.561C420.954 187.636 420.919 187.706 420.871 187.767C420.824 187.828 420.765 187.879 420.697 187.917C420.63 187.956 420.556 187.98 420.479 187.99C420.402 187.999 420.324 187.994 420.249 187.973L420.209 187.961C416.245 186.559 412.29 185.134 408.308 183.788L402.344 181.741C400.354 181.066 398.373 180.363 396.375 179.71L396.495 179.729C394.498 179.851 392.552 180.411 390.795 181.369C388.991 182.293 387.276 183.385 385.675 184.629C384.054 185.86 382.502 187.18 381.028 188.583C379.55 189.978 378.105 191.435 376.766 192.936L376.76 191.972C380.218 195.387 383.889 198.58 387.752 201.529C391.576 204.509 395.589 207.237 399.765 209.698C401.855 210.911 403.983 212.052 406.173 213.05C408.348 214.071 410.593 214.934 412.891 215.632C417.428 217.128 422.227 217.665 426.982 217.207L427.017 217.204C427.215 217.183 427.414 217.231 427.581 217.339C427.748 217.448 427.872 217.611 427.933 217.801C428.676 220.128 429.552 222.46 430.485 224.745C431.42 227.034 432.444 229.289 433.584 231.48C434.673 233.696 435.927 235.828 437.335 237.857C438.713 239.908 440.391 241.739 442.313 243.291C442.34 243.31 442.358 243.34 442.363 243.372C442.368 243.405 442.36 243.438 442.341 243.465C442.322 243.49 442.294 243.507 442.263 243.513C442.232 243.518 442.2 243.513 442.173 243.496Z" fill="black"/>
</svg>
