<svg width="375" height="493" viewBox="0 0 375 493" fill="none" xmlns="http://www.w3.org/2000/svg">
<path d="M353.885 165.501C331.997 225.255 366.11 288.062 222.182 299.12C95.0396 308.889 19.2729 256.409 3.83033 173.612C-18.3114 54.898 113.336 15.2077 205.096 36.9185C296.856 58.6293 383.254 85.3201 353.885 165.501Z" fill="#FFF4F4"/>
<path d="M43.6661 149.131C44.7035 149.143 45.7393 149.044 46.7557 148.836C47.7475 148.697 48.664 148.229 49.3585 147.507C49.6264 147.124 49.7702 146.668 49.7701 146.201C49.7701 145.734 49.6263 145.278 49.3582 144.896C48.7998 144.093 48.004 143.486 47.0826 143.16C45.1758 142.456 43.1314 142.208 41.1116 142.433C40.1041 142.526 39.1103 142.732 38.149 143.047C37.1978 143.375 36.2932 143.825 35.4578 144.386C34.5955 144.937 33.7803 145.574 32.9026 146.181C32.0162 146.848 30.9882 147.301 29.8983 147.507C28.7962 147.643 27.6777 147.486 26.6553 147.053C26.1552 146.863 25.6663 146.644 25.1912 146.398L23.8126 145.629C22.4819 144.837 20.998 144.337 19.4592 144.161C17.9204 143.986 16.362 144.14 14.8873 144.613C14.3934 144.767 13.908 144.946 13.4332 145.151L12.7181 145.465C12.4641 145.597 12.193 145.694 11.9127 145.752C11.8713 145.758 11.8292 145.747 11.7956 145.722C11.762 145.697 11.7396 145.66 11.7335 145.619L11.7332 145.617L11.7305 145.596C11.4327 143.394 11.3648 141.167 11.5276 138.951C11.6663 136.712 12.1564 134.509 12.9798 132.423C13.8261 130.291 15.2359 128.429 17.0584 127.037C18.9257 125.694 21.1105 124.86 23.3978 124.618C27.9439 124.087 32.53 125.2 36.3277 127.754C38.1865 129.066 39.7617 130.738 40.9591 132.672C41.5301 133.644 42.0198 134.66 42.4232 135.712C42.8558 136.758 43.1803 137.808 43.4996 138.86L43.235 138.626C44.1754 138.862 45.0942 139.176 45.9818 139.566C46.8737 139.942 47.7199 140.418 48.504 140.986C49.2979 141.549 49.9785 142.257 50.5101 143.073C51.0143 143.902 51.2902 144.85 51.3097 145.82C51.3098 145.826 51.3087 145.833 51.3062 145.839C51.3038 145.846 51.3001 145.852 51.2954 145.857C51.2907 145.861 51.2851 145.865 51.2788 145.868C51.2726 145.871 51.2659 145.872 51.2591 145.872C51.2456 145.872 51.2327 145.867 51.2229 145.857C51.2131 145.848 51.207 145.836 51.2059 145.822C51.1298 144.891 50.8089 143.996 50.2757 143.228C49.7213 142.484 49.0316 141.851 48.2425 141.362C47.4639 140.853 46.631 140.432 45.7591 140.107C44.8943 139.77 44.003 139.507 43.0943 139.319C43.0345 139.307 42.9788 139.28 42.9327 139.24C42.8866 139.2 42.8517 139.148 42.8314 139.091L42.8294 139.085C42.1749 137.016 41.2898 135.027 40.1905 133.157C39.0043 131.376 37.4923 129.836 35.7342 128.617C32.1278 126.247 27.8101 125.202 23.5191 125.662C21.4005 125.853 19.3682 126.592 17.6221 127.806C15.9031 129.074 14.5534 130.777 13.7122 132.74C12.8502 134.732 12.2995 136.844 12.0792 139.003C11.8299 141.175 11.8345 143.369 12.0928 145.54L11.911 145.385C12.2916 145.291 12.8306 145.014 13.2996 144.831C13.7871 144.628 14.285 144.451 14.7913 144.3C15.8068 143.995 16.8548 143.812 17.9134 143.753C20.0499 143.685 22.1667 144.181 24.0504 145.192L25.4418 145.892C25.9045 146.108 26.3791 146.297 26.8634 146.458C27.7901 146.812 28.7939 146.916 29.7735 146.758C31.6764 146.368 33.17 144.771 34.962 143.629C35.852 143.004 36.829 142.514 37.8617 142.174C38.8934 141.853 39.9581 141.65 41.0355 141.568C43.1919 141.358 45.3673 141.665 47.381 142.464C48.4247 142.886 49.3087 143.626 49.9068 144.58C50.0565 144.825 50.1642 145.094 50.2257 145.375C50.3061 145.65 50.3439 145.937 50.3377 146.224C50.3335 146.515 50.2894 146.805 50.2064 147.084C50.0965 147.356 49.9431 147.608 49.7523 147.831C48.9568 148.6 47.9186 149.068 46.8156 149.156C45.7706 149.312 44.7104 149.338 43.659 149.234C43.6453 149.233 43.6327 149.227 43.6238 149.216C43.615 149.205 43.6107 149.192 43.6119 149.178C43.6137 149.165 43.6202 149.153 43.6301 149.144C43.6401 149.136 43.6529 149.131 43.6661 149.131Z" fill="#F23F3F" fill-opacity="0.62"/>
<path d="M38.9307 137.107C37.6377 135.163 36.4617 133.211 35.1458 131.372C34.5039 130.455 33.7924 129.589 33.0176 128.781C32.274 127.935 31.3002 127.322 30.2148 127.019C30.818 126.985 31.4221 127.071 31.9916 127.272C32.5611 127.474 33.0846 127.787 33.5315 128.194C34.4567 128.943 35.2734 129.817 35.9583 130.79C37.3199 132.7 38.3267 134.84 38.9307 137.107Z" fill="#F23F3F" fill-opacity="0.62"/>
<path d="M26.106 126.148L24.6155 129.655C24.1395 130.821 23.6724 131.984 23.2584 133.164C22.8397 134.342 22.4871 135.536 22.1654 136.744C21.8726 137.971 21.65 139.214 21.4989 140.467C21.2623 139.191 21.2284 137.887 21.3983 136.601C21.5821 135.318 21.8894 134.055 22.316 132.831C23.1684 130.394 24.4521 128.13 26.106 126.148Z" fill="#F23F3F" fill-opacity="0.62"/>
<path d="M38.9304 139.097C37.4137 139.056 35.8962 139.145 34.3945 139.362C32.8945 139.553 31.3972 139.764 29.9031 140.018C26.9082 140.488 23.9307 141.083 20.876 141.463C22.3024 140.894 23.7609 140.409 25.2439 140.01C26.7241 139.605 28.2271 139.288 29.7432 139.031C31.2638 138.781 32.7995 138.633 34.3398 138.586C35.8878 138.498 37.4396 138.671 38.9304 139.097Z" fill="#F23F3F" fill-opacity="0.62"/>
<path d="M26.6042 125.556C26.8059 125.549 26.997 125.464 27.1372 125.319C27.2774 125.174 27.3558 124.98 27.3558 124.778C27.3558 124.576 27.2774 124.382 27.1372 124.237C26.997 124.092 26.8059 124.007 26.6042 124C26.4025 124.007 26.2114 124.092 26.0711 124.237C25.9309 124.382 25.8525 124.576 25.8525 124.778C25.8525 124.98 25.9309 125.174 26.0711 125.319C26.2114 125.464 26.4025 125.549 26.6042 125.556Z" fill="#F23F3F" fill-opacity="0.62"/>
<path d="M42.4167 143.331C42.9386 144.63 43.3817 145.96 43.7437 147.313C43.8321 147.661 43.8987 148.014 43.9429 148.371C43.9668 148.561 43.9743 148.753 43.9651 148.945L43.9426 149.455C43.9343 150.138 43.9695 150.82 44.0481 151.499C44.1116 152.215 44.1006 152.936 44.0154 153.651L43.8286 155.731C43.7012 157.111 43.5815 158.492 43.5159 159.869C43.4814 161.279 43.376 162.687 43.2 164.087C43.0733 164.831 42.8123 165.546 42.4294 166.197C42.0269 166.808 41.5481 167.365 41.0046 167.855C39.988 168.866 38.7979 169.687 37.4912 170.278C36.1849 170.815 34.7993 171.134 33.3896 171.222C36.1025 170.72 38.576 169.343 40.4306 167.3C40.8864 166.821 41.2933 166.297 41.6455 165.736C41.9494 165.172 42.148 164.558 42.2314 163.922C42.4231 162.618 42.4048 161.212 42.4802 159.813C42.5676 158.41 42.6923 157.016 42.8542 155.629C43.0662 154.276 43.2 152.912 43.2549 151.544C43.2219 150.835 43.234 150.124 43.2912 149.416L43.3508 148.885C43.3684 148.73 43.3725 148.573 43.363 148.417C43.3416 148.08 43.3032 147.745 43.2478 147.412C43.054 146.047 42.7168 144.692 42.4167 143.331Z" fill="#F23F3F" fill-opacity="0.62"/>
<path d="M31.4641 170.661C30.2568 170.619 29.0716 170.325 27.9841 169.799C26.8761 169.293 25.8571 168.611 24.9666 167.78C24.0764 166.951 23.3215 165.989 22.7292 164.926C22.1342 163.883 21.7118 162.75 21.4785 161.572C22.1257 162.58 22.7043 163.577 23.408 164.485C24.0814 165.399 24.8395 166.248 25.6721 167.02C26.4986 167.797 27.4008 168.49 28.3652 169.088C29.3476 169.706 30.385 170.233 31.4641 170.661Z" fill="#F23F3F" fill-opacity="0.62"/>
<path d="M23.7921 145.324C23.7921 145.324 21.3341 151.424 21.4786 153.354L20.3158 153.043C20.3158 153.043 20.5541 146.036 16.9435 146.87C16.371 147.019 15.8515 147.325 15.4435 147.753C15.0356 148.181 14.7554 148.715 14.6347 149.294C14.2794 150.536 14.2981 151.855 14.6884 153.087C15.0788 154.318 15.8235 155.407 16.8294 156.218L17.2652 159.268C17.2652 159.268 13.7166 161.503 11.9111 145.568C13.7043 144.512 15.739 143.935 17.8196 143.892C19.9003 143.849 21.957 144.342 23.7921 145.324Z" fill="#F23F3F" fill-opacity="0.62"/>
<path d="M19.3826 155.657C19.4082 155.97 19.3244 156.282 19.1455 156.539C18.965 156.815 18.7003 157.027 18.3906 157.141C18.2164 157.201 18.031 157.222 17.8477 157.202C17.6644 157.183 17.4878 157.122 17.3306 157.026C17.1896 156.94 17.0709 156.822 16.9839 156.682C16.897 156.541 16.8443 156.382 16.8301 156.218C17.0836 156.263 17.3404 156.288 17.5979 156.293C17.7576 156.285 17.915 156.252 18.0649 156.196C18.3862 156.095 18.7742 155.865 19.3826 155.657Z" fill="#F23F3F" fill-opacity="0.62"/>
<path d="M43.1021 148.809C42.0752 148.896 41.1819 148.881 40.2812 148.939C39.8315 148.948 39.3904 149 38.936 149.04C38.4758 149.075 38.0276 149.166 37.499 149.203C37.8415 148.814 38.2613 148.501 38.7316 148.284C39.2019 148.067 39.7123 147.95 40.2302 147.941C40.7412 147.918 41.2527 147.975 41.7456 148.112C42.2443 148.24 42.7079 148.478 43.1021 148.809Z" fill="#F23F3F" fill-opacity="0.62"/>
<path d="M33.3899 148.815C32.1531 148.937 31.0195 148.937 29.8879 149.015C29.323 149.043 28.7695 149.111 28.2058 149.174C27.6433 149.255 27.092 149.371 26.4717 149.494C26.8864 149.018 27.4108 148.65 27.9998 148.422C28.5841 148.196 29.1993 148.059 29.8245 148.017C30.4419 147.985 31.061 148.031 31.6667 148.155C32.2762 148.269 32.86 148.493 33.3899 148.815Z" fill="#F23F3F" fill-opacity="0.62"/>
<path d="M38.5332 154.724C38.9221 154.983 39.2176 155.36 39.3759 155.8C39.4767 156.047 39.5211 156.314 39.506 156.581C39.4908 156.848 39.4165 157.108 39.2883 157.343C39.143 157.568 38.9503 157.758 38.7236 157.9C38.497 158.043 38.2419 158.134 37.9763 158.167C37.5165 158.224 37.0498 158.153 36.6279 157.961C36.8181 157.85 37.0163 157.754 37.2209 157.674L37.7499 157.42C38.0223 157.287 38.2556 157.086 38.4272 156.836C38.6544 156.154 38.691 155.424 38.5332 154.724Z" fill="#F23F3F" fill-opacity="0.62"/>
<path d="M39.5535 152.389C39.7552 152.382 39.9464 152.297 40.0866 152.152C40.2269 152.007 40.3053 151.813 40.3053 151.611C40.3053 151.409 40.2269 151.215 40.0866 151.07C39.9464 150.925 39.7552 150.839 39.5535 150.833C39.3518 150.839 39.1606 150.925 39.0204 151.07C38.8801 151.215 38.8018 151.409 38.8018 151.611C38.8018 151.813 38.8801 152.007 39.0204 152.152C39.1606 152.297 39.3518 152.382 39.5535 152.389Z" fill="#F23F3F" fill-opacity="0.62"/>
<path d="M30.7126 152.451C30.9143 152.444 31.1054 152.359 31.2456 152.214C31.3858 152.069 31.4642 151.875 31.4642 151.673C31.4642 151.471 31.3858 151.277 31.2456 151.132C31.1054 150.987 30.9143 150.902 30.7126 150.895C30.5108 150.902 30.3197 150.987 30.1795 151.132C30.0393 151.277 29.9609 151.471 29.9609 151.673C29.9609 151.875 30.0393 152.069 30.1795 152.214C30.3197 152.359 30.5108 152.444 30.7126 152.451Z" fill="#F23F3F" fill-opacity="0.62"/>
<path d="M37.8394 160.327C37.603 160.781 37.2231 161.144 36.7588 161.36C36.3101 161.585 35.8232 161.724 35.3232 161.77C34.8329 161.812 34.3388 161.777 33.8594 161.666C33.378 161.558 32.9224 161.357 32.5186 161.074C32.981 160.977 33.45 160.915 33.9216 160.888C34.3684 160.835 34.804 160.831 35.2297 160.775C36.1127 160.715 36.9871 160.565 37.8394 160.327Z" fill="#F23F3F" fill-opacity="0.62"/>
<path d="M17.8642 174.123C18.8542 176.343 19.744 178.593 20.5942 180.863C21.9343 180.083 23.3042 179.363 24.654 178.623C26.1042 177.863 27.5541 177.103 29.0441 176.403C24.0241 178.023 18.1642 174.313 17.8642 174.123ZM92.8442 217.913C64.7341 152.183 55.4142 171.523 52.5642 167.083C52.862 167.668 53.013 168.317 53.0041 168.973C52.9903 169.791 52.7094 170.581 52.2043 171.223C51.061 172.361 49.6125 173.142 48.0341 173.473C47.2747 173.666 46.5029 173.807 45.7241 173.893L44.5842 174.033C44.2342 174.093 43.8542 174.173 43.4942 174.253C42.0218 174.589 40.5801 175.047 39.1843 175.623C37.8008 176.185 36.4911 176.914 35.2842 177.793L34.4143 178.493L33.6143 179.263L32.1541 181.023C31.5757 181.672 30.9248 182.253 30.2142 182.753C30.213 184.427 30.384 186.095 30.7242 187.733C31.0614 189.491 31.5843 191.207 32.2842 192.853C32.9641 194.503 33.9441 195.963 34.7242 197.693C35.4414 199.412 35.8932 201.229 36.0643 203.083C36.2178 204.921 36.2011 206.769 36.0143 208.603C35.7464 210.361 35.6127 212.136 35.6144 213.913C35.7807 215.696 36.16 217.452 36.7443 219.143C37.2743 220.863 37.9242 222.553 38.5343 224.263C36.9544 221.023 35.3042 217.703 34.8242 214.013C34.701 213.084 34.6976 212.143 34.8143 211.213L35.0343 208.513C35.1942 206.74 35.1942 204.956 35.0343 203.183C34.8856 201.43 34.4778 199.708 33.8242 198.073C33.1741 196.483 32.1443 194.893 31.5442 193.143C30.2915 189.843 29.8225 186.296 30.1742 182.783C29.6075 183.196 29.0012 183.551 28.3643 183.843C26.9317 184.484 25.3553 184.736 23.7942 184.573C25.3196 184.538 26.8131 184.129 28.1443 183.383C29.4622 182.67 30.6195 181.693 31.5442 180.513L32.2044 179.603L32.9442 178.653L33.7742 177.793L34.6844 177.013C35.9479 176.063 37.3252 175.273 38.7842 174.663C40.2407 174.074 41.7466 173.616 43.2842 173.293C43.6741 173.223 44.0443 173.153 44.4642 173.093L45.6143 172.993C46.3843 172.953 47.1143 172.813 47.8543 172.703C49.3215 172.485 50.6975 171.858 51.8243 170.893C52.3281 170.361 52.6472 169.681 52.7342 168.953C52.8038 168.198 52.6799 167.438 52.3744 166.743C49.7643 161.013 42.9742 160.323 42.9742 160.323C42.8544 162.213 42.3443 165.353 42.3443 165.353C40.3543 170.133 34.3843 171.043 34.3843 171.043C33.0542 174.153 31.1143 175.733 29.0442 176.403C27.6741 177.313 26.2642 178.153 24.8643 178.993C23.4441 179.803 22.0342 180.653 20.5943 181.433H20.5843C20.5272 181.464 20.4605 181.47 20.3986 181.452C20.3368 181.433 20.2849 181.39 20.2542 181.333L20.2443 181.303C19.3844 178.923 18.5543 176.543 17.8544 174.113C16.5016 171.046 16.3377 167.585 17.3943 164.403C17.9544 162.913 17.2642 159.263 17.2642 159.263C13.0342 159.363 11.6742 164.493 11.6742 164.493C11.495 165.287 11.5226 166.113 11.7542 166.893C11.943 167.67 12.2146 168.425 12.5643 169.143C13.262 170.597 14.1028 171.977 15.0743 173.263C16.0481 174.628 16.8728 176.093 17.5343 177.633C18.2588 179.158 18.5955 180.838 18.5143 182.523C18.2019 180.925 17.6239 179.391 16.8043 177.983C16.4942 177.403 16.1541 176.843 15.8143 176.283C15.2138 177.957 14.7064 179.663 14.2943 181.393C13.8092 183.314 13.4815 185.27 13.3143 187.243C13.1317 189.194 13.1955 191.159 13.5042 193.093C13.8643 195.013 14.3743 196.983 14.7942 198.933C15.6796 202.86 16.1919 206.861 16.3242 210.883C16.36 212.91 16.1586 214.934 15.7241 216.913C15.3153 218.721 14.5799 220.44 13.5542 221.983C13.7138 222.084 13.8316 222.239 13.8856 222.42C13.9397 222.601 13.9265 222.795 13.8484 222.966C13.7703 223.138 13.6326 223.276 13.4608 223.354C13.289 223.432 13.0948 223.445 12.9141 223.391C12.7334 223.337 12.5784 223.219 12.4779 223.059C12.3774 222.899 12.3382 222.709 12.3675 222.522C12.3967 222.336 12.4926 222.167 12.6372 222.045C12.7818 221.924 12.9654 221.86 13.154 221.863C13.2795 221.865 13.4029 221.896 13.5142 221.953C14.3711 220.349 14.9494 218.611 15.2241 216.813C15.5541 214.865 15.6548 212.885 15.5242 210.913C15.2748 206.948 14.6894 203.01 13.7742 199.143C13.3943 197.183 12.9241 195.263 12.5741 193.253C12.2626 191.237 12.2458 189.185 12.5242 187.163C13.0324 183.365 14.1253 179.668 15.7641 176.203C15.2841 175.403 14.7742 174.623 14.2342 173.863C13.2192 172.514 12.4042 171.025 11.8142 169.443C11.5126 168.647 11.3241 167.812 11.2542 166.963C11.1555 166.117 11.3012 165.26 11.6741 164.493C-16.8357 167.113 -14.3657 189.153 -14.3657 189.153C-24.8157 261.613 -2.78587 272.703 -2.78587 272.703C-1.53587 272.203 0.834249 266.723 0.834249 266.723C1.89708 263.003 2.64635 259.199 3.07424 255.353C3.52775 251.532 3.50085 247.668 2.99416 243.853C2.68435 241.983 2.23416 240.083 1.87429 238.173C1.51418 236.263 1.17409 234.343 0.894278 232.413C0.324203 228.583 -0.0591755 224.727 -0.255869 220.843L-2.84593 208.023L-4.21583 201.613C-4.68583 199.483 -5.16582 197.353 -5.76582 195.253C-5.01582 197.303 -4.42574 199.423 -3.8459 201.523C-3.26582 203.633 -2.73579 205.763 -2.22578 207.883C-1.19578 212.133 -0.215782 216.403 0.664358 220.683L0.674124 220.743V220.763C0.894333 224.603 1.36432 228.453 1.90413 232.273C2.16439 234.183 2.47108 236.09 2.82427 237.993C3.15411 239.893 3.58427 241.773 3.88433 243.733C4.14204 245.675 4.2357 247.636 4.16433 249.593C4.11491 251.545 3.94452 253.493 3.6541 255.423C3.3884 257.354 3.01111 259.267 2.52419 261.153C2.06579 263.04 1.50158 264.9 0.834249 266.723C10.7943 285.773 34.4441 280.543 37.5643 277.803C39.8643 275.783 48.4041 271.453 52.7242 269.313C48.9099 271.091 45.0045 272.667 41.0242 274.033C36.4769 275.687 31.7512 276.801 26.9441 277.353C26.3442 277.423 25.7141 277.373 25.1043 277.393C24.8043 277.393 24.4942 277.413 24.1843 277.383L23.2542 277.283L22.3342 277.173C22.0342 277.113 21.7342 277.023 21.4343 276.953C20.8382 276.822 20.2504 276.655 19.6741 276.453C17.3695 275.685 15.1536 274.673 13.0642 273.433C8.91027 270.988 5.05441 268.069 1.57421 264.733C3.45434 266.233 5.36421 267.673 7.35421 269.003C9.31495 270.359 11.3479 271.608 13.4441 272.743C17.6343 274.933 22.1643 276.863 26.8642 276.313C31.599 275.803 36.2656 274.787 40.7841 273.283C43.0741 272.593 45.3442 271.823 47.5942 271.023C49.8442 270.253 52.0542 269.413 54.2741 268.563C54.2941 268.553 54.3241 268.543 54.3442 268.533C54.9143 268.253 55.2441 268.093 55.2441 268.093L58.7341 258.463C59.8642 255.253 61.0141 252.043 62.0942 248.813C63.1843 245.593 64.2141 242.343 65.2043 239.093C65.674 237.453 66.1843 235.823 66.5842 234.173C67.0342 232.623 67.3642 231.043 67.7641 229.463C66.5641 227.773 65.4143 226.033 64.3342 224.263C62.5072 221.333 60.9348 218.252 59.6342 215.053C59.0441 213.393 58.5141 211.843 57.7941 210.303C57.0872 208.763 56.2995 207.261 55.4343 205.803C54.5842 204.333 53.654 202.903 52.674 201.503C51.724 200.083 50.694 198.723 49.6342 197.373C52.0693 199.809 54.2412 202.493 56.1142 205.383C57.0732 206.823 57.932 208.326 58.6843 209.883C59.4073 211.449 60.0481 213.051 60.6042 214.683C61.8884 217.831 63.3645 220.897 65.0241 223.863C65.8342 225.363 66.6843 226.843 67.5541 228.313C68.404 229.803 69.2941 231.263 70.1842 232.733C69.3541 231.683 68.5641 230.593 67.7841 229.503C67.3955 232.806 66.7909 236.08 65.9741 239.303C65.1643 242.623 64.1442 245.893 63.0742 249.143C61.9741 252.383 60.7842 255.593 59.4741 258.753C58.1643 261.913 56.7942 265.043 55.2441 268.093C58.4741 276.563 71.1843 285.523 71.1843 285.523C103.674 234.723 92.8442 217.913 92.8442 217.913V217.913ZM38.8042 224.483C39.0064 224.49 39.198 224.576 39.3386 224.721C39.4792 224.867 39.5578 225.061 39.5578 225.263C39.5578 225.466 39.4792 225.66 39.3386 225.806C39.198 225.951 39.0064 226.036 38.8042 226.043C38.6021 226.036 38.4106 225.951 38.2701 225.806C38.1296 225.66 38.0511 225.466 38.051 225.263C38.051 225.061 38.1296 224.867 38.27 224.721C38.4105 224.576 38.602 224.491 38.8041 224.483L38.8042 224.483ZM50.0742 259.203C51.8842 258.743 53.7043 258.353 55.5542 258.073C54.4703 257.022 53.553 255.811 52.8342 254.483C52.4271 253.749 52.0793 252.983 51.7942 252.193C51.5432 251.391 51.3493 250.573 51.2141 249.743C50.956 248.088 50.9425 246.403 51.1741 244.743C51.3944 243.093 51.842 241.481 52.5042 239.953C51.9036 241.501 51.5134 243.122 51.3443 244.773C51.1606 246.413 51.2178 248.07 51.5142 249.693C51.6676 250.498 51.8816 251.291 52.1541 252.063C52.4506 252.826 52.805 253.565 53.2142 254.273C54.0511 255.68 55.0925 256.954 56.3042 258.053C56.3303 258.079 56.3511 258.109 56.3653 258.143C56.3795 258.176 56.3868 258.212 56.3868 258.248C56.3868 258.285 56.3795 258.321 56.3653 258.354C56.3511 258.388 56.3303 258.418 56.3042 258.443C56.2636 258.492 56.2068 258.524 56.1443 258.533C54.1553 258.858 52.1856 259.292 50.2442 259.833C48.2942 260.373 46.3643 260.983 44.4742 261.683C40.6872 263.081 37.0327 264.815 33.5542 266.863H33.5442C33.5106 266.886 33.4735 266.903 33.4344 266.913C31.1752 267.406 28.8819 267.727 26.5743 267.873C24.2695 268.018 21.9575 268.008 19.6541 267.843C17.3462 267.679 15.0554 267.328 12.8043 266.793C10.5464 266.26 8.34348 265.517 6.22417 264.573C6.12917 264.536 6.04867 264.47 5.99462 264.383C5.94057 264.297 5.91587 264.195 5.92418 264.093V264.083L7.23424 239.303C7.24132 239.186 7.29472 239.075 7.3828 238.997C7.47089 238.918 7.58652 238.877 7.70446 238.883C7.72124 238.886 7.73787 238.889 7.75426 238.893C11.2143 239.483 14.7343 239.923 18.2443 240.223C21.7542 240.523 25.2842 240.693 28.8143 240.663C32.3418 240.648 35.865 240.418 39.3643 239.973C42.8642 239.489 46.3054 238.648 49.6343 237.463C46.3439 238.785 42.9159 239.734 39.4143 240.293C35.9093 240.845 32.3714 241.162 28.8242 241.243C25.2742 241.333 21.7241 241.213 18.1843 240.973C14.8142 240.723 11.4543 240.393 8.10427 239.843L6.96413 263.773C8.93012 264.62 10.964 265.299 13.0442 265.803C15.2367 266.346 17.4714 266.701 19.7241 266.863C21.983 267.047 24.252 267.07 26.5141 266.933C28.7505 266.809 30.9739 266.511 33.1643 266.043C34.9241 265.053 36.6941 264.073 38.5442 263.263C40.3979 262.408 42.2936 261.647 44.2241 260.983C46.1442 260.303 48.1042 259.713 50.0742 259.203L50.0742 259.203ZM57.2541 174.563C56.3411 175.016 55.4879 175.58 54.7141 176.243C53.938 176.901 53.2552 177.661 52.6843 178.503C52.104 179.358 51.6051 180.266 51.1941 181.213C51.3342 180.713 51.4641 180.203 51.6443 179.703C51.8452 179.215 52.0791 178.74 52.3443 178.283C52.8774 177.361 53.5678 176.538 54.3843 175.853C55.9966 174.451 58.0308 173.628 60.1643 173.513C59.1566 173.749 58.18 174.101 57.2541 174.563H57.2541Z" fill="#F23F3F" fill-opacity="0.62"/>
<path d="M71.2737 285.52C71.6409 290.647 71.9891 295.774 72.2576 300.904C72.5374 306.034 72.8411 311.163 73.0474 316.296L73.7183 331.692C73.9156 336.825 74.0454 341.96 74.1353 347.097L74.1358 347.136C74.137 347.228 74.1171 347.318 74.0776 347.401C74.0381 347.483 73.98 347.555 73.908 347.612C71.1516 349.728 68.1781 351.546 65.0374 353.034C61.9161 354.534 58.6259 355.654 55.2374 356.369C51.8331 357.066 48.3277 357.112 44.9063 356.504C41.4815 355.839 38.2492 354.415 35.4473 352.336L35.7288 352.402C32.0802 353.06 28.3959 353.501 24.6951 353.722C20.9852 353.976 17.2614 353.951 13.5552 353.647C9.80849 353.368 6.11334 352.607 2.5611 351.383C-1.10259 350.167 -4.37664 347.998 -6.92474 345.099C-6.99986 345.009 -7.05602 344.904 -7.08987 344.792C-7.12372 344.679 -7.13454 344.561 -7.12173 344.444L-7.11929 344.422C-6.45401 338.482 -5.87661 332.511 -5.34512 326.547C-4.79165 320.582 -4.33951 314.61 -3.90347 308.635C-3.50039 302.658 -3.2272 296.675 -2.99014 290.688C-2.82193 284.7 -2.75381 278.709 -2.87539 272.709C-2.87611 272.685 -2.86737 272.662 -2.85107 272.645C-2.83477 272.627 -2.81225 272.617 -2.78848 272.616C-2.76569 272.616 -2.7436 272.624 -2.72656 272.639C-2.70952 272.654 -2.6988 272.675 -2.6965 272.698C-1.76881 284.685 -1.62601 296.721 -2.26901 308.726C-2.52584 314.731 -2.94183 320.726 -3.43377 326.715C-3.95697 332.703 -4.57125 338.674 -5.34909 344.645L-5.54342 343.969C-3.22362 346.662 -0.229731 348.69 3.13159 349.845C6.53998 351.079 10.0885 351.885 13.6956 352.244C17.3326 352.63 20.9917 352.769 24.6475 352.659C28.314 352.562 31.971 352.239 35.5979 351.693L35.6148 351.691C35.6613 351.684 35.7088 351.686 35.7544 351.698C35.8 351.71 35.8427 351.731 35.8799 351.76C38.5618 353.84 41.689 355.27 45.0164 355.94C48.3583 356.57 51.7945 356.503 55.1094 355.743C58.4317 355.017 61.6369 353.832 64.6331 352.223C67.6359 350.659 70.4669 348.785 73.0798 346.631L72.8525 347.145C72.5574 342.016 72.3023 336.885 72.1146 331.752L71.6306 316.349C71.4519 311.215 71.3707 306.078 71.2657 300.941C71.1492 295.805 71.1123 290.666 71.0948 285.527C71.0945 285.503 71.1033 285.481 71.1194 285.464C71.1355 285.447 71.1576 285.437 71.181 285.436C71.2044 285.435 71.2271 285.443 71.2444 285.459C71.2618 285.475 71.2723 285.497 71.2738 285.52L71.2737 285.52Z" fill="#F23F3F" fill-opacity="0.62"/>
<path d="M26.4731 293.573C24.9618 293.491 23.4615 293.268 21.9917 292.906C20.513 292.562 19.0656 292.094 17.6648 291.508C16.2474 290.932 14.9043 290.188 13.6643 289.291C12.4053 288.412 11.361 287.259 10.6094 285.92C11.6383 286.986 12.812 287.902 14.0962 288.641C15.3657 289.385 16.6876 290.035 18.0515 290.587C19.4055 291.174 20.8032 291.671 22.2083 292.16C23.6184 292.633 25.033 293.118 26.4731 293.573Z" fill="#F23F3F" fill-opacity="0.62"/>
<path d="M35.6636 352.048L34.3962 344.525L33.1023 337.012C32.2148 332.009 31.3267 327.007 30.2793 322.038C29.8086 319.543 29.2607 317.065 28.7356 314.581C28.1604 312.11 27.5857 309.638 26.9622 307.179C26.3765 304.709 25.665 302.274 24.9421 299.842L23.791 296.213L22.4609 292.64C24.6361 297.252 26.3912 302.052 27.7051 306.979C29.1143 311.879 30.2209 316.856 31.2585 321.841C32.2265 326.84 33.1318 331.851 33.8582 336.889C34.5869 341.927 35.2375 346.975 35.6636 352.048Z" fill="#F23F3F" fill-opacity="0.62"/>
<path d="M26.815 353.07C26.056 348.652 25.4747 344.207 24.9586 339.755C24.4425 335.302 24.0687 330.835 23.7349 326.362C23.4829 321.885 23.2623 317.401 23.3282 312.909C23.3707 310.664 23.4527 308.417 23.6651 306.177C23.8231 303.929 24.3183 301.717 25.1339 299.616C24.5074 301.76 24.1778 303.98 24.1541 306.213C24.0421 308.441 24.0467 310.675 24.0972 312.907C24.1907 317.371 24.4023 321.835 24.7318 326.297C24.981 330.762 25.369 335.219 25.7207 339.681L26.815 353.07Z" fill="#F23F3F" fill-opacity="0.62"/>
<path d="M71.3655 304.814C68.4925 305.257 65.5982 305.55 62.6946 305.692L63.3585 304.985C63.4327 306.455 63.5135 307.924 63.4947 309.396C63.4796 310.869 63.4034 312.343 63.3548 313.816C63.2343 316.759 63.3254 319.707 63.6275 322.638C63.7505 324.106 63.9183 325.572 64.0267 327.04C64.1355 328.509 64.21 329.978 64.2923 331.447C64.4854 334.385 64.5633 337.326 64.5589 340.269L63.8895 339.525C64.6658 339.653 65.501 339.731 66.3121 339.786C67.1264 339.833 67.9425 339.839 68.7574 339.803C69.5599 339.765 70.3533 339.617 71.115 339.362C71.8906 339.141 72.5509 338.629 72.9583 337.934C72.9675 337.916 72.9827 337.903 73.0011 337.896C73.0195 337.889 73.0398 337.889 73.0582 337.896C73.0766 337.902 73.0919 337.916 73.1012 337.933C73.1104 337.951 73.113 337.971 73.1085 337.99C72.9729 338.419 72.7518 338.817 72.4584 339.158C72.165 339.5 71.8055 339.779 71.4015 339.977C70.6146 340.39 69.7699 340.681 68.8961 340.841C68.039 341.009 67.1697 341.107 66.2967 341.133C65.4227 341.167 64.5475 341.143 63.6766 341.063C63.5027 341.048 63.3399 340.971 63.2177 340.847C63.0955 340.722 63.0221 340.558 63.0108 340.384L63.0067 340.318C62.8175 337.381 62.7103 334.44 62.7183 331.497C62.7083 330.025 62.69 328.554 62.7066 327.082C62.7225 325.61 62.7977 324.136 62.8282 322.663C62.9458 319.719 62.8515 316.771 62.5462 313.841C62.4051 312.374 62.2364 310.908 62.129 309.439C62.0176 307.971 62.006 306.5 61.9876 305.028L61.9874 304.999C61.9863 304.911 62.0025 304.824 62.0351 304.742C62.0677 304.661 62.1161 304.586 62.1775 304.523C62.2388 304.46 62.312 304.41 62.3928 304.376C62.4736 304.341 62.5604 304.323 62.6482 304.321H62.6517C65.5585 304.281 68.4654 304.391 71.3607 304.653C71.3802 304.655 71.3984 304.664 71.4118 304.679C71.4252 304.693 71.4329 304.712 71.4335 304.731C71.4341 304.751 71.4275 304.77 71.415 304.785C71.4025 304.8 71.385 304.811 71.3656 304.814H71.3655Z" fill="#F23F3F" fill-opacity="0.62"/>
<path d="M71.6821 311.067C70.3164 311.697 68.8772 312.154 67.3979 312.427C65.927 312.742 64.422 312.87 62.9189 312.807C64.2839 312.175 65.7234 311.718 67.2031 311.447C68.6744 311.134 70.1791 311.006 71.6821 311.067Z" fill="#F23F3F" fill-opacity="0.62"/>
<path d="M72.5273 347.879C72.8955 349.268 73.2401 350.664 73.561 352.065C73.7015 352.754 73.8971 353.43 74.1458 354.087C74.4529 354.709 74.8255 355.297 75.2571 355.841C75.6836 356.407 76.0938 357.04 76.5137 357.576C76.9255 358.129 77.4014 358.674 77.8577 359.22C78.7861 360.309 79.728 361.398 80.6377 362.516C84.3555 366.948 87.6933 371.685 90.6154 376.677C92.1032 379.162 93.4109 381.752 94.6477 384.371C95.258 385.684 95.8139 387.023 96.3913 388.351L97.9153 392.42L99.2361 396.555C99.634 397.923 100.06 399.284 100.515 400.638C101.408 403.349 102.435 406.014 103.543 408.652L103.531 408.63L103.584 408.746L103.595 408.769L105.032 412.087C105.532 413.187 105.96 414.321 106.39 415.448C105.29 413.299 104.104 411.204 102.979 409.063L102.99 409.085L102.929 408.974L102.917 408.951C101.569 406.394 100.371 403.762 99.3283 401.067C98.8076 399.718 98.3154 398.359 97.8518 396.989L96.4214 392.962C94.3862 387.643 91.9363 382.493 89.0942 377.558C87.6967 375.077 86.1474 372.685 84.5862 370.299C82.9929 367.934 81.3225 365.619 79.6074 363.328L77.0095 359.896C76.1243 358.746 75.3173 357.538 74.5937 356.28C74.1827 355.66 73.8398 354.998 73.571 354.305C73.3675 353.599 73.2218 352.877 73.1355 352.147L72.5273 347.879Z" fill="#F23F3F" fill-opacity="0.62"/>
<path d="M92.3044 430.088C90.3162 426.895 88.3569 423.691 86.3042 420.545C84.2961 417.374 82.2505 414.229 80.1306 411.139C77.9876 408.057 75.8772 404.977 73.5833 402.028C71.3822 399.05 68.9229 396.272 66.2339 393.726C64.9321 392.551 63.2876 391.415 61.9258 390.085C61.2078 389.45 60.531 388.777 59.8711 388.087C59.1912 387.416 58.5559 386.705 57.9333 385.984C55.4408 383.114 53.1993 380.035 51.2336 376.781C49.2647 373.544 47.5488 370.16 46.1013 366.659C44.6629 363.163 43.6486 359.507 43.0801 355.77C43.9813 359.407 45.2637 362.939 46.906 366.307C48.4874 369.686 50.3229 372.94 52.3965 376.042C54.4472 379.142 56.7214 382.088 59.2009 384.858C59.8271 385.541 60.4404 386.235 61.1057 386.876C61.75 387.54 62.4089 388.186 63.1042 388.791C64.4441 390.082 65.9282 391.065 67.429 392.393C70.1887 395.029 72.7006 397.913 74.9329 401.009C77.1716 404.055 79.2979 407.187 81.2779 410.387C83.2698 413.587 85.1949 416.824 87.053 420.097C88.8567 423.401 90.6687 426.699 92.3044 430.088Z" fill="#F23F3F" fill-opacity="0.62"/>
<path d="M31.9936 352.164C31.4603 352.336 30.9915 352.665 30.6488 353.109C30.2905 353.532 29.9893 354.001 29.7531 354.503C29.2631 355.5 28.889 356.55 28.6381 357.632C28.3793 358.716 28.1862 359.814 28.0597 360.92C27.9982 361.475 27.9205 362.025 27.8724 362.581L27.775 364.252C27.5681 368.719 27.6546 373.194 28.034 377.65L29.2972 391.07C29.6696 395.559 29.9579 400.058 30.12 404.571C30.2904 409.098 30.2044 413.632 29.8622 418.149C29.6567 420.419 29.3237 422.675 28.8646 424.908C28.6315 426.022 28.3737 427.127 28.0914 428.223C27.8202 429.286 27.6096 430.364 27.4606 431.451C26.9342 435.893 26.6488 440.36 26.6056 444.833C26.4478 449.322 26.4552 453.817 26.4317 458.316C25.6027 449.328 25.4896 440.287 26.0934 431.28C26.2085 430.134 26.3885 428.996 26.6324 427.871C26.88 426.78 27.1204 425.694 27.3251 424.603C27.7309 422.423 28.0137 420.221 28.172 418.008C28.4662 413.554 28.5193 409.088 28.3309 404.628C28.2047 400.153 27.9237 395.676 27.6109 391.199C27.3211 386.723 26.8843 382.255 26.6651 377.734C26.441 373.216 26.5212 368.687 26.9051 364.18L27.1048 362.492C27.1871 361.932 27.2994 361.374 27.3953 360.815C27.5912 359.697 27.8544 358.592 28.1834 357.505C28.505 356.412 28.953 355.361 29.5181 354.371C29.8016 353.876 30.149 353.421 30.5513 353.016C30.9355 352.593 31.4381 352.296 31.9936 352.164Z" fill="#F23F3F" fill-opacity="0.62"/>
<path d="M-0.960932 348.864C-1.48828 350.465 -1.80163 352.128 -1.89282 353.81C-2.0014 355.484 -1.97618 357.164 -1.81738 358.834C-1.65627 360.5 -1.40229 362.156 -1.05664 363.794C-0.891106 364.613 -0.676503 365.424 -0.489253 366.238L0.202886 368.65C0.210986 368.679 0.217104 368.709 0.221196 368.739L1.64795 379.814L2.978 390.902C3.79978 398.301 4.73215 405.693 5.37107 413.104C6.05051 420.518 6.63035 427.944 7.00486 435.385C7.18016 439.106 7.38449 442.828 7.38962 446.557C7.40476 448.421 7.39402 450.287 7.32444 452.151C7.30214 454.018 7.10763 455.878 6.74338 457.709C6.94882 455.863 7.0094 454.004 6.92453 452.148C6.88425 450.292 6.78563 448.437 6.66111 446.583C6.39549 442.877 6.14841 439.171 5.81223 435.469C5.13352 428.066 4.39499 420.668 3.6489 413.27L3.0879 407.717L2.46656 402.174L1.27201 391.084L0.143834 379.986L-0.88766 368.875L-0.869105 368.964L-1.48678 366.479C-1.64889 365.641 -1.83737 364.808 -1.97653 363.966C-2.259 362.282 -2.42752 360.581 -2.48092 358.874C-2.54265 357.171 -2.46844 355.465 -2.259 353.773C-2.06535 352.083 -1.62812 350.429 -0.960932 348.864Z" fill="#F23F3F" fill-opacity="0.62"/>
<path d="M64.541 364.387C65.0607 365.074 65.4828 365.829 65.7954 366.631C66.1193 367.435 66.3484 368.273 66.478 369.13C66.6207 370.01 66.5855 370.91 66.3745 371.776C66.2837 372.217 66.0998 372.634 65.8352 372.998C65.5705 373.362 65.2312 373.666 64.8398 373.888C65.2993 373.224 65.5647 372.445 65.6064 371.638C65.6586 370.847 65.619 370.051 65.4885 369.269C65.2683 367.667 64.8555 366.076 64.541 364.387Z" fill="#F23F3F" fill-opacity="0.62"/>
<path d="M12.6938 361.941C12.9627 363.758 12.8153 365.611 12.2629 367.362C11.9808 368.266 11.5259 369.107 10.9233 369.837C10.631 370.223 10.2421 370.526 9.79575 370.714C9.34941 370.902 8.86141 370.969 8.38086 370.909C9.20008 370.667 9.89085 370.112 10.3027 369.364C10.7247 368.634 11.0634 367.859 11.3123 367.054C11.8372 365.41 12.2 363.696 12.6938 361.941Z" fill="#F23F3F" fill-opacity="0.62"/>
<path d="M73.4603 346.047C73.8407 348.053 74.0544 350.086 74.0995 352.127C74.1848 354.166 74.0993 356.21 73.8439 358.235C73.4616 356.23 73.2478 354.196 73.2047 352.155C73.1213 350.115 73.2068 348.072 73.4603 346.047Z" fill="#F23F3F" fill-opacity="0.62"/>
<path d="M128.464 429.113C127.906 427.793 127.046 426.621 125.954 425.692C124.862 424.763 123.567 424.103 122.174 423.763C118.784 422.903 115.804 418.743 115.804 418.743C115.804 418.743 112.054 410.893 108.185 413.013C105.764 414.333 105.885 418.113 106.324 420.763C106.569 422.061 106.547 423.396 106.26 424.685C105.973 425.974 105.426 427.192 104.654 428.263C101.264 432.663 96.4346 431.523 94.3245 430.733C93.3381 430.331 92.238 430.306 91.2344 430.663C86.5044 432.443 91.0545 439.513 91.0545 439.513C91.5657 438.654 92.2585 437.917 93.0845 437.353C93.9165 436.761 94.8581 436.339 95.8544 436.113C96.848 435.879 97.8787 435.848 98.8844 436.023C99.8861 436.167 100.832 436.575 101.624 437.203C99.8029 437.053 97.9691 437.178 96.1845 437.573C95.3212 437.777 94.4751 438.047 93.6543 438.383C92.7944 438.703 91.9843 439.133 91.0544 439.513C91.0544 439.513 90.1044 442.433 88.7544 446.513C89.5078 445.891 90.3549 445.391 91.2644 445.033C92.1619 444.652 93.102 444.38 94.0644 444.223C95.0641 444.065 96.0844 444.092 97.0744 444.303C97.5929 444.381 98.0825 444.591 98.496 444.914C98.9094 445.236 99.2327 445.659 99.4345 446.143C98.692 445.646 97.8064 445.407 96.9145 445.463C96.0369 445.493 95.1619 445.577 94.2944 445.713L91.5844 446.153C90.6742 446.303 89.7443 446.443 88.7543 446.513C88.0343 448.713 87.1943 451.243 86.3244 453.843C87.0209 453.124 87.8448 452.541 88.7543 452.123C89.6599 451.675 90.6328 451.378 91.6344 451.243C92.6605 451.095 93.7064 451.163 94.7045 451.443C95.7013 451.733 96.5803 452.332 97.2143 453.153C96.3326 452.861 95.4197 452.673 94.4943 452.593C93.6056 452.562 92.7158 452.605 91.8344 452.723C90.0544 452.963 88.2844 453.453 86.3244 453.843C84.8744 458.203 83.3444 462.743 82.1444 466.163C78.9144 475.403 82.6542 476.793 82.6542 476.793C82.314 476.385 82.0736 475.903 81.9521 475.386C81.8306 474.869 81.8315 474.33 81.9545 473.813C82.1792 473.31 82.5268 472.871 82.9654 472.538C83.4039 472.204 83.9194 471.986 84.4643 471.903C85.0058 471.8 85.5616 471.797 86.1044 471.893C86.6262 472.001 87.1355 472.162 87.6244 472.373C88.5461 472.689 89.5237 472.808 90.4943 472.723C92.4435 472.475 94.2728 471.646 95.7443 470.343C97.2416 469.053 98.5689 467.578 99.6943 465.953L99.7343 465.893C101.604 462.603 103.614 459.393 105.724 456.233C106.794 454.653 107.904 453.093 109.074 451.573C109.664 450.813 110.274 450.063 110.934 449.343C111.264 448.983 111.634 448.643 111.974 448.293C112.354 447.973 112.814 447.603 113.144 447.353C114.579 446.186 115.898 444.883 117.084 443.463C118.304 442.043 119.454 440.543 120.534 439.003C121.611 437.454 122.608 435.852 123.524 434.203C124.489 432.578 125.118 430.776 125.374 428.903C125.315 430.824 124.834 432.709 123.964 434.423C123.186 436.174 122.281 437.865 121.254 439.483C120.234 441.093 119.134 442.66 117.955 444.183C116.788 445.748 115.442 447.171 113.944 448.423C112.532 449.597 111.281 450.952 110.224 452.453C109.084 453.953 108.014 455.503 106.964 457.063C104.854 460.203 102.844 463.423 100.884 466.643L100.874 466.673L100.844 466.703C99.6083 468.423 98.1411 469.964 96.4843 471.283C94.7839 472.643 92.7148 473.462 90.5444 473.633C89.4545 473.672 88.3683 473.485 87.3544 473.083C86.9134 472.855 86.4512 472.671 85.9743 472.533C85.5082 472.41 85.0231 472.376 84.5444 472.433C84.0643 472.469 83.6007 472.624 83.1956 472.884C82.7905 473.145 82.4567 473.502 82.2243 473.923C82.0782 474.404 82.0409 474.91 82.1153 475.407C82.1897 475.903 82.3738 476.377 82.6543 476.793C90.6845 485.323 102.364 470.003 109.514 456.753C116.664 443.503 122.174 441.193 122.174 441.193C129.734 437.353 129.935 432.663 128.464 429.113ZM114.935 435.713C114.705 439.403 110.734 440.753 109.205 439.783C107.674 438.823 107.754 435.433 109.384 432.223C111.014 429.013 113.584 427.193 115.114 428.153C116.644 429.113 115.194 431.423 114.935 435.713V435.713Z" fill="#F23F3F" fill-opacity="0.62"/>
<path d="M33.3349 476.533C31.415 473.283 31.915 468.033 31.915 468.033C31.915 468.033 34.2248 459.543 30.0249 458.043C27.4047 457.093 25.0648 459.883 23.6748 462.103C23.0445 463.194 22.1704 464.125 21.121 464.822C20.0715 465.52 18.875 465.965 17.625 466.123C12.3049 466.613 9.50483 462.063 8.47481 459.863C8.02481 458.825 7.24907 457.962 6.26482 457.403C1.65472 455.003 0.42473 463.543 0.42473 463.543C1.44861 463.361 2.49989 463.406 3.50481 463.673C4.52981 463.92 5.49531 464.369 6.34489 464.993C7.20439 465.599 7.9408 466.362 8.51482 467.243C9.11263 468.097 9.49989 469.081 9.64494 470.113C8.41446 468.653 7.01456 467.343 5.47478 466.213C4.72518 465.665 3.92883 465.183 3.09489 464.773C2.26482 464.323 1.36489 463.993 0.42473 463.543C0.42473 463.543 -2.14509 464.873 -5.7552 466.723C-4.7481 466.905 -3.77174 467.228 -2.85505 467.683C-1.93381 468.129 -1.06515 468.675 -0.265211 469.313C0.559456 469.967 1.26053 470.763 1.80486 471.663C2.11608 472.107 2.32197 472.616 2.40688 473.152C2.49178 473.687 2.45346 474.235 2.29485 474.753C2.04348 473.839 1.54937 473.01 0.864916 472.353C0.209564 471.686 -0.485029 471.058 -1.21516 470.473L-3.47517 468.673C-4.26816 468.063 -5.02917 467.412 -5.75517 466.723C-7.69511 467.723 -9.9451 468.863 -12.2452 470.043C-11.2024 470.108 -10.1796 470.358 -9.22517 470.783C-8.25223 471.194 -7.34566 471.746 -6.53517 472.423C-5.71077 473.117 -5.02243 473.958 -4.50517 474.903C-4.00217 475.855 -3.77689 476.929 -3.85502 478.003C-4.32574 477.141 -4.87121 476.321 -5.48515 475.553C-6.11305 474.845 -6.7879 474.181 -7.50514 473.563C-8.96514 472.333 -10.5649 471.283 -12.2451 470.043H-12.2551C-16.125 472.013 -20.1751 474.043 -23.2551 475.543C-31.5752 479.593 -29.7352 483.473 -29.7352 483.473C-29.6954 482.948 -29.5634 482.433 -29.3452 481.953C-29.1336 481.435 -28.7333 481.017 -28.2251 480.783C-27.6939 480.587 -27.1111 480.58 -26.5752 480.763C-26.0441 480.915 -25.548 481.17 -25.115 481.513C-24.2715 482.217 -23.6239 483.126 -23.2352 484.153C-22.7937 485.044 -22.1978 485.85 -21.4751 486.533C-20.7556 487.211 -19.9318 487.768 -19.0351 488.183C-18.1213 488.576 -17.1648 488.862 -16.185 489.033C-14.2136 489.337 -12.2076 489.34 -10.2351 489.043H-10.215C-6.675 488.173 -3.10167 487.437 0.504961 486.833C2.31502 486.543 4.12507 486.293 5.96495 486.123C6.88511 486.043 7.81505 486.003 8.75496 485.993C9.22496 486.003 9.70515 486.043 10.1749 486.063C10.6451 486.133 11.2149 486.223 11.6051 486.293C13.346 486.581 15.1127 486.681 16.875 486.593C18.6759 486.534 20.472 486.373 22.2549 486.113C24.0416 485.855 25.8113 485.491 27.5549 485.023C28.4219 484.78 29.2706 484.476 30.0949 484.113C30.9326 483.766 31.7014 483.271 32.3649 482.653C31.0745 483.974 29.4717 484.947 27.705 485.483C25.9814 486.117 24.2087 486.609 22.4047 486.953C20.5976 487.311 18.7713 487.565 16.935 487.713C15.0704 487.903 13.1896 487.862 11.3349 487.593C9.59941 487.323 7.83335 487.313 6.09489 487.563C4.3149 487.743 2.52483 488.003 0.744799 488.293C-2.81501 488.903 -6.38508 489.613 -9.91511 490.403H-9.9351L-9.98512 490.413C-12.1276 490.698 -14.3019 490.637 -16.4251 490.233C-17.4931 489.999 -18.5278 489.633 -19.5051 489.143C-20.4804 488.638 -21.3683 487.98 -22.135 487.193C-22.8909 486.398 -23.5033 485.478 -23.9451 484.473C-24.1166 483.997 -24.3204 483.532 -24.5552 483.083C-24.8004 482.657 -25.107 482.27 -25.4651 481.933C-25.8252 481.602 -26.2464 481.344 -26.7051 481.173C-27.1493 480.979 -27.646 480.94 -28.115 481.063C-28.562 481.301 -28.9435 481.646 -29.2261 482.066C-29.5086 482.486 -29.6834 482.969 -29.7351 483.473C-29.355 495.763 -10.9451 493.953 2.81493 490.103C16.5849 486.253 22.1049 488.893 22.1049 488.893C30.1149 492.033 33.2748 488.873 34.4848 485.203C34.9183 483.759 35.04 482.239 34.8417 480.745C34.6435 479.25 34.1299 477.815 33.3349 476.533ZM20.3349 479.383C17.7949 481.823 14.0249 479.703 13.5249 477.833C13.0249 475.953 15.2648 473.623 18.5348 472.603C21.7948 471.593 24.8449 472.293 25.3449 474.163C25.8449 476.033 23.2949 476.553 20.3349 479.383V479.383Z" fill="#F23F3F" fill-opacity="0.62"/>
<path d="M59.4757 295.486C58.5809 295.357 57.7132 295.082 56.9074 294.673C56.0862 294.274 55.3247 293.762 54.6447 293.153C53.9615 292.523 53.3974 291.776 52.9794 290.947C52.583 290.111 52.4185 289.185 52.5031 288.264C52.796 289.071 53.1831 289.842 53.6564 290.558C54.1486 291.231 54.7057 291.853 55.3197 292.416C55.9492 292.984 56.612 293.515 57.3046 294.004C58.0055 294.502 58.726 294.988 59.4757 295.486Z" fill="#F23F3F" fill-opacity="0.62"/>
<path d="M6.43335 278.913C6.50352 279.665 6.44297 280.425 6.25439 281.157C6.08192 281.902 5.79429 282.616 5.40186 283.272C5.00342 283.953 4.45808 284.535 3.80566 284.978C3.14856 285.413 2.36086 285.606 1.57715 285.525C2.21996 285.239 2.81012 284.846 3.323 284.365C3.79648 283.881 4.20756 283.341 4.54663 282.755C5.24311 281.509 5.8729 280.226 6.43335 278.913Z" fill="#F23F3F" fill-opacity="0.62"/>
<path d="M119.956 407.531C114.172 407.484 108.387 407.458 102.603 407.453C102.81 407.904 103.017 408.356 103.23 408.802C108.807 408.786 114.379 408.771 119.956 408.724L155.116 408.506C166.836 408.376 178.555 408.304 190.275 408.127C178.555 407.951 166.836 407.878 155.116 407.749L119.956 407.531Z" fill="#F23F3F" fill-opacity="0.62"/>
<path d="M49.6372 407.349L29.2949 407.391C29.3002 407.894 29.3053 408.387 29.3106 408.864L49.6372 408.906L79.4323 408.843C79.1159 408.361 78.7888 407.884 78.4673 407.406L49.6372 407.349Z" fill="#F23F3F" fill-opacity="0.62"/>
<path d="M-91 408.127C-79.28 408.304 -67.5603 408.381 -55.8406 408.511L-20.6812 408.724C-12.4269 408.791 -4.1727 408.802 4.08131 408.817C4.03471 408.356 3.98809 407.899 3.94655 407.437C-4.26617 407.453 -12.4735 407.463 -20.6812 407.531L-55.8406 407.743C-67.5603 407.873 -79.28 407.951 -91 408.127Z" fill="#F23F3F" fill-opacity="0.62"/>
</svg>
