<?xml version="1.0" encoding="utf-8"?>
<!-- Generator: Adobe Illustrator 16.0.0, SVG Export Plug-In . SVG Version: 6.00 Build 0)  -->
<!DOCTYPE svg PUBLIC "-//W3C//DTD SVG 1.1//EN" "http://www.w3.org/Graphics/SVG/1.1/DTD/svg11.dtd">
<svg version="1.1" id="Calque_1" xmlns="http://www.w3.org/2000/svg" xmlns:xlink="http://www.w3.org/1999/xlink" x="0px" y="0px"
	 width="400px" height="334px" viewBox="0 0 400 334" enable-background="new 0 0 400 334" xml:space="preserve">
<path fill="#FFF4F4" d="M379.786,181.586c-22.701,61.975,12.679,127.116-136.599,138.585
	C111.32,330.303,32.736,275.873,16.72,189.997C-6.245,66.871,130.296,25.705,225.467,48.223
	C320.637,70.741,410.247,98.424,379.786,181.586z"/>
<path fill="#020202" d="M171.723,75.06c0.225,2.435,0.279,4.883,0.163,7.326c-0.063,1.236-0.196,2.468-0.399,3.688
	c-0.112,0.627-0.263,1.246-0.452,1.853c-0.099,0.318-0.218,0.629-0.357,0.932l-0.17,0.382c-0.041,0.106-0.074,0.214-0.098,0.326
	c-0.138,1.021,0.093,2.059,0.651,2.927c0.567,1,1.241,1.934,2.01,2.787l0.583,0.656l0.303,0.32l0.152,0.158
	c0.086,0.087,0.164,0.181,0.234,0.28c0.281,0.405,0.401,0.9,0.335,1.388c-0.033,0.239-0.111,0.471-0.229,0.682
	c-0.094,0.156-0.197,0.307-0.311,0.45c-0.791,1.13-1.972,1.928-3.315,2.239l0.375-0.308c-1.039,1.982-2.191,3.902-3.454,5.75
	c-1.214,1.886-2.645,3.623-4.262,5.177c-0.838,0.796-1.81,1.438-2.871,1.896c-0.56,0.228-1.154,0.36-1.758,0.392
	c-0.309,0.011-0.618-0.006-0.923-0.051l-0.84-0.149c-1.127-0.199-2.235-0.497-3.311-0.889c-0.566-0.215-1.106-0.493-1.611-0.826
	c-0.28-0.186-0.536-0.405-0.762-0.653c-0.131-0.142-0.244-0.299-0.338-0.468c-0.056-0.096-0.102-0.198-0.139-0.304
	c-0.058-0.154-0.086-0.319-0.082-0.485l1.194,0.674c-1.565,1.286-2.872,2.859-3.851,4.634c-0.494,0.883-0.895,1.816-1.194,2.783
	c-0.298,0.963-0.514,1.951-0.646,2.949l-0.007,0.048c-0.031,0.198-0.124,0.38-0.263,0.523c-0.14,0.142-0.321,0.237-0.517,0.272
	c-0.197,0.035-0.399,0.007-0.579-0.079c-0.18-0.085-0.329-0.226-0.426-0.4c-1.137-2.081-2.063-4.271-2.764-6.536
	c-0.715-2.25-1.201-4.566-1.451-6.914c-0.27-2.35-0.206-4.725,0.19-7.057c0.382-2.318,1.188-4.546,2.376-6.573
	c0.012-0.021,0.032-0.036,0.055-0.042s0.048-0.002,0.069,0.009c0.019,0.012,0.033,0.029,0.04,0.05s0.006,0.043-0.001,0.064
	c-0.424,1.062-0.77,2.152-1.036,3.264c-0.249,1.104-0.421,2.225-0.517,3.353c-0.153,2.249-0.046,4.508,0.322,6.732
	c0.377,2.223,0.948,4.407,1.705,6.53c0.736,2.117,1.633,4.174,2.684,6.154l-1.793,0.363c0.304-2.253,1.06-4.422,2.222-6.377
	c0.571-0.972,1.236-1.885,1.988-2.725c0.749-0.861,1.599-1.628,2.532-2.286l1.194,0.673c-0.001-0.152-0.008-0.074-0.003-0.079
	c0.006,0.025,0.017,0.051,0.03,0.075c0.036,0.076,0.082,0.147,0.137,0.21c0.138,0.169,0.298,0.32,0.475,0.449
	c0.406,0.297,0.841,0.55,1.3,0.755c0.975,0.446,1.986,0.807,3.023,1.078c2,0.816,4.089-0.117,5.734-1.515
	c1.64-1.455,3.049-3.148,4.18-5.025c1.147-1.871,2.137-3.834,2.958-5.87c0.029-0.071,0.074-0.134,0.131-0.186
	c0.058-0.052,0.125-0.089,0.2-0.11l0.045-0.012c1.021-0.342,1.879-1.047,2.412-1.982c0.067-0.101,0.127-0.207,0.183-0.314
	c0.024-0.059,0.036-0.122,0.036-0.185c0.002-0.121-0.037-0.239-0.111-0.335c-0.02-0.023-0.04-0.044-0.063-0.065l-0.171-0.161
	l-0.338-0.327c-0.223-0.221-0.444-0.444-0.656-0.676c-0.875-0.936-1.626-1.979-2.235-3.106c-0.727-1.22-0.978-2.665-0.705-4.059
	c0.05-0.184,0.114-0.363,0.192-0.535l0.221-0.44c0.125-0.244,0.236-0.495,0.329-0.753c0.196-0.543,0.359-1.098,0.487-1.662
	c0.274-1.16,0.488-2.333,0.642-3.515c0.332-2.381,0.557-4.796,0.737-7.219c0.001-0.024,0.013-0.047,0.03-0.062
	c0.018-0.017,0.041-0.025,0.065-0.024c0.021,0.002,0.042,0.011,0.058,0.026C171.711,75.018,171.721,75.038,171.723,75.06z"/>
<path fill="#020202" d="M145.394,98.816c0.313,1.684,0.844,3.32,1.577,4.868c0.366,0.749,0.821,1.453,1.354,2.094
	c0.558,0.658,1.174,1.262,1.842,1.807c-0.874-0.254-1.677-0.703-2.35-1.315c-0.687-0.614-1.249-1.354-1.656-2.18
	c-0.402-0.818-0.676-1.692-0.812-2.594C145.202,100.607,145.217,99.699,145.394,98.816z"/>
<path fill="#020202" d="M142.991,94.903c-6.835,16.08,2.403,26.556,2.403,26.556c-16.905-3.637-25.682,6.536-25.682,6.536
	c-4.555-9.747-15.055-8.312-15.055-8.312s-6.438-6.66,1.776-12.099c5.75-3.808,6.496-7.343,6.426-9.122
	c-0.097-1.606,0.092-3.217,0.559-4.757c0.729-2.232,1.831-4.323,3.26-6.187c2.347-3.011,4.111-6.434,5.202-10.092
	c2.338-8.06,7.87-20.892,19.276-20.127c2.887-0.273,5.798-0.124,8.642,0.444c3.906,0.83,7.621,2.386,10.952,4.588
	c4.133,2.555,7.79,5.81,10.804,9.621c0.35,3.272-0.378,6.571-2.072,9.393c-3.078,4.978-8.325,6.489-11.244,6.946
	c-0.992,0.174-2.012,0.09-2.962-0.245c-0.95-0.334-1.798-0.907-2.462-1.664c-0.47-0.557-0.824-1.202-1.041-1.897
	c-0.268-1.02-0.739-1.973-1.386-2.805s-1.456-1.523-2.377-2.033c-2.278-1.127-5.066-0.787-6.389,6.067
	C140.519,91.422,141.539,93.902,142.991,94.903z"/>
<path fill="#020202" d="M246.44,194.939c-3.092,0.54-6.211,0.902-9.343,1.084c-3.115,0.207-6.23,0.317-9.346,0.329
	c-3.115,0.017-6.23-0.083-9.348-0.271c-3.132-0.163-6.255-0.507-9.348-1.032c3.09-0.543,6.21-0.905,9.342-1.087
	c3.115-0.205,6.231-0.323,9.347-0.325c3.114-0.012,6.229,0.081,9.345,0.275C240.224,194.074,243.345,194.418,246.44,194.939z"/>
<path fill="#020202" d="M175.684,195.247c-6.094,0.508-12.205,0.772-18.319,0.956l-2.293,0.069l-1.147,0.031
	c-0.402,0.022-0.805,0.015-1.205-0.024c-1.767-0.145-3.467-0.736-4.941-1.721c-1.4-0.926-2.646-2.069-3.693-3.382
	c-1.052-1.276-1.96-2.664-2.708-4.14c-0.028-0.054-0.051-0.11-0.068-0.169l-0.019-0.063c-1.784-5.989-3.606-11.985-5.469-17.989
	c-0.952-2.995-1.939-5.98-2.964-8.957l-1.639-4.426l-1.762-4.379c-1.224-2.898-2.486-5.78-3.83-8.626
	c-1.34-2.847-2.761-5.657-4.181-8.464c-1.434-2.801-2.895-5.586-4.384-8.355c-0.588-1.18-1.481-2.179-2.588-2.895
	c-1.106-0.715-2.384-1.12-3.701-1.173l-9.323,0.347c-3.163,0.095-6.331,0.155-9.511,0.146c-3.184-0.056-6.361-0.149-9.624-0.524
	c-0.817-0.107-1.641-0.237-2.497-0.425c-0.451-0.097-0.896-0.218-1.334-0.363c-0.591-0.182-1.146-0.465-1.642-0.835
	c-0.213-0.171-0.402-0.37-0.562-0.591c-0.231-0.324-0.383-0.7-0.442-1.094c-0.025-0.211-0.026-0.425-0.003-0.637l0.064-0.305
	c0.039-0.194,0.097-0.383,0.171-0.567c0.119-0.29,0.266-0.57,0.439-0.831c0.141-0.227,0.298-0.441,0.47-0.644
	c0.586-0.689,1.232-1.324,1.932-1.896c2.564-1.971,5.256-3.77,8.057-5.386l8.152-4.765c1.339-0.797,2.669-1.614,3.918-2.48
	c0.32-0.215,0.605-0.436,0.922-0.665l1.047-0.73c0.365-0.218,0.743-0.414,1.112-0.619c0.379-0.187,0.776-0.339,1.163-0.502
	c1.565-0.563,3.223-0.827,4.886-0.778c1.623,0.018,3.23,0.32,4.75,0.894c0.042,0.017,0.076,0.047,0.096,0.088
	c0.02,0.041,0.025,0.086,0.012,0.13c-0.013,0.043-0.041,0.081-0.079,0.104c-0.039,0.023-0.084,0.032-0.128,0.023l-0.017-0.003
	c-2.993-0.646-6.115-0.286-8.881,1.027c-0.318,0.186-0.649,0.343-0.957,0.539l-0.896,0.625l-0.826,0.71
	c-0.296,0.265-0.609,0.559-0.918,0.816c-1.243,1.062-2.541,1.989-3.833,2.921c-2.584,1.857-5.237,3.563-7.818,5.342
	c-2.576,1.669-5.047,3.494-7.4,5.464c-0.51,0.438-0.98,0.919-1.406,1.438c-0.083,0.098-0.156,0.203-0.219,0.314
	c-0.044,0.066-0.082,0.136-0.11,0.21c-0.03,0.042,0.016,0,0.006-0.002c0-0.006-0.001-0.013-0.006-0.018
	c0.018-0.114,0.017-0.229-0.002-0.342c-0.025-0.28-0.155-0.539-0.363-0.728c-0.045-0.034,0.206,0.105,0.48,0.178
	c0.313,0.093,0.631,0.169,0.952,0.229c0.686,0.133,1.422,0.232,2.169,0.31c2.998,0.341,6.126,0.453,9.238,0.533
	c3.118,0.107,6.251,0.146,9.387,0.151l4.707-0.02l2.354-0.028c0.794,0,1.513-0.057,2.508,0.009c1.848,0.134,3.624,0.776,5.13,1.855
	c1.506,1.079,2.686,2.552,3.407,4.26c1.266,2.897,2.486,5.811,3.7,8.727l3.609,8.753l3.658,8.725
	c4.83,11.63,10.572,22.997,13.929,35.277l-0.087-0.23c1.182,2.51,2.943,4.703,5.138,6.399c1.031,0.772,2.243,1.267,3.52,1.438
	c0.355,0.051,0.715,0.076,1.074,0.07l1.137,0.044l2.275,0.096c6.067,0.251,12.138,0.585,18.227,1.161
	c0.048,0.005,0.093,0.026,0.124,0.063s0.046,0.086,0.042,0.133c-0.004,0.043-0.022,0.082-0.054,0.113
	C175.766,195.225,175.726,195.243,175.684,195.247z"/>
<path fill="#020202" d="M213.983,186.818c4.989-0.139,9.978-0.219,14.966-0.297l7.481-0.122l3.741-0.051
	c1.3-0.039,2.603,0.043,3.889,0.245c2.603,0.417,5.099,1.334,7.354,2.702c0.577,0.352,1.074,0.693,1.601,1.035
	c0.564,0.366,1.105,0.768,1.619,1.203c2.091,1.799,3.588,4.188,4.294,6.855c0.178,0.665,0.303,1.343,0.375,2.027
	c0.05,0.341,0.054,0.686,0.077,1.029l0.028,0.944l0.185,7.48l0.341,14.961l0.272,14.962c0.188,9.975,0.293,19.95,0.316,29.927
	l-0.034,14.966l-0.012,3.74c-0.007,0.633,0.005,1.23-0.016,1.889c-0.066,3.428-1.421,6.704-3.792,9.18
	c-1.871,1.954-4.295,3.287-6.945,3.822c-1.284,0.224-2.589,0.315-3.892,0.272l-3.745,0.004l-14.974-0.02
	c-9.981-0.024-19.961-0.118-29.942-0.283c-9.979-0.188-19.964-0.35-29.943-0.789c-9.979-0.418-19.965-0.89-29.926-1.766
	c-2.492-0.196-4.979-0.459-7.469-0.685c-2.488-0.218-4.981-0.49-7.477-0.775l-3.742-0.42l-0.936-0.109l-0.467-0.054
	c-0.119-0.016-0.238-0.037-0.354-0.065l-0.294-0.073c-0.715-0.199-1.407-0.475-2.063-0.82c-1.304-0.683-2.461-1.613-3.407-2.74
	c-0.922-1.126-1.636-2.407-2.106-3.784c-0.786-2.623-1.024-5.38-0.703-8.1c0.167-2.374,0.182-4.871,0.181-7.331
	c-0.026-4.945-0.207-9.905-0.487-14.857c-0.292-4.953-0.656-9.902-1.089-14.849c-0.437-4.944-1.013-9.875-1.614-14.803
	c-0.607-4.926-1.309-9.839-2.104-14.739c-0.82-4.894-1.692-9.779-2.681-14.642c-1.927-9.734-4.374-19.358-7.33-28.832
	c-1.47-4.738-3.104-9.42-4.832-14.071c-1.813-4.613-3.674-9.219-5.851-13.678c-1.023-2.262-2.219-4.436-3.334-6.655
	c-1.231-2.216-2.252-4.543-3.048-6.952c-0.76-2.422-1.232-4.925-1.407-7.459c-0.097-1.286,0.027-2.579,0.368-3.823
	c0.179-0.638,0.492-1.229,0.919-1.735c0.442-0.5,1.015-0.866,1.654-1.058c0.022-0.008,0.046-0.012,0.069-0.011
	c0.024,0.001,0.048,0.006,0.069,0.018c0.021,0.01,0.041,0.023,0.057,0.042c0.016,0.017,0.028,0.038,0.036,0.06
	c0.008,0.023,0.011,0.047,0.01,0.07c-0.001,0.024-0.007,0.048-0.017,0.069c-0.011,0.021-0.025,0.041-0.043,0.057
	c-0.018,0.016-0.039,0.028-0.061,0.036l-0.012,0.005c-0.547,0.215-1.029,0.569-1.4,1.025c-0.37,0.457-0.616,1.001-0.715,1.582
	c-0.241,1.186-0.287,2.403-0.136,3.604c0.29,2.439,0.864,4.835,1.712,7.14c0.885,2.292,1.985,4.497,3.284,6.582
	c1.248,2.173,2.51,4.343,3.632,6.586c4.627,8.911,8.551,18.167,11.735,27.688c6.308,19.058,10.747,38.684,13.253,58.601
	c1.267,9.944,2.2,19.932,2.642,29.951c0.222,5.012,0.343,10.025,0.308,15.058c-0.032,2.525-0.071,5.021-0.285,7.621
	c-0.067,0.691-0.076,1.183-0.119,1.78c-0.041,0.565-0.04,1.134,0.003,1.698c0.044,1.096,0.231,2.181,0.559,3.228
	c0.62,1.999,1.993,3.679,3.829,4.685c0.444,0.242,0.913,0.437,1.397,0.581l0.159,0.042c0.034,0.012,0.069,0.018,0.105,0.02
	l0.46,0.06l0.922,0.119l3.685,0.486c2.454,0.333,4.912,0.655,7.389,0.927c2.472,0.277,4.941,0.591,7.417,0.841
	c9.9,1.03,19.822,1.938,29.763,2.646c19.881,1.418,39.806,2.044,59.773,1.879c4.985-0.041,9.969-0.158,14.952-0.296l3.736-0.135
	c1.192,0,2.381-0.121,3.549-0.362c1.12-0.286,2.197-0.724,3.199-1.302c0.981-0.602,1.873-1.338,2.649-2.188
	c1.536-1.706,2.52-3.837,2.819-6.112c0.078-0.562,0.111-1.128,0.103-1.693c0-0.588-0.033-1.236-0.048-1.853l-0.114-3.74
	l-0.447-14.958c-0.246-9.974-0.416-19.949-0.511-29.925l-0.141-14.963l-0.071-14.965l-0.023-7.482l-0.002-0.925
	c-0.013-0.279-0.004-0.56-0.038-0.837c-0.042-0.558-0.128-1.11-0.257-1.655c-0.259-1.095-0.681-2.145-1.247-3.114
	c-0.576-0.973-1.292-1.854-2.125-2.618c-0.428-0.383-0.88-0.738-1.354-1.064l-1.507-1.046c-1.976-1.305-4.187-2.213-6.51-2.675
	c-1.174-0.23-2.364-0.351-3.559-0.358l-3.741-0.119l-7.482-0.262c-4.987-0.17-9.975-0.342-14.961-0.571
	c-0.047-0.003-0.091-0.022-0.122-0.057c-0.033-0.034-0.051-0.08-0.051-0.127s0.02-0.092,0.052-0.126
	C213.892,186.839,213.937,186.82,213.983,186.818L213.983,186.818z"/>
<path fill="#020202" d="M250.042,205.849l0.093,2.715c0.002,0.02-0.002,0.038-0.009,0.057c-0.006,0.019-0.017,0.035-0.029,0.049
	c-0.013,0.015-0.029,0.025-0.048,0.033c-0.017,0.01-0.036,0.013-0.056,0.014c-0.019,0.001-0.038-0.002-0.058-0.01
	c-0.017-0.006-0.034-0.017-0.047-0.029c-0.015-0.014-0.025-0.029-0.035-0.047c-0.007-0.018-0.012-0.037-0.013-0.057v-0.006
	l0.021-2.716c0-0.024,0.009-0.047,0.025-0.063c0.017-0.018,0.04-0.026,0.063-0.027c0.023,0,0.047,0.009,0.063,0.024
	C250.031,205.803,250.04,205.824,250.042,205.849z"/>
<path fill="#020202" d="M250.228,211.279l0.081,2.716c0.001,0.032-0.005,0.064-0.017,0.094c-0.011,0.03-0.027,0.059-0.049,0.083
	c-0.023,0.023-0.05,0.043-0.079,0.056s-0.061,0.021-0.094,0.021c-0.032,0.001-0.065-0.005-0.094-0.017
	c-0.03-0.011-0.059-0.029-0.083-0.051c-0.022-0.022-0.042-0.049-0.055-0.078s-0.02-0.062-0.021-0.095v-0.007l0.005-2.717
	c0-0.053,0.022-0.104,0.06-0.142c0.038-0.038,0.089-0.061,0.14-0.061c0.055,0,0.106,0.02,0.145,0.057
	S250.227,211.226,250.228,211.279z"/>
<path fill="#020202" d="M250.389,216.71l0.081,2.715c0.003,0.089-0.029,0.174-0.09,0.236c-0.061,0.065-0.145,0.103-0.232,0.105
	c-0.087,0.002-0.173-0.03-0.237-0.091c-0.063-0.061-0.101-0.144-0.104-0.23v-0.012l0.005-2.716c0-0.076,0.03-0.149,0.084-0.203
	c0.053-0.054,0.124-0.084,0.201-0.085c0.075-0.002,0.148,0.026,0.204,0.08C250.356,216.562,250.387,216.634,250.389,216.71z"/>
<path fill="#020202" d="M250.55,222.14l0.082,2.716c0.002,0.109-0.04,0.217-0.115,0.296c-0.076,0.08-0.181,0.128-0.291,0.131
	c-0.11,0.004-0.217-0.038-0.297-0.112c-0.082-0.075-0.129-0.18-0.134-0.29v-0.013l0.006-2.717c0-0.098,0.039-0.192,0.108-0.262
	c0.068-0.069,0.163-0.109,0.261-0.11c0.099-0.002,0.193,0.035,0.265,0.103C250.505,221.949,250.547,222.041,250.55,222.14
	L250.55,222.14z"/>
<path fill="#020202" d="M250.7,227.571l0.066,2.716c0.003,0.127-0.045,0.249-0.133,0.342c-0.088,0.091-0.207,0.144-0.334,0.148
	c-0.126,0.003-0.251-0.046-0.342-0.132c-0.092-0.088-0.145-0.209-0.148-0.335v-0.01l-0.01-2.717c0-0.118,0.047-0.232,0.129-0.317
	c0.084-0.085,0.197-0.133,0.316-0.135c0.118-0.002,0.231,0.044,0.317,0.126C250.648,227.34,250.698,227.452,250.7,227.571z"/>
<path fill="#020202" d="M250.831,233.002l0.065,2.716c0.004,0.142-0.05,0.277-0.147,0.381c-0.097,0.103-0.232,0.161-0.373,0.164
	c-0.142,0.004-0.279-0.049-0.381-0.146c-0.104-0.098-0.161-0.231-0.165-0.373v-0.011l-0.011-2.717c0-0.132,0.052-0.261,0.146-0.356
	s0.221-0.149,0.353-0.151c0.134-0.002,0.263,0.05,0.358,0.142C250.772,232.742,250.827,232.869,250.831,233.002z"/>
<path fill="#020202" d="M250.962,238.433l0.064,2.716c0.002,0.078-0.012,0.155-0.04,0.227c-0.027,0.071-0.069,0.138-0.122,0.193
	c-0.053,0.057-0.117,0.102-0.188,0.133s-0.146,0.048-0.225,0.05c-0.076,0.002-0.152-0.011-0.226-0.039
	c-0.072-0.028-0.138-0.069-0.193-0.123c-0.056-0.053-0.102-0.117-0.133-0.188c-0.031-0.071-0.048-0.147-0.05-0.225v-0.013
	l-0.011-2.716c0-0.147,0.059-0.29,0.162-0.395c0.103-0.105,0.244-0.166,0.392-0.168c0.148-0.002,0.291,0.054,0.396,0.157
	C250.896,238.145,250.957,238.285,250.962,238.433z"/>
<path fill="#020202" d="M251.092,243.865l0.064,2.715c0.003,0.085-0.013,0.169-0.042,0.248c-0.031,0.079-0.075,0.151-0.135,0.214
	c-0.058,0.061-0.128,0.11-0.206,0.146c-0.076,0.032-0.16,0.052-0.245,0.055c-0.085,0.002-0.169-0.013-0.247-0.044
	c-0.08-0.03-0.151-0.076-0.213-0.136c-0.062-0.058-0.11-0.128-0.146-0.205c-0.032-0.078-0.052-0.161-0.054-0.246v-0.014l-0.01-2.715
	c0-0.163,0.063-0.319,0.176-0.435c0.114-0.116,0.27-0.183,0.432-0.185c0.163-0.003,0.318,0.059,0.436,0.172
	C251.02,243.547,251.088,243.701,251.092,243.865L251.092,243.865z"/>
<path fill="#020202" d="M251.223,249.296l0.052,2.715c0.003,0.182-0.066,0.357-0.192,0.488c-0.127,0.131-0.298,0.206-0.481,0.21
	c-0.182,0.003-0.355-0.064-0.488-0.191c-0.131-0.126-0.207-0.299-0.211-0.48v-0.007l-0.023-2.717
	c-0.001-0.177,0.068-0.349,0.192-0.476c0.124-0.126,0.293-0.199,0.471-0.202c0.177-0.002,0.349,0.065,0.477,0.189
	C251.146,248.948,251.219,249.117,251.223,249.296L251.223,249.296z"/>
<path fill="#020202" d="M251.322,254.728l0.05,2.715c0.002,0.188-0.069,0.369-0.199,0.504c-0.131,0.135-0.309,0.212-0.497,0.215
	c-0.188,0.004-0.369-0.067-0.504-0.197c-0.136-0.13-0.214-0.309-0.218-0.496v-0.006l-0.025-2.717
	c-0.002-0.184,0.069-0.361,0.199-0.492c0.128-0.133,0.303-0.208,0.487-0.211c0.185-0.002,0.362,0.068,0.495,0.196
	C251.242,254.367,251.319,254.543,251.322,254.728z"/>
<path fill="#020202" d="M251.42,260.158l0.049,2.716c0.004,0.193-0.07,0.382-0.204,0.521c-0.136,0.14-0.32,0.221-0.514,0.224
	c-0.194,0.003-0.382-0.07-0.521-0.204c-0.14-0.136-0.22-0.319-0.224-0.514v-0.007l-0.027-2.715
	c-0.002-0.191,0.073-0.375,0.206-0.511c0.132-0.137,0.314-0.216,0.505-0.219c0.191-0.001,0.375,0.071,0.512,0.204
	C251.339,259.787,251.418,259.968,251.42,260.158z"/>
<path fill="#020202" d="M251.518,265.59l0.048,2.716c0.004,0.2-0.071,0.393-0.21,0.536c-0.139,0.145-0.329,0.228-0.529,0.23
	c-0.199,0.003-0.392-0.072-0.536-0.211c-0.144-0.139-0.227-0.329-0.229-0.528v-0.007l-0.027-2.716
	c-0.002-0.196,0.073-0.386,0.212-0.526c0.137-0.141,0.323-0.221,0.521-0.224c0.196-0.003,0.386,0.073,0.526,0.209
	C251.434,265.206,251.515,265.394,251.518,265.59z"/>
<path fill="#020202" d="M251.615,271.022l0.049,2.717c0.002,0.101-0.016,0.202-0.055,0.297c-0.036,0.096-0.092,0.182-0.162,0.256
	c-0.071,0.072-0.155,0.131-0.25,0.171c-0.094,0.041-0.193,0.063-0.295,0.065c-0.103,0.002-0.203-0.016-0.298-0.053
	c-0.095-0.038-0.182-0.095-0.256-0.165c-0.073-0.07-0.132-0.155-0.172-0.248c-0.042-0.094-0.063-0.195-0.064-0.297v-0.006
	l-0.026-2.716c-0.002-0.203,0.076-0.397,0.218-0.541c0.142-0.146,0.334-0.228,0.537-0.23c0.201-0.003,0.396,0.075,0.542,0.215
	C251.527,270.627,251.611,270.82,251.615,271.022z"/>
<path fill="#020202" d="M251.713,276.453l0.049,2.715c0.001,0.106-0.017,0.21-0.056,0.309c-0.038,0.097-0.095,0.187-0.168,0.263
	s-0.16,0.136-0.257,0.178c-0.096,0.042-0.199,0.064-0.304,0.066c-0.106,0.003-0.209-0.018-0.308-0.056
	c-0.098-0.038-0.188-0.095-0.263-0.168c-0.075-0.074-0.136-0.161-0.177-0.257c-0.042-0.097-0.064-0.201-0.066-0.306v-0.006
	l-0.027-2.717c-0.002-0.208,0.079-0.41,0.225-0.558c0.146-0.149,0.346-0.234,0.552-0.238c0.21-0.003,0.41,0.077,0.561,0.223
	C251.623,276.047,251.709,276.245,251.713,276.453z"/>
<path fill="#020202" d="M251.811,281.885l0.033,2.736c0.002,0.105-0.018,0.211-0.058,0.31c-0.039,0.099-0.098,0.189-0.173,0.265
	c-0.073,0.077-0.162,0.138-0.26,0.179c-0.097,0.042-0.202,0.064-0.309,0.065c-0.105,0.002-0.212-0.019-0.311-0.058
	c-0.099-0.04-0.189-0.098-0.265-0.172c-0.075-0.075-0.138-0.162-0.18-0.261c-0.042-0.098-0.063-0.202-0.064-0.31l-0.001-0.037
	l-0.034-2.696c-0.001-0.104,0.018-0.211,0.056-0.311c0.041-0.099,0.1-0.189,0.173-0.266c0.074-0.076,0.162-0.137,0.261-0.179
	c0.097-0.042,0.202-0.065,0.309-0.067c0.106-0.001,0.212,0.019,0.311,0.058s0.188,0.097,0.266,0.172
	c0.076,0.074,0.138,0.162,0.18,0.261c0.042,0.097,0.064,0.201,0.066,0.309V281.885z"/>
<path fill="#020202" d="M251.451,287.503c-0.25,0.939-0.614,1.845-1.086,2.695c-0.101,0.185-0.271,0.32-0.472,0.38
	c-0.202,0.058-0.418,0.034-0.603-0.067s-0.32-0.271-0.379-0.473c-0.058-0.201-0.034-0.419,0.066-0.603
	c0.403-0.738,0.713-1.523,0.923-2.338c0.025-0.102,0.073-0.197,0.135-0.281c0.064-0.084,0.143-0.154,0.233-0.208
	c0.09-0.055,0.19-0.088,0.295-0.104c0.104-0.015,0.21-0.009,0.311,0.019c0.103,0.025,0.197,0.071,0.282,0.134
	c0.084,0.064,0.155,0.143,0.208,0.233c0.055,0.09,0.089,0.19,0.104,0.295c0.015,0.104,0.01,0.21-0.017,0.313L251.451,287.503z"/>
<path fill="#020202" d="M248.658,292.547c-0.663,0.708-1.408,1.334-2.224,1.86c-0.172,0.111-0.381,0.151-0.581,0.108
	c-0.201-0.042-0.376-0.164-0.487-0.335c-0.111-0.172-0.152-0.381-0.11-0.582c0.043-0.2,0.163-0.374,0.335-0.486
	c0.704-0.464,1.351-1.011,1.92-1.63c0.142-0.153,0.338-0.242,0.545-0.251c0.206-0.008,0.407,0.066,0.56,0.207
	c0.153,0.14,0.243,0.335,0.252,0.543c0.009,0.206-0.064,0.408-0.205,0.561L248.658,292.547z"/>
<path fill="#020202" d="M243.824,295.67c-0.919,0.311-1.873,0.508-2.839,0.585c-0.2,0.017-0.397-0.047-0.551-0.177
	c-0.153-0.129-0.249-0.313-0.266-0.513s0.047-0.397,0.176-0.551c0.131-0.152,0.314-0.248,0.514-0.265
	c0.842-0.073,1.672-0.25,2.471-0.526c0.095-0.032,0.196-0.046,0.296-0.041c0.1,0.007,0.199,0.032,0.288,0.076
	c0.092,0.044,0.172,0.104,0.237,0.18c0.068,0.075,0.118,0.163,0.152,0.257c0.032,0.096,0.045,0.195,0.04,0.296
	c-0.006,0.1-0.031,0.198-0.075,0.289c-0.044,0.09-0.105,0.171-0.181,0.237s-0.163,0.118-0.257,0.15L243.824,295.67z"/>
<path fill="#020202" d="M238.225,296.325l-2.715,0.021c-0.19,0.002-0.372-0.072-0.508-0.206c-0.136-0.132-0.213-0.313-0.216-0.502
	c-0.004-0.188,0.067-0.372,0.2-0.509c0.131-0.137,0.311-0.216,0.5-0.221l2.711-0.075c0.197-0.005,0.39,0.068,0.534,0.203
	s0.229,0.322,0.233,0.52c0.008,0.197-0.065,0.391-0.201,0.535c-0.137,0.144-0.323,0.228-0.521,0.233L238.225,296.325z"/>
<path fill="#020202" d="M232.795,296.357l-2.717,0.004c-0.174,0-0.342-0.069-0.466-0.191s-0.194-0.289-0.196-0.464
	c-0.002-0.174,0.065-0.343,0.188-0.468c0.12-0.124,0.286-0.196,0.46-0.2l2.713-0.061c0.091-0.004,0.181,0.013,0.266,0.046
	c0.085,0.031,0.162,0.081,0.229,0.143c0.064,0.063,0.119,0.138,0.155,0.221s0.058,0.172,0.06,0.264
	c0.002,0.09-0.014,0.18-0.046,0.266c-0.033,0.084-0.082,0.162-0.145,0.227c-0.063,0.065-0.138,0.119-0.221,0.155
	c-0.082,0.037-0.172,0.058-0.264,0.06H232.795z"/>
<path fill="#020202" d="M227.365,296.356l-2.717-0.011c-0.16-0.001-0.312-0.064-0.424-0.178c-0.113-0.112-0.176-0.265-0.176-0.424
	c-0.002-0.159,0.06-0.313,0.171-0.427c0.112-0.113,0.264-0.178,0.423-0.18l2.713-0.047c0.166-0.003,0.329,0.062,0.45,0.178
	c0.12,0.115,0.189,0.275,0.193,0.442c0.003,0.169-0.062,0.33-0.178,0.451c-0.114,0.121-0.274,0.19-0.441,0.194H227.365z"/>
<path fill="#020202" d="M221.933,296.325l-2.718-0.026c-0.144-0.001-0.281-0.06-0.382-0.162c-0.101-0.102-0.158-0.24-0.158-0.385
	c0-0.143,0.058-0.282,0.158-0.383c0.103-0.103,0.24-0.161,0.384-0.163l2.713-0.031c0.077-0.002,0.152,0.011,0.223,0.039
	c0.07,0.027,0.137,0.068,0.191,0.122c0.055,0.052,0.099,0.115,0.129,0.185c0.031,0.07,0.046,0.146,0.047,0.221
	c0.001,0.077-0.013,0.152-0.041,0.224c-0.027,0.07-0.069,0.134-0.123,0.188c-0.054,0.054-0.117,0.097-0.188,0.127
	c-0.069,0.03-0.146,0.045-0.221,0.045H221.933z"/>
<path fill="#020202" d="M216.502,296.265l-2.715-0.042c-0.129-0.002-0.251-0.054-0.341-0.145c-0.09-0.093-0.14-0.216-0.139-0.344
	c0-0.128,0.052-0.252,0.143-0.342c0.091-0.091,0.214-0.142,0.342-0.143l2.713-0.019c0.068-0.001,0.136,0.012,0.198,0.038
	c0.063,0.025,0.12,0.063,0.17,0.11c0.047,0.047,0.086,0.104,0.113,0.166c0.026,0.063,0.04,0.13,0.042,0.197
	c0,0.068-0.013,0.136-0.038,0.198c-0.026,0.063-0.064,0.121-0.112,0.17c-0.047,0.048-0.103,0.087-0.166,0.113
	c-0.062,0.025-0.13,0.04-0.197,0.04H216.502z"/>
<path fill="#020202" d="M211.07,296.175l-2.716-0.056c-0.112-0.003-0.219-0.051-0.297-0.132c-0.078-0.08-0.12-0.188-0.119-0.301
	s0.047-0.219,0.127-0.299c0.079-0.079,0.187-0.123,0.298-0.124l2.715-0.003c0.121-0.001,0.238,0.047,0.324,0.132
	c0.086,0.086,0.135,0.202,0.135,0.322c0.001,0.122-0.047,0.239-0.133,0.325c-0.085,0.086-0.201,0.135-0.322,0.135H211.07z"/>
<path fill="#020202" d="M205.639,296.055l-2.713-0.071c-0.098-0.003-0.189-0.043-0.256-0.113c-0.067-0.069-0.104-0.163-0.103-0.26
	c0.001-0.098,0.042-0.189,0.11-0.258c0.069-0.068,0.163-0.105,0.261-0.105l2.711,0.013c0.105,0,0.206,0.042,0.281,0.117
	c0.075,0.074,0.116,0.176,0.116,0.281s-0.042,0.206-0.117,0.28c-0.074,0.075-0.176,0.116-0.281,0.116H205.639z"/>
<path fill="#020202" d="M200.212,295.92l-2.714-0.068c-0.09-0.003-0.176-0.041-0.238-0.106c-0.062-0.064-0.095-0.152-0.093-0.242
	s0.04-0.175,0.104-0.237c0.064-0.063,0.152-0.097,0.241-0.096l2.713,0.045c0.046,0.001,0.091,0.011,0.134,0.028
	c0.042,0.019,0.081,0.044,0.113,0.078c0.032,0.033,0.058,0.072,0.075,0.115c0.017,0.043,0.025,0.089,0.024,0.136
	c0,0.046-0.011,0.092-0.028,0.135c-0.019,0.042-0.045,0.08-0.079,0.113c-0.033,0.031-0.072,0.058-0.115,0.074
	c-0.043,0.018-0.089,0.026-0.136,0.025H200.212z"/>
<path fill="#020202" d="M194.783,295.776l-2.715-0.084c-0.084-0.003-0.164-0.039-0.221-0.1c-0.058-0.062-0.089-0.143-0.087-0.227
	c0.002-0.084,0.038-0.164,0.099-0.222s0.143-0.088,0.227-0.086l2.713,0.06c0.044,0.001,0.086,0.011,0.126,0.027
	c0.04,0.017,0.076,0.042,0.105,0.073c0.03,0.032,0.054,0.067,0.069,0.108s0.023,0.084,0.022,0.127c0,0.044-0.009,0.086-0.027,0.126
	c-0.017,0.039-0.042,0.074-0.074,0.104c-0.031,0.029-0.068,0.054-0.108,0.068c-0.04,0.017-0.083,0.024-0.126,0.023H194.783z"/>
<path fill="#020202" d="M189.353,295.599l-2.715-0.1c-0.078-0.002-0.151-0.036-0.205-0.093c-0.052-0.058-0.081-0.134-0.079-0.211
	c0.003-0.078,0.037-0.152,0.094-0.204c0.056-0.053,0.132-0.081,0.21-0.079l2.713,0.076c0.04,0.001,0.079,0.011,0.117,0.026
	c0.037,0.016,0.07,0.039,0.097,0.068c0.028,0.029,0.049,0.063,0.064,0.102c0.014,0.037,0.021,0.077,0.021,0.117
	c-0.001,0.04-0.01,0.08-0.027,0.116c-0.016,0.037-0.039,0.07-0.068,0.097c-0.029,0.028-0.063,0.051-0.101,0.064
	c-0.038,0.015-0.078,0.021-0.118,0.02H189.353z"/>
<path fill="#020202" d="M183.923,295.39l-2.71-0.113c-0.072-0.003-0.14-0.034-0.19-0.088c-0.049-0.053-0.075-0.123-0.072-0.196
	c0.003-0.072,0.034-0.141,0.087-0.189c0.054-0.049,0.124-0.074,0.197-0.071l2.709,0.097c0.075,0.002,0.146,0.033,0.197,0.088
	c0.05,0.055,0.079,0.127,0.076,0.201c-0.003,0.075-0.035,0.146-0.089,0.196c-0.054,0.052-0.127,0.079-0.202,0.077L183.923,295.39z"
	/>
<path fill="#020202" d="M178.5,295.171l-2.712-0.113c-0.039-0.001-0.076-0.012-0.11-0.027s-0.065-0.038-0.092-0.066
	c-0.025-0.028-0.046-0.062-0.059-0.097c-0.013-0.036-0.019-0.074-0.017-0.112c0.001-0.038,0.01-0.075,0.026-0.109
	c0.016-0.035,0.039-0.066,0.067-0.092c0.028-0.026,0.061-0.047,0.096-0.06c0.036-0.013,0.074-0.018,0.113-0.018l0.002,0.001
	l2.709,0.131c0.075,0.003,0.145,0.036,0.195,0.091c0.051,0.056,0.077,0.129,0.074,0.203c-0.003,0.075-0.036,0.145-0.091,0.196
	C178.648,295.149,178.576,295.175,178.5,295.171z"/>
<path fill="#020202" d="M173.076,294.934l-2.713-0.131c-0.082-0.005-0.158-0.042-0.213-0.102c-0.054-0.061-0.083-0.141-0.079-0.222
	c0.004-0.081,0.04-0.158,0.101-0.214c0.061-0.054,0.14-0.083,0.222-0.079h0.002l2.71,0.149c0.079,0.005,0.153,0.041,0.206,0.1
	c0.053,0.058,0.08,0.136,0.077,0.215c-0.004,0.079-0.04,0.153-0.097,0.207C173.232,294.91,173.154,294.939,173.076,294.934
	L173.076,294.934z"/>
<path fill="#020202" d="M167.649,294.66l-2.713-0.151c-0.043-0.004-0.084-0.014-0.123-0.032c-0.039-0.019-0.073-0.043-0.102-0.075
	c-0.028-0.033-0.05-0.069-0.064-0.109c-0.014-0.042-0.02-0.084-0.018-0.127c0.002-0.042,0.014-0.084,0.032-0.122
	c0.019-0.038,0.045-0.073,0.077-0.103c0.032-0.028,0.069-0.05,0.109-0.064c0.04-0.014,0.083-0.02,0.125-0.018h0.003l2.709,0.169
	c0.084,0.006,0.162,0.044,0.217,0.106c0.055,0.062,0.084,0.145,0.079,0.229s-0.042,0.161-0.105,0.217
	C167.814,294.636,167.732,294.665,167.649,294.66L167.649,294.66z"/>
<path fill="#020202" d="M162.224,294.347l-2.712-0.165c-0.093-0.005-0.18-0.047-0.241-0.117c-0.062-0.07-0.093-0.16-0.088-0.253
	c0.006-0.093,0.048-0.18,0.117-0.242c0.07-0.061,0.161-0.093,0.254-0.087l0.005,0.001l2.708,0.196
	c0.044,0.003,0.087,0.015,0.126,0.033c0.04,0.021,0.075,0.047,0.104,0.08c0.029,0.032,0.051,0.071,0.065,0.112
	c0.014,0.042,0.02,0.086,0.017,0.13c-0.003,0.043-0.014,0.086-0.033,0.126c-0.02,0.039-0.047,0.074-0.08,0.103
	c-0.033,0.029-0.071,0.053-0.113,0.066S162.268,294.349,162.224,294.347L162.224,294.347z"/>
<path fill="#020202" d="M156.802,294.016l-2.714-0.179c-0.052-0.004-0.104-0.018-0.15-0.041c-0.047-0.022-0.088-0.056-0.124-0.095
	c-0.069-0.079-0.104-0.184-0.098-0.288c0.007-0.105,0.055-0.204,0.135-0.274c0.08-0.068,0.184-0.104,0.289-0.097h0.009l2.708,0.227
	c0.099,0.007,0.19,0.054,0.254,0.129c0.064,0.074,0.097,0.172,0.09,0.271c-0.007,0.1-0.053,0.191-0.128,0.256
	S156.901,294.023,156.802,294.016z"/>
<path fill="#020202" d="M151.376,293.647l-2.71-0.202c-0.059-0.003-0.116-0.019-0.168-0.046c-0.053-0.026-0.1-0.063-0.138-0.106
	c-0.039-0.045-0.068-0.096-0.086-0.152c-0.019-0.055-0.026-0.114-0.021-0.173s0.02-0.115,0.046-0.167
	c0.027-0.054,0.063-0.1,0.107-0.138c0.045-0.039,0.097-0.068,0.153-0.086c0.056-0.019,0.115-0.026,0.173-0.021l0.009,0.001
	l2.703,0.249c0.111,0.01,0.214,0.063,0.286,0.148c0.072,0.085,0.107,0.195,0.098,0.306c-0.009,0.112-0.062,0.215-0.146,0.288
	C151.598,293.619,151.488,293.656,151.376,293.647z"/>
<path fill="#020202" d="M145.956,293.232l-2.709-0.226c-0.13-0.011-0.251-0.074-0.335-0.173c-0.084-0.101-0.126-0.229-0.115-0.36
	s0.073-0.251,0.173-0.336s0.229-0.127,0.36-0.115l0.011,0.001l2.7,0.272c0.124,0.012,0.238,0.072,0.317,0.168
	s0.118,0.219,0.106,0.343c-0.011,0.124-0.07,0.238-0.166,0.317C146.203,293.203,146.08,293.242,145.956,293.232z"/>
<path fill="#020202" d="M140.539,292.771l-2.708-0.249c-0.145-0.014-0.279-0.084-0.372-0.195c-0.093-0.111-0.138-0.257-0.125-0.401
	c0.013-0.144,0.083-0.278,0.195-0.371c0.112-0.094,0.256-0.139,0.401-0.125l0.014,0.002l2.697,0.302
	c0.137,0.016,0.262,0.083,0.349,0.19c0.086,0.106,0.127,0.243,0.114,0.38c-0.014,0.136-0.081,0.263-0.187,0.351
	C140.812,292.74,140.675,292.782,140.539,292.771z"/>
<path fill="#020202" d="M135.124,292.26l-2.705-0.277c-0.159-0.017-0.306-0.096-0.407-0.22c-0.101-0.124-0.149-0.283-0.132-0.442
	s0.095-0.306,0.219-0.407c0.125-0.101,0.283-0.149,0.443-0.132l0.016,0.002l2.693,0.33c0.15,0.018,0.289,0.095,0.383,0.214
	c0.094,0.119,0.138,0.271,0.122,0.422c-0.017,0.151-0.092,0.289-0.21,0.386C135.427,292.23,135.275,292.275,135.124,292.26
	L135.124,292.26z"/>
<path fill="#020202" d="M129.715,291.691l-2.707-0.309c-0.085-0.01-0.169-0.036-0.246-0.078c-0.076-0.042-0.143-0.098-0.197-0.165
	c-0.054-0.068-0.094-0.146-0.118-0.229s-0.031-0.17-0.021-0.256c0.01-0.087,0.036-0.17,0.079-0.246s0.099-0.142,0.167-0.196
	c0.068-0.054,0.146-0.094,0.229-0.117s0.171-0.031,0.257-0.021l0.017,0.002l2.692,0.361c0.166,0.022,0.316,0.107,0.418,0.239
	c0.103,0.131,0.148,0.298,0.128,0.463s-0.104,0.316-0.235,0.42C130.046,291.661,129.88,291.71,129.715,291.691z"/>
<path fill="#020202" d="M124.197,290.901c-0.927-0.327-1.795-0.805-2.569-1.409c-0.147-0.115-0.242-0.282-0.265-0.467
	s0.028-0.371,0.143-0.517c0.114-0.147,0.282-0.243,0.466-0.266c0.185-0.023,0.371,0.027,0.518,0.142l0.009,0.009
	c0.648,0.521,1.377,0.934,2.158,1.222c0.17,0.062,0.309,0.187,0.385,0.351c0.077,0.163,0.086,0.351,0.026,0.52
	c-0.061,0.171-0.187,0.31-0.349,0.388C124.554,290.949,124.367,290.96,124.197,290.901L124.197,290.901z"/>
<path fill="#020202" d="M119.641,287.333c-0.533-0.817-0.947-1.705-1.23-2.639c-0.028-0.094-0.038-0.19-0.029-0.287
	c0.009-0.096,0.037-0.189,0.082-0.276c0.045-0.085,0.107-0.16,0.182-0.222c0.075-0.063,0.161-0.108,0.253-0.138
	c0.092-0.028,0.189-0.039,0.286-0.029c0.097,0.01,0.19,0.037,0.276,0.082c0.085,0.046,0.162,0.106,0.223,0.182
	s0.108,0.161,0.137,0.253l0.002,0.011c0.231,0.804,0.576,1.572,1.023,2.279c0.103,0.159,0.139,0.354,0.098,0.54
	c-0.039,0.186-0.151,0.348-0.311,0.452c-0.159,0.103-0.353,0.14-0.539,0.101S119.745,287.492,119.641,287.333z"/>
<path fill="#020202" d="M117.883,281.872c-0.073-0.943-0.073-1.891,0-2.833c0.016-0.204,0.113-0.393,0.268-0.525
	s0.356-0.198,0.56-0.184c0.203,0.015,0.393,0.109,0.527,0.264c0.134,0.153,0.201,0.354,0.188,0.559l-0.001,0.011
	c-0.078,0.862-0.09,1.729-0.035,2.594c0.014,0.199-0.051,0.396-0.182,0.547c-0.13,0.151-0.315,0.245-0.514,0.26
	c-0.199,0.015-0.396-0.05-0.548-0.179C117.994,282.255,117.899,282.071,117.883,281.872L117.883,281.872z"/>
<path fill="#020202" d="M118.05,276.362l0.057-2.69v-0.019c0.005-0.214,0.095-0.418,0.25-0.566s0.363-0.229,0.577-0.225
	c0.214,0.004,0.418,0.095,0.567,0.249c0.148,0.155,0.229,0.361,0.225,0.575v0.012l-0.094,2.732c-0.008,0.207-0.098,0.404-0.25,0.547
	c-0.152,0.143-0.354,0.22-0.563,0.214s-0.406-0.093-0.55-0.244c-0.144-0.15-0.223-0.353-0.22-0.561L118.05,276.362z"/>
<path fill="#020202" d="M118.112,270.973l-0.032-2.702v-0.011c-0.001-0.109,0.019-0.218,0.06-0.319
	c0.041-0.102,0.101-0.193,0.177-0.271c0.076-0.079,0.167-0.141,0.268-0.184s0.208-0.066,0.318-0.067s0.218,0.019,0.319,0.06
	c0.102,0.04,0.194,0.102,0.272,0.178s0.141,0.167,0.184,0.268s0.065,0.208,0.067,0.317v0.007l0.011,2.725
	c0.001,0.217-0.084,0.427-0.237,0.581c-0.153,0.155-0.361,0.242-0.579,0.244s-0.427-0.083-0.582-0.234
	c-0.155-0.152-0.244-0.36-0.247-0.578V270.973z"/>
<path fill="#020202" d="M118.016,265.568l-0.093-2.702l0-0.008c-0.008-0.226,0.075-0.445,0.229-0.611
	c0.154-0.165,0.368-0.263,0.594-0.271c0.226-0.007,0.446,0.075,0.611,0.229c0.166,0.153,0.263,0.367,0.271,0.594v0.007l0.073,2.719
	c0.005,0.223-0.077,0.438-0.23,0.601c-0.153,0.162-0.364,0.257-0.587,0.264c-0.223,0.006-0.438-0.075-0.602-0.228
	c-0.163-0.151-0.258-0.362-0.267-0.585L118.016,265.568z"/>
<path fill="#020202" d="M117.804,260.161l-0.144-2.699v-0.008c-0.006-0.115,0.01-0.23,0.048-0.338
	c0.038-0.108,0.098-0.208,0.174-0.293s0.169-0.155,0.273-0.206c0.104-0.049,0.216-0.077,0.331-0.084
	c0.114-0.005,0.229,0.012,0.337,0.05s0.208,0.098,0.293,0.174c0.085,0.077,0.155,0.169,0.204,0.273s0.078,0.217,0.084,0.332l0,0.006
	l0.123,2.717c0.011,0.229-0.07,0.452-0.224,0.621c-0.153,0.17-0.368,0.271-0.597,0.282c-0.228,0.011-0.452-0.068-0.622-0.222
	c-0.169-0.154-0.271-0.368-0.283-0.596L117.804,260.161z"/>
<path fill="#020202" d="M117.495,254.761l-0.188-2.7l-0.001-0.009c-0.016-0.236,0.063-0.47,0.219-0.647
	c0.155-0.179,0.376-0.289,0.612-0.305c0.237-0.017,0.47,0.061,0.649,0.216c0.179,0.155,0.289,0.376,0.306,0.612l0.001,0.007
	l0.168,2.717c0.014,0.233-0.063,0.463-0.218,0.639s-0.373,0.284-0.606,0.299c-0.233,0.016-0.464-0.063-0.64-0.216
	s-0.284-0.372-0.3-0.604L117.495,254.761z"/>
<path fill="#020202" d="M117.097,249.363l-0.23-2.696l-0.001-0.006c-0.01-0.12,0.003-0.24,0.04-0.355
	c0.036-0.114,0.095-0.222,0.172-0.313c0.156-0.186,0.38-0.302,0.622-0.322c0.242-0.021,0.482,0.056,0.668,0.212
	c0.186,0.156,0.301,0.38,0.322,0.622l0.001,0.006l0.211,2.713c0.02,0.238-0.057,0.475-0.213,0.658
	c-0.155,0.182-0.376,0.295-0.615,0.314c-0.238,0.02-0.475-0.057-0.658-0.211c-0.183-0.155-0.297-0.375-0.317-0.614L117.097,249.363z
	"/>
<path fill="#020202" d="M116.613,243.971l-0.272-2.693l0-0.007c-0.013-0.122-0.001-0.247,0.035-0.364
	c0.035-0.117,0.093-0.227,0.171-0.322c0.078-0.095,0.173-0.174,0.282-0.232c0.108-0.058,0.227-0.095,0.349-0.107
	c0.123-0.012,0.246-0.001,0.364,0.035c0.118,0.035,0.227,0.094,0.323,0.172c0.095,0.077,0.174,0.173,0.232,0.281
	c0.058,0.108,0.095,0.228,0.107,0.349l0,0.008l0.254,2.71c0.023,0.244-0.052,0.486-0.208,0.676c-0.156,0.189-0.38,0.309-0.624,0.331
	c-0.243,0.025-0.487-0.049-0.676-0.204c-0.19-0.155-0.31-0.379-0.334-0.623L116.613,243.971z"/>
<path fill="#020202" d="M116.047,238.585l-0.314-2.686l-0.001-0.008c-0.029-0.252,0.042-0.505,0.2-0.704
	c0.157-0.198,0.388-0.328,0.639-0.356c0.252-0.03,0.506,0.042,0.705,0.199c0.199,0.158,0.327,0.388,0.357,0.64l0,0.007l0.295,2.704
	c0.028,0.248-0.045,0.497-0.201,0.692c-0.157,0.196-0.384,0.322-0.633,0.35c-0.249,0.028-0.499-0.044-0.695-0.199
	s-0.322-0.383-0.352-0.631L116.047,238.585z"/>
<path fill="#020202" d="M115.405,233.213l-0.341-2.685l-0.001-0.007c-0.033-0.251,0.037-0.506,0.191-0.706
	c0.155-0.201,0.383-0.333,0.635-0.364c0.251-0.032,0.505,0.035,0.707,0.19c0.2,0.155,0.332,0.384,0.364,0.636l0.352,2.698
	c0.017,0.125,0.009,0.253-0.023,0.376c-0.033,0.122-0.088,0.237-0.166,0.337c-0.077,0.102-0.173,0.186-0.283,0.249
	c-0.109,0.063-0.23,0.104-0.356,0.12s-0.253,0.008-0.375-0.025s-0.236-0.09-0.336-0.168c-0.1-0.077-0.184-0.174-0.247-0.284
	c-0.063-0.109-0.103-0.23-0.119-0.356l0-0.003L115.405,233.213z"/>
<path fill="#020202" d="M114.702,227.846l-0.384-2.68l-0.001-0.008c-0.036-0.249,0.028-0.501,0.179-0.704
	c0.15-0.201,0.375-0.334,0.624-0.37s0.502,0.028,0.704,0.179c0.201,0.15,0.334,0.375,0.37,0.624l0.395,2.694
	c0.018,0.123,0.012,0.249-0.019,0.37c-0.031,0.121-0.085,0.235-0.16,0.336c-0.074,0.101-0.168,0.185-0.275,0.248
	c-0.107,0.065-0.227,0.107-0.35,0.125c-0.124,0.019-0.25,0.013-0.371-0.019c-0.122-0.031-0.235-0.084-0.336-0.159
	c-0.1-0.075-0.185-0.169-0.249-0.276c-0.064-0.107-0.106-0.227-0.124-0.35l0-0.003L114.702,227.846z"/>
<path fill="#020202" d="M113.911,222.489l-0.427-2.674l-0.001-0.008c-0.039-0.246,0.022-0.497,0.167-0.698
	c0.146-0.201,0.366-0.335,0.611-0.375c0.245-0.039,0.497,0.019,0.698,0.164c0.202,0.146,0.338,0.364,0.379,0.609l0.438,2.688
	c0.02,0.123,0.016,0.247-0.013,0.368c-0.028,0.12-0.081,0.234-0.152,0.335c-0.073,0.101-0.164,0.186-0.27,0.251
	c-0.106,0.066-0.223,0.109-0.345,0.129c-0.123,0.021-0.248,0.017-0.368-0.013c-0.121-0.028-0.235-0.079-0.335-0.152
	c-0.1-0.072-0.186-0.164-0.251-0.27s-0.109-0.223-0.129-0.346l0-0.002L113.911,222.489z"/>
<path fill="#020202" d="M113.034,217.145l-0.472-2.662l-0.001-0.01c-0.043-0.242,0.012-0.492,0.153-0.695
	c0.142-0.202,0.357-0.34,0.601-0.384c0.243-0.043,0.493,0.012,0.696,0.153c0.203,0.141,0.341,0.356,0.385,0.599l0.483,2.678
	c0.044,0.243-0.011,0.495-0.153,0.699c-0.142,0.203-0.358,0.342-0.603,0.386c-0.244,0.045-0.496-0.01-0.7-0.15
	c-0.204-0.143-0.343-0.359-0.388-0.604l0-0.003L113.034,217.145z"/>
<path fill="#020202" d="M112.066,211.822l-0.519-2.655l-0.001-0.008c-0.047-0.24,0.003-0.49,0.14-0.693
	c0.137-0.203,0.348-0.345,0.588-0.391c0.24-0.048,0.49,0.003,0.693,0.139c0.203,0.136,0.344,0.348,0.392,0.588l0.53,2.67
	c0.024,0.12,0.023,0.244,0,0.363c-0.023,0.119-0.071,0.233-0.138,0.334c-0.068,0.102-0.155,0.188-0.256,0.257
	c-0.102,0.066-0.215,0.114-0.335,0.138s-0.243,0.023-0.362,0c-0.12-0.023-0.233-0.071-0.334-0.139
	c-0.102-0.067-0.188-0.154-0.256-0.257c-0.068-0.101-0.115-0.215-0.139-0.333l-0.001-0.003L112.066,211.822z"/>
<path fill="#020202" d="M111.005,206.515l-0.568-2.647l-0.001-0.008c-0.051-0.237-0.005-0.484,0.127-0.688
	c0.131-0.203,0.338-0.347,0.576-0.397c0.237-0.052,0.484-0.007,0.688,0.124c0.204,0.132,0.348,0.338,0.4,0.574l0.579,2.663
	c0.026,0.117,0.028,0.24,0.006,0.358c-0.021,0.12-0.066,0.233-0.131,0.335c-0.065,0.101-0.15,0.188-0.25,0.258
	s-0.211,0.117-0.329,0.143c-0.118,0.026-0.24,0.028-0.359,0.008c-0.119-0.022-0.232-0.066-0.334-0.133
	c-0.101-0.064-0.189-0.149-0.258-0.248c-0.069-0.1-0.118-0.212-0.144-0.33l0-0.003L111.005,206.515z"/>
<path fill="#020202" d="M109.844,201.228l-0.618-2.636l-0.002-0.01c-0.055-0.233-0.014-0.48,0.112-0.685s0.33-0.351,0.563-0.405
	c0.234-0.057,0.481-0.017,0.686,0.11c0.205,0.126,0.351,0.328,0.407,0.563l0.631,2.65c0.055,0.235,0.016,0.483-0.111,0.689
	c-0.127,0.205-0.33,0.353-0.565,0.407c-0.235,0.057-0.483,0.018-0.688-0.11c-0.206-0.126-0.354-0.329-0.41-0.563l0-0.003
	L109.844,201.228z"/>
<path fill="#020202" d="M108.584,195.961l-0.658-2.625l-0.002-0.009c-0.057-0.226-0.021-0.465,0.097-0.665s0.312-0.346,0.538-0.404
	c0.226-0.057,0.465-0.023,0.666,0.095c0.201,0.117,0.347,0.31,0.407,0.535l0.699,2.633c0.061,0.23,0.028,0.477-0.092,0.683
	c-0.12,0.207-0.317,0.356-0.547,0.417c-0.231,0.062-0.477,0.029-0.683-0.091c-0.207-0.119-0.356-0.316-0.418-0.547l-0.001-0.008
	L108.584,195.961z"/>
<path fill="#020202" d="M107.24,190.718l-0.715-2.61l-0.002-0.009c-0.059-0.216-0.031-0.446,0.079-0.64
	c0.11-0.194,0.292-0.336,0.507-0.397c0.215-0.06,0.445-0.033,0.64,0.076c0.195,0.108,0.339,0.288,0.4,0.503l0.756,2.619
	c0.031,0.109,0.041,0.224,0.028,0.336c-0.013,0.113-0.048,0.221-0.103,0.32s-0.128,0.188-0.217,0.259
	c-0.089,0.069-0.19,0.122-0.299,0.154c-0.109,0.03-0.223,0.041-0.336,0.027c-0.112-0.012-0.221-0.047-0.32-0.102
	c-0.1-0.055-0.187-0.129-0.258-0.217c-0.071-0.089-0.124-0.19-0.154-0.3l-0.002-0.007L107.24,190.718z"/>
<path fill="#020202" d="M105.781,185.505l-0.775-2.593l-0.003-0.011c-0.061-0.203-0.039-0.423,0.062-0.61
	c0.101-0.188,0.272-0.329,0.476-0.392c0.205-0.063,0.424-0.042,0.613,0.058c0.188,0.1,0.33,0.269,0.394,0.473l0.815,2.601
	c0.066,0.21,0.046,0.437-0.056,0.63c-0.102,0.194-0.276,0.341-0.485,0.406c-0.209,0.065-0.436,0.046-0.63-0.057
	c-0.194-0.101-0.34-0.275-0.405-0.484l-0.002-0.006L105.781,185.505z"/>
<path fill="#020202" d="M104.201,180.328l-0.838-2.573l-0.003-0.01c-0.063-0.193-0.047-0.403,0.044-0.585
	c0.092-0.184,0.251-0.32,0.444-0.385c0.193-0.064,0.404-0.05,0.586,0.041c0.183,0.09,0.321,0.249,0.387,0.442l0.88,2.58
	c0.033,0.098,0.047,0.201,0.041,0.306c-0.007,0.103-0.034,0.204-0.08,0.296c-0.045,0.094-0.109,0.178-0.187,0.246
	c-0.078,0.067-0.169,0.12-0.267,0.154c-0.098,0.032-0.202,0.047-0.305,0.04c-0.103-0.007-0.204-0.034-0.297-0.08
	c-0.093-0.046-0.176-0.108-0.244-0.187c-0.069-0.078-0.121-0.169-0.155-0.266l-0.001-0.007L104.201,180.328z"/>
<path fill="#020202" d="M102.491,175.193l-0.906-2.55l-0.003-0.009c-0.033-0.091-0.047-0.188-0.043-0.283
	c0.004-0.097,0.027-0.191,0.068-0.278c0.083-0.176,0.232-0.313,0.415-0.379s0.385-0.058,0.561,0.025
	c0.176,0.083,0.313,0.23,0.378,0.414l0.948,2.557c0.069,0.188,0.061,0.394-0.023,0.573c-0.083,0.182-0.235,0.322-0.422,0.391
	c-0.187,0.069-0.393,0.062-0.574-0.021c-0.181-0.083-0.322-0.234-0.391-0.421l-0.002-0.006L102.491,175.193z"/>
<path fill="#020202" d="M100.644,170.106l-0.978-2.523l-0.003-0.009c-0.066-0.171-0.062-0.362,0.011-0.53
	c0.074-0.169,0.211-0.301,0.382-0.369c0.171-0.067,0.362-0.065,0.531,0.008c0.169,0.072,0.303,0.209,0.371,0.379l1.02,2.529
	c0.035,0.086,0.053,0.181,0.052,0.273c-0.001,0.095-0.021,0.188-0.057,0.273c-0.037,0.087-0.09,0.164-0.157,0.231
	c-0.067,0.065-0.146,0.116-0.233,0.152c-0.087,0.035-0.181,0.052-0.274,0.051c-0.094,0-0.187-0.019-0.273-0.056
	s-0.165-0.091-0.23-0.157c-0.066-0.067-0.118-0.146-0.153-0.233l-0.002-0.007L100.644,170.106z"/>
<path fill="#020202" d="M98.65,165.074l-1.044-2.496l-0.004-0.009c-0.065-0.157-0.067-0.334-0.003-0.493
	c0.063-0.158,0.187-0.284,0.343-0.352c0.157-0.069,0.333-0.071,0.493-0.008c0.159,0.062,0.287,0.184,0.355,0.34l1.108,2.491
	c0.037,0.082,0.057,0.169,0.059,0.258c0.002,0.089-0.013,0.178-0.045,0.261c-0.032,0.083-0.08,0.159-0.141,0.224
	c-0.062,0.064-0.135,0.116-0.216,0.152c-0.082,0.036-0.169,0.056-0.258,0.058c-0.089,0.003-0.178-0.013-0.261-0.045
	c-0.083-0.032-0.159-0.079-0.224-0.142c-0.064-0.061-0.116-0.134-0.152-0.215l-0.004-0.012L98.65,165.074z"/>
<path fill="#020202" d="M96.521,160.1l-1.127-2.46l-0.005-0.009c-0.063-0.141-0.07-0.3-0.017-0.445
	c0.053-0.145,0.161-0.264,0.301-0.33c0.14-0.066,0.299-0.074,0.445-0.022c0.145,0.051,0.265,0.158,0.333,0.296l1.19,2.453
	c0.036,0.073,0.056,0.153,0.061,0.233c0.005,0.082-0.006,0.162-0.033,0.239c-0.026,0.077-0.068,0.148-0.122,0.208
	c-0.054,0.061-0.119,0.11-0.192,0.146c-0.073,0.036-0.152,0.057-0.233,0.061c-0.081,0.004-0.162-0.006-0.239-0.033
	c-0.077-0.028-0.147-0.069-0.208-0.122c-0.061-0.054-0.11-0.12-0.146-0.193l-0.004-0.009L96.521,160.1z"/>
<path fill="#020202" d="M94.224,155.2l-1.216-2.417l-0.004-0.01c-0.062-0.124-0.073-0.266-0.031-0.398
	c0.043-0.131,0.136-0.241,0.259-0.305c0.124-0.063,0.267-0.077,0.399-0.035s0.243,0.133,0.308,0.256l1.279,2.408
	c0.035,0.065,0.057,0.135,0.065,0.208c0.007,0.073,0,0.147-0.021,0.218c-0.021,0.07-0.056,0.135-0.103,0.193
	c-0.046,0.056-0.104,0.103-0.169,0.138s-0.136,0.056-0.209,0.063c-0.074,0.007-0.147,0-0.218-0.023
	c-0.07-0.021-0.135-0.057-0.192-0.104c-0.056-0.047-0.103-0.105-0.136-0.17l-0.005-0.008L94.224,155.2z"/>
<path fill="#020202" d="M91.745,150.385c-0.436-0.782-0.86-1.59-1.278-2.409c-0.056-0.108-0.066-0.236-0.029-0.353
	c0.037-0.117,0.119-0.214,0.228-0.271s0.235-0.069,0.353-0.033c0.118,0.037,0.216,0.117,0.274,0.224l0.003,0.005
	c0.421,0.784,0.855,1.568,1.317,2.355c0.067,0.114,0.085,0.249,0.052,0.376c-0.033,0.127-0.116,0.237-0.229,0.303
	c-0.113,0.066-0.249,0.086-0.376,0.053c-0.127-0.034-0.236-0.116-0.303-0.229l-0.004-0.007L91.745,150.385z"/>
<path fill="#020202" d="M89.27,145.531l-1.158-2.469c-0.045-0.096-0.051-0.206-0.016-0.305c0.036-0.101,0.109-0.183,0.205-0.229
	c0.095-0.046,0.206-0.053,0.306-0.019c0.1,0.035,0.184,0.107,0.231,0.202l0.002,0.005l1.212,2.429l0.002,0.005
	c0.026,0.051,0.041,0.107,0.045,0.164c0.004,0.058-0.003,0.115-0.021,0.169c-0.019,0.055-0.047,0.105-0.084,0.148
	c-0.038,0.042-0.083,0.078-0.135,0.104c-0.051,0.026-0.107,0.041-0.164,0.044c-0.057,0.004-0.115-0.002-0.169-0.021
	c-0.054-0.019-0.104-0.048-0.147-0.085c-0.043-0.038-0.079-0.084-0.104-0.134L89.27,145.531z"/>
<path fill="#020202" d="M87,140.577l-1.074-2.505c-0.033-0.076-0.034-0.162-0.004-0.239c0.03-0.077,0.09-0.139,0.165-0.173
	c0.076-0.035,0.162-0.038,0.239-0.008c0.078,0.028,0.141,0.087,0.176,0.162l0.003,0.006l1.149,2.458l0.002,0.005
	c0.021,0.043,0.032,0.089,0.034,0.137c0.002,0.046-0.005,0.094-0.021,0.138c-0.016,0.045-0.041,0.086-0.073,0.121
	s-0.07,0.064-0.113,0.083c-0.043,0.021-0.089,0.032-0.137,0.034c-0.047,0.001-0.094-0.006-0.139-0.021
	c-0.044-0.017-0.085-0.042-0.12-0.073c-0.035-0.032-0.063-0.07-0.083-0.113L87,140.577z"/>
<path fill="#020202" d="M84.9,135.55l-0.96-2.551c-0.021-0.056-0.019-0.118,0.005-0.173c0.024-0.055,0.069-0.098,0.125-0.12
	c0.056-0.023,0.118-0.022,0.172,0.002c0.056,0.023,0.099,0.066,0.123,0.122l0.003,0.007l1.036,2.504l0.003,0.008
	c0.014,0.032,0.021,0.067,0.021,0.103s-0.007,0.071-0.021,0.104c-0.014,0.034-0.034,0.063-0.059,0.088
	c-0.025,0.026-0.055,0.045-0.088,0.06c-0.033,0.013-0.068,0.02-0.104,0.02s-0.071-0.007-0.104-0.02
	c-0.033-0.015-0.063-0.034-0.088-0.06c-0.025-0.025-0.045-0.056-0.059-0.088L84.9,135.55z"/>
<path fill="#020202" d="M83.079,130.412l-0.669-2.654c-0.009-0.036-0.004-0.073,0.015-0.105c0.019-0.032,0.049-0.055,0.084-0.065
	c0.036-0.01,0.074-0.005,0.105,0.014c0.032,0.018,0.056,0.048,0.066,0.083l0.005,0.017l0.745,2.598l0.005,0.015
	c0.013,0.048,0.007,0.098-0.017,0.141c-0.023,0.042-0.063,0.074-0.11,0.087s-0.097,0.007-0.14-0.016
	c-0.043-0.024-0.075-0.064-0.088-0.11L83.079,130.412z"/>
<path fill="#020202" d="M82.489,125.005c0.105-0.177,0.272-0.31,0.469-0.371c0.012-0.004,0.023-0.005,0.036-0.004
	c0.012,0.001,0.023,0.005,0.034,0.01c0.01,0.005,0.02,0.013,0.027,0.022c0.008,0.009,0.014,0.02,0.017,0.031
	c0.007,0.022,0.004,0.046-0.007,0.068c-0.011,0.02-0.029,0.038-0.052,0.045c-0.153,0.051-0.281,0.158-0.359,0.298
	c-0.006,0.011-0.015,0.021-0.024,0.028c-0.011,0.008-0.022,0.014-0.035,0.018c-0.012,0.003-0.025,0.003-0.038,0.002
	c-0.012-0.002-0.025-0.005-0.036-0.012c-0.011-0.007-0.021-0.015-0.028-0.025c-0.008-0.009-0.014-0.022-0.017-0.034
	c-0.003-0.012-0.004-0.026-0.002-0.038c0.001-0.013,0.006-0.025,0.012-0.037L82.489,125.005z"/>
<path fill="#020202" d="M166.955,186.573c-1.98,0.507-4,0.844-6.037,1.01c-2.011,0.181-4.021,0.256-6.03,0.239
	c-2.009-0.016-4.017-0.128-6.025-0.344c-2.034-0.202-4.048-0.578-6.018-1.122c1.98-0.509,4-0.849,6.037-1.014
	c2.012-0.182,4.021-0.257,6.03-0.235c2.009,0.02,4.018,0.13,6.025,0.348C162.972,185.658,164.984,186.033,166.955,186.573z"/>
<path fill="#020202" d="M115.014,296.082c0.346,2.829,0.498,5.659,0.611,8.488c0.1,2.831,0.157,5.66,0.051,8.49
	c-0.129,2.83-0.393,5.659-0.46,8.489c-0.004,0.707-0.027,1.415-0.018,2.122c-0.053,0.674,0.04,1.352,0.274,1.984
	c0.242,0.6,0.635,1.123,1.142,1.522c0.506,0.4,1.108,0.661,1.746,0.758c0.612,0.079,1.235,0.009,1.814-0.205
	c0.555-0.221,1.049-0.57,1.441-1.021c0.38-0.438,0.646-0.965,0.773-1.532c0.062-0.278,0.09-0.563,0.087-0.849l-0.022-1.059
	c-0.063-2.829-0.138-5.659-0.114-8.489c0.077-5.66,0.304-11.318,0.875-16.978c0.002-0.023,0.012-0.044,0.029-0.059
	c0.017-0.016,0.038-0.023,0.061-0.023c0.022,0,0.044,0.008,0.061,0.023c0.017,0.015,0.028,0.035,0.03,0.059
	c0.571,5.659,0.799,11.317,0.875,16.978c0.024,2.83-0.052,5.66-0.114,8.489l-0.024,1.063c-0.01,0.423-0.075,0.844-0.193,1.249
	c-0.339,1.199-1.134,2.219-2.214,2.839c-1.081,0.621-2.36,0.796-3.567,0.485c-0.753-0.197-1.445-0.578-2.015-1.108
	c-0.569-0.529-0.998-1.192-1.249-1.93c-0.12-0.359-0.198-0.731-0.236-1.109c-0.024-0.387-0.016-0.735-0.012-1.088
	c0.01-0.707-0.013-1.415-0.018-2.122c-0.067-2.83-0.331-5.659-0.46-8.489c-0.105-2.83-0.048-5.659,0.052-8.49
	c0.113-2.829,0.265-5.659,0.611-8.488c0.003-0.022,0.013-0.043,0.03-0.058c0.017-0.015,0.038-0.022,0.06-0.022
	c0.022,0,0.044,0.008,0.061,0.022C115,296.039,115.011,296.06,115.014,296.082z"/>
<path fill="#020202" d="M244.219,302.419c0.345,2.417,0.497,4.832,0.611,7.248c0.1,2.416,0.157,4.832,0.052,7.249
	c-0.112,2.415-0.404,4.832-0.461,7.247c-0.033,0.566,0.063,1.133,0.285,1.655c0.221,0.523,0.56,0.987,0.989,1.356
	c0.5,0.43,1.107,0.717,1.759,0.826c0.651,0.111,1.319,0.042,1.934-0.199c0.613-0.241,1.15-0.646,1.552-1.17
	c0.401-0.523,0.652-1.146,0.725-1.803c0.046-0.437,0.003-1.093-0.007-1.689c-0.063-2.415-0.138-4.832-0.112-7.247
	c0.042-4.845,0.335-9.683,0.874-14.497c0.004-0.021,0.013-0.042,0.03-0.057c0.018-0.016,0.038-0.022,0.062-0.022
	c0.021,0,0.042,0.007,0.06,0.022c0.017,0.015,0.028,0.036,0.029,0.057c0.541,4.814,0.834,9.652,0.876,14.497
	c0.024,2.415-0.052,4.832-0.113,7.247c0.003,0.645-0.033,1.289-0.112,1.929c-0.183,1.047-0.712,2-1.504,2.707
	c-0.791,0.707-1.798,1.128-2.857,1.191c-0.661,0.044-1.326-0.052-1.947-0.283c-0.623-0.23-1.189-0.59-1.662-1.056
	c-0.463-0.449-0.83-0.987-1.077-1.584c-0.25-0.595-0.374-1.234-0.367-1.881c-0.057-2.415-0.35-4.832-0.461-7.247
	c-0.105-2.417-0.048-4.833,0.052-7.249c0.113-2.416,0.267-4.831,0.611-7.248c0.004-0.021,0.015-0.041,0.03-0.056
	c0.018-0.014,0.039-0.022,0.06-0.022c0.023,0,0.044,0.009,0.061,0.022C244.204,302.378,244.216,302.399,244.219,302.419z"/>
<path fill="#020202" d="M119.633,127.949c0.614-1.008,1.388-1.909,2.292-2.669c0.893-0.773,1.857-1.458,2.882-2.045
	c2.075-1.143,4.317-1.95,6.645-2.392c2.314-0.474,4.671-0.711,7.033-0.706c1.175,0.052,2.352,0.097,3.526,0.171l3.501,0.406
	c0.143,0.017,0.277,0.08,0.381,0.179l0.025,0.023c1.875,1.788,3.769,3.555,5.627,5.361l-0.671-0.221
	c3.171-0.245,6.358,0.148,9.375,1.158c2.982,0.97,5.776,2.446,8.26,4.361c0.621,0.468,1.179,1.017,1.77,1.52
	c0.287,0.26,0.591,0.504,0.862,0.78l0.784,0.86c0.51,0.583,1.071,1.121,1.55,1.726l1.384,1.859c0.224,0.314,0.474,0.61,0.681,0.936
	l0.598,0.989l1.194,1.979c0.71,1.364,1.36,2.761,2.043,4.142l0.003,0.005l0.005,0.018c0.577,1.64,1.313,3.219,2.197,4.718
	c0.439,0.733,0.957,1.417,1.544,2.037c0.523,0.609,1.216,1.049,1.989,1.262c0.056,0.011,0.108,0.032,0.155,0.063
	c0.048,0.031,0.088,0.071,0.12,0.118c0.031,0.046,0.053,0.099,0.065,0.153c0.011,0.055,0.012,0.112,0.001,0.167l-0.015,0.057
	l-0.004,0.014c-1.042,2.979-2.272,5.888-3.687,8.709c-1.41,2.834-3.033,5.557-4.856,8.144c-1.843,2.607-3.959,5.01-6.313,7.167
	c-2.421,2.162-5.187,3.904-8.183,5.153c-0.158,0.065-0.332,0.084-0.501,0.055c-0.168-0.028-0.326-0.104-0.455-0.219l-0.014-0.012
	c-3.222-2.866-6.298-5.832-9.257-8.94c-2.977-3.086-5.792-6.329-8.463-9.69c-1.324-1.691-2.614-3.411-3.829-5.185
	c-1.192-1.792-2.321-3.628-3.334-5.532c-1.037-1.898-1.869-3.901-2.482-5.975c-0.664-2.069-0.83-4.268-0.485-6.414
	c0.002-0.011,0.007-0.022,0.014-0.033c0.006-0.009,0.015-0.018,0.025-0.024c0.009-0.007,0.021-0.012,0.032-0.015
	c0.012-0.002,0.023-0.002,0.036,0c0.022,0.006,0.042,0.02,0.055,0.038c0.013,0.019,0.019,0.041,0.017,0.064
	c-0.158,2.105,0.16,4.218,0.931,6.184c0.738,1.973,1.658,3.874,2.749,5.676c2.227,3.598,4.724,7.021,7.47,10.24
	c2.728,3.242,5.641,6.329,8.606,9.363c2.984,3.01,6.042,5.979,9.185,8.794l-0.971-0.178c2.803-1.128,5.4-2.708,7.689-4.68
	c2.29-2.042,4.366-4.312,6.194-6.775c1.849-2.481,3.521-5.09,5.003-7.806c1.521-2.705,2.856-5.51,3.997-8.396l0.321,0.57
	c-0.931-0.279-1.756-0.833-2.366-1.59c-0.596-0.684-1.119-1.428-1.561-2.22c-0.886-1.55-1.617-3.183-2.184-4.875l0.008,0.021
	c-0.663-1.365-1.256-2.769-1.978-4.105l-1.197-1.938l-0.599-0.969c-0.204-0.319-0.459-0.602-0.688-0.903l-1.41-1.782
	c-0.486-0.579-1.048-1.09-1.576-1.628l-0.802-0.799c-0.276-0.254-0.584-0.475-0.875-0.715c-0.597-0.459-1.159-0.964-1.78-1.385
	c-2.459-1.713-5.193-2.994-8.083-3.787c-2.84-0.818-5.802-1.13-8.75-0.922l-0.038,0.004c-0.116,0.01-0.232-0.006-0.341-0.045
	c-0.109-0.038-0.208-0.099-0.292-0.179c-1.867-1.796-3.697-3.63-5.547-5.443l0.406,0.203l-3.399-0.459
	c-1.137-0.092-2.277-0.156-3.416-0.228c-2.276-0.071-4.555,0.063-6.807,0.403c-2.251,0.341-4.443,1.001-6.508,1.96
	c-1.027,0.495-2.003,1.088-2.916,1.771c-0.925,0.672-1.747,1.478-2.439,2.387l-0.006,0.008c-0.014,0.02-0.034,0.032-0.057,0.036
	c-0.023,0.005-0.046,0-0.066-0.013c-0.019-0.013-0.033-0.033-0.038-0.056C119.618,127.993,119.622,127.969,119.633,127.949
	L119.633,127.949z"/>
<path fill="#020202" d="M138.105,133.226c0.547-0.954,1.243-1.815,2.062-2.549c0.817-0.751,1.732-1.389,2.721-1.893
	c0.997-0.508,2.074-0.841,3.184-0.984c1.099-0.148,2.217-0.064,3.282,0.246c-1.063,0.046-2.118,0.196-3.151,0.448
	c-1.008,0.256-1.983,0.625-2.909,1.099C141.416,130.578,139.673,131.799,138.105,133.226z"/>
<path fill="#020202" d="M163.802,182.489c3.184,3.997,6.763,7.663,10.682,10.944c3.823,3.313,8.246,5.862,13.029,7.51
	c2.359,0.759,4.843,1.062,7.316,0.893c2.458-0.205,4.852-0.894,7.041-2.026c4.411-2.228,7.811-6.176,10.274-10.514
	c2.429-4.448,3.792-9.397,3.983-14.46l0.177-15.371l0.005-3.847c-0.041-1.301,0.046-2.603,0.259-3.886
	c0.19-1.289,0.481-2.561,0.874-3.804c0.479-1.208,1.02-2.39,1.624-3.541c1.156-2.297,2.366-4.556,3.463-6.858
	c1.148-2.235,2.013-4.604,2.572-7.053c0.008-0.034,0.017-0.068,0.027-0.101l0.008-0.018l2.937-7.898l1.418-3.958
	c0.111-0.26,0.186-0.536,0.217-0.817c0.021-0.24-0.007-0.482-0.084-0.711c-0.065-0.209-0.181-0.4-0.335-0.556
	c-0.155-0.155-0.346-0.271-0.555-0.338c-0.695-0.259-1.791,0.645-2.54,1.675c-0.794,1.09-1.48,2.254-2.051,3.475
	c-1.23,2.619-2.784,5.074-4.624,7.309c-0.957,1.161-2.087,2.169-3.348,2.992c-0.69,0.441-1.452,0.758-2.251,0.939
	c-0.941,0.216-1.93,0.055-2.752-0.451c-0.7-0.555-1.228-1.296-1.524-2.139c-0.297-0.841-0.351-1.75-0.154-2.621
	c0.133-0.777,0.368-1.533,0.703-2.249l0.243-0.507c0.07-0.137,0.134-0.278,0.194-0.42c0.118-0.28,0.217-0.57,0.292-0.865
	c0.152-0.574,0.204-1.169,0.153-1.759c-0.008-0.188-0.052-0.372-0.132-0.543c-0.013-0.026,0.043,0.049,0.088,0.046
	c0.054,0.006,0.019,0-0.047,0.018c-0.51,0.205-0.973,0.511-1.361,0.899c-0.467,0.435-0.887,0.917-1.252,1.441
	c-1.479,2.252-2.502,4.77-3.014,7.414l0.011-0.183l0.296,6.78l0.148,3.39l0.074,1.696c0.043,0.581,0.049,1.165,0.016,1.746
	c-0.338,2.304-1,4.548-1.965,6.668c-0.869,2.105-1.86,4.149-2.831,6.184l-0.008,0.017l-0.021,0.035
	c-2.163,3.225-4.315,6.457-6.511,9.661c-0.013,0.02-0.033,0.033-0.056,0.037c-0.023,0.005-0.046,0.001-0.067-0.012
	c-0.02-0.012-0.034-0.032-0.04-0.054c-0.005-0.024-0.001-0.048,0.011-0.068c1.956-3.355,3.955-6.684,5.943-10.02l-0.028,0.051
	c0.907-2.073,1.818-4.13,2.603-6.229c0.843-2.027,1.402-4.16,1.664-6.34c0.008-0.546-0.017-1.093-0.074-1.636l-0.111-1.688
	l-0.223-3.376l-0.447-6.751c-0.002-0.062,0.001-0.124,0.012-0.184c0.263-1.437,0.647-2.848,1.15-4.218
	c0.493-1.397,1.157-2.727,1.978-3.96c0.437-0.633,0.937-1.22,1.495-1.749c0.603-0.615,1.343-1.078,2.159-1.356
	c0.323-0.09,0.666-0.093,0.991-0.009c0.374,0.104,0.701,0.332,0.926,0.647c0.288,0.431,0.458,0.929,0.494,1.446
	c0.083,0.812,0.022,1.633-0.178,2.423c-0.096,0.387-0.219,0.767-0.369,1.135c-0.075,0.183-0.155,0.363-0.241,0.54l-0.209,0.445
	c-0.256,0.564-0.438,1.159-0.547,1.768c-0.102,0.552-0.081,1.118,0.061,1.66c0.126,0.464,0.396,0.876,0.769,1.179
	c0.635,0.461,1.881,0.154,2.928-0.514c1.097-0.719,2.085-1.591,2.934-2.59c1.765-2.093,3.261-4.397,4.454-6.859
	c0.638-1.319,1.403-2.573,2.284-3.744c0.474-0.633,1.038-1.191,1.678-1.656c0.376-0.295,0.816-0.499,1.286-0.597
	c0.47-0.097,0.955-0.084,1.419,0.037c0.463,0.148,0.884,0.405,1.227,0.75c0.342,0.345,0.597,0.768,0.74,1.232
	c0.144,0.441,0.192,0.908,0.146,1.371c-0.051,0.417-0.162,0.825-0.328,1.21l-1.521,3.949c-1.037,2.62-2.068,5.237-3.151,7.835
	l0.033-0.118c-0.66,2.539-1.64,4.983-2.913,7.276c-1.186,2.292-2.456,4.523-3.674,6.773c-0.618,1.104-1.182,2.237-1.686,3.398
	c-0.398,1.199-0.698,2.428-0.894,3.676c-0.224,1.245-0.323,2.51-0.299,3.774l-0.045,3.848c-0.004,5.136-0.084,10.238,0.082,15.4
	c-0.006,5.238-1.233,10.402-3.584,15.083c-1.188,2.35-2.69,4.527-4.462,6.476c-1.782,1.982-3.909,3.624-6.277,4.848
	c-2.392,1.204-5,1.92-7.673,2.1c-2.66,0.147-5.326-0.213-7.852-1.062c-5.042-1.63-9.379-4.713-13.244-8.115
	c-1.93-1.716-3.748-3.555-5.44-5.504c-1.709-1.927-3.294-3.96-4.747-6.086c-0.007-0.01-0.011-0.02-0.014-0.031
	c-0.002-0.013-0.002-0.024,0-0.036s0.007-0.022,0.013-0.033c0.007-0.009,0.015-0.018,0.025-0.024
	c0.019-0.012,0.043-0.017,0.065-0.013S163.788,182.47,163.802,182.489z"/>
<path fill="#020202" d="M184.251,156.835c1.757,1.335,3.413,2.794,5.033,4.29c1.626,1.489,3.174,3.061,4.692,4.662
	c1.507,1.611,2.966,3.268,4.341,4.994c1.389,1.716,2.682,3.507,3.872,5.365c-0.759-0.806-1.445-1.662-2.204-2.46
	c-0.719-0.83-1.455-1.645-2.199-2.452c-1.491-1.61-2.956-3.24-4.47-4.829L184.251,156.835z"/>
<path fill="#020202" d="M162.01,128.505c4.887-3.612,10.108-6.749,15.592-9.368c2.74-1.336,5.558-2.505,8.438-3.502
	c2.891-1.016,5.875-1.745,8.908-2.175c3.015-0.411,6.051-0.644,9.095-0.695c0.76-0.018,1.522-0.015,2.285,0.024l0.57,0.026
	c0.214,0.015,0.425,0.057,0.628,0.125c0.407,0.144,0.768,0.398,1.037,0.737c0.236,0.297,0.396,0.646,0.468,1.019
	c0.072,0.373,0.053,0.756-0.058,1.12c-0.107,0.364-0.304,0.694-0.568,0.966c-0.266,0.272-0.592,0.475-0.952,0.593l-0.538,0.18
	c-2.867,0.971-5.741,1.918-8.644,2.808c-1.455,0.436-2.912,0.868-4.401,1.219c-0.744,0.178-1.494,0.342-2.262,0.478
	c-0.814,0.165-1.645,0.229-2.476,0.196c-0.205-0.016-0.396-0.109-0.534-0.261c-0.138-0.152-0.211-0.353-0.206-0.557
	c0.006-0.207,0.091-0.402,0.237-0.545c0.146-0.145,0.342-0.228,0.547-0.231h0.063l12.95-0.162h0.013
	c0.157-0.003,0.313,0.039,0.448,0.118c0.286,0.166,0.545,0.372,0.77,0.614c0.263,0.289,0.447,0.641,0.534,1.02
	c0.063,0.379,0.027,0.768-0.104,1.127c-0.13,0.362-0.352,0.683-0.643,0.932c-0.775,0.66-1.664,1.17-2.622,1.508
	c-0.862,0.321-1.742,0.593-2.634,0.817c-0.878,0.25-1.76,0.404-2.638,0.61l0.458-0.248c-1.006,0.943-2.089,1.801-3.239,2.565
	c-1.144,0.778-2.36,1.441-3.634,1.98c-1.307,0.572-2.713,0.881-4.14,0.911c-1.478,0-2.912-0.505-4.062-1.434l0.626,0.022
	c-1.421,0.861-2.826,1.748-4.262,2.587c-1.43,0.847-2.853,1.707-4.297,2.532c-0.02,0.012-0.043,0.016-0.066,0.01
	c-0.022-0.006-0.042-0.019-0.054-0.039c-0.013-0.019-0.018-0.042-0.014-0.064c0.003-0.024,0.016-0.043,0.035-0.058
	c1.326-1.005,2.673-1.978,4.012-2.963c1.335-0.991,2.701-1.937,4.05-2.908c0.085-0.061,0.188-0.095,0.293-0.096
	c0.105-0.001,0.208,0.03,0.293,0.09l0.041,0.027c0.987,0.69,2.181,1.019,3.382,0.931c1.234-0.084,2.44-0.408,3.55-0.955
	c1.151-0.548,2.246-1.208,3.268-1.971c1.026-0.76,2.001-1.587,2.918-2.476c0.119-0.115,0.265-0.197,0.425-0.239l0.034-0.009
	c0.84-0.216,1.703-0.383,2.523-0.637c0.821-0.225,1.629-0.49,2.422-0.795c0.714-0.249,1.382-0.613,1.976-1.08
	c0.25-0.226,0.201-0.31,0.217-0.276c0.011-0.002-0.023-0.058-0.08-0.136c-0.079-0.08-0.167-0.152-0.261-0.215l0.461,0.118
	l-12.95-0.162l0.105-1.594c0.68,0.042,1.363,0.009,2.037-0.097c0.725-0.097,1.458-0.223,2.191-0.367
	c1.463-0.295,2.935-0.604,4.4-0.95c2.931-0.693,5.847-1.464,8.748-2.315l0.543-0.162c0.154-0.046,0.302-0.112,0.438-0.197
	c0.273-0.173,0.495-0.421,0.635-0.714c0.138-0.297,0.191-0.625,0.155-0.952c-0.037-0.325-0.163-0.634-0.363-0.893
	c-0.2-0.259-0.471-0.455-0.778-0.566c-0.156-0.049-0.319-0.079-0.483-0.087l-0.56-0.018c-0.748-0.027-1.498-0.02-2.248,0.009
	c-3,0.176-5.982,0.584-8.92,1.221c-2.913,0.654-5.775,1.515-8.566,2.574c-2.817,1-5.597,2.118-8.337,3.354
	c-5.482,2.448-10.854,5.188-16.125,8.148c-0.011,0.006-0.021,0.009-0.033,0.011c-0.012,0.002-0.024,0.002-0.035-0.001
	c-0.012-0.002-0.022-0.008-0.032-0.015c-0.01-0.008-0.018-0.017-0.024-0.026c-0.011-0.02-0.015-0.043-0.01-0.065
	C161.98,128.539,161.993,128.519,162.01,128.505z"/>
<path fill="#020202" d="M216.357,101.907l-7.939,12.051c1.512,2.58-1.866,3.368-1.866,3.368l-3.848,4.545
	c0,0,1.096,1.82-1.983,2.852l4.881,2.118c0,0,1.656-4.97,4.174-6.373l-2.082-0.661l9.381-15.311l12.674,1.294l-9.389,18.036
	l-8.33-2.644c0.113,1.602-0.272,3.199-1.104,4.572l-0.524,2.201l6.282,2.028c2.387-2.935,4.613-5.993,6.673-9.163
	c1.948-3.323,3.695-5.958,4.945-5.614l7.008-12.005L216.357,101.907z M205.629,123.773c-0.352-0.014-0.686-0.163-0.93-0.415
	c-0.244-0.254-0.381-0.592-0.381-0.944s0.137-0.691,0.381-0.945c0.244-0.253,0.578-0.401,0.93-0.414
	c0.352,0.013,0.685,0.161,0.929,0.414c0.245,0.254,0.382,0.593,0.382,0.945s-0.137,0.69-0.382,0.944
	C206.313,123.612,205.98,123.76,205.629,123.773L205.629,123.773z M216.71,127.466c-0.352-0.012-0.685-0.161-0.928-0.414
	c-0.245-0.254-0.382-0.592-0.382-0.944c0-0.353,0.137-0.69,0.382-0.944c0.243-0.253,0.576-0.402,0.928-0.414
	c0.353,0.012,0.687,0.161,0.931,0.414c0.244,0.254,0.382,0.591,0.382,0.944c0,0.352-0.138,0.69-0.382,0.944
	C217.396,127.305,217.063,127.454,216.71,127.466L216.71,127.466z"/>
<path fill="#020202" d="M168.412,124.721c1.652,1.178,3.202,2.492,4.633,3.93c1.459,1.409,2.796,2.939,3.997,4.575
	c-1.653-1.176-3.202-2.492-4.632-3.931C170.951,127.885,169.614,126.355,168.412,124.721z"/>
<path fill="#020202" d="M338.65,224.689c-4.445-2.22-37.965-65.769-37.965-65.769c-5.332-9.841-12.313-14.731-18.958-16.995
	c-4.538-1.493-9.357-1.931-14.091-1.283c-4.734,0.651-9.257,2.371-13.226,5.031l-37.991,25.052
	c0.589,11.581-2.29,15.927-2.29,15.927l32.051,1.439c12.386,3.458,11.897,13.473,11.897,13.473l1.014,73.745
	c20.57,9.985,46.03,0,46.03,0l-3.774-20.652l-3.668-20.2c-1.258-6.718-2.516-13.426-3.992-20.09
	c-0.697-3.342-1.495-6.655-2.345-9.961c-0.833-3.294-1.758-6.581-2.815-9.804c-1.016-3.235-2.287-6.385-3.804-9.417
	c-0.74-1.514-1.681-2.921-2.797-4.183c-0.563-0.618-1.231-1.131-1.975-1.513c-0.367-0.203-0.778-0.317-1.197-0.334
	c-0.42-0.015-0.839,0.068-1.221,0.244c0.378-0.224,0.804-0.354,1.241-0.381c0.437-0.026,0.875,0.051,1.276,0.227
	c0.816,0.331,1.566,0.81,2.21,1.413c1.253,1.212,2.34,2.585,3.232,4.084c1.739,2.987,3.2,6.131,4.363,9.387
	c2.316,6.481,4.186,13.111,5.595,19.848c1.458,6.709,2.645,13.472,3.622,20.253c0.996,6.782,1.711,13.6,2.273,20.427
	C318.668,251.551,338.65,224.689,338.65,224.689z M263.121,274.648c-0.353-0.012-0.686-0.16-0.929-0.414
	c-0.246-0.254-0.382-0.592-0.382-0.943c0-0.353,0.136-0.69,0.382-0.943c0.243-0.254,0.576-0.402,0.929-0.415
	c0.352,0.013,0.686,0.161,0.929,0.415c0.245,0.253,0.382,0.591,0.382,0.943c0,0.352-0.137,0.689-0.382,0.943
	C263.807,274.488,263.473,274.636,263.121,274.648z M269.64,276.387c-0.352-0.013-0.684-0.162-0.929-0.415
	c-0.245-0.254-0.382-0.591-0.382-0.943s0.137-0.69,0.382-0.943c0.245-0.254,0.577-0.403,0.929-0.415
	c0.353,0.012,0.687,0.161,0.931,0.415c0.244,0.252,0.381,0.591,0.381,0.943s-0.137,0.69-0.381,0.944
	C270.326,276.225,269.992,276.374,269.64,276.387L269.64,276.387z M298.976,271.932c0.353,0.012,0.686,0.16,0.932,0.414
	c0.245,0.252,0.382,0.592,0.382,0.944c0,0.352-0.137,0.691-0.382,0.944c-0.246,0.254-0.579,0.402-0.932,0.413
	c-0.353-0.012-0.688-0.159-0.932-0.413c-0.245-0.254-0.382-0.593-0.382-0.944c0-0.353,0.137-0.691,0.382-0.944
	C298.288,272.092,298.623,271.945,298.976,271.932L298.976,271.932z M291.804,274.105c0.353,0.012,0.687,0.159,0.932,0.413
	c0.246,0.254,0.384,0.593,0.384,0.945s-0.138,0.691-0.384,0.944c-0.245,0.254-0.579,0.401-0.932,0.414
	c-0.351-0.013-0.686-0.16-0.931-0.414c-0.244-0.253-0.383-0.592-0.383-0.944s0.139-0.691,0.383-0.945
	C291.118,274.265,291.453,274.116,291.804,274.105L291.804,274.105z M284.851,274.973c0.353,0.013,0.687,0.16,0.933,0.414
	c0.244,0.253,0.382,0.592,0.382,0.945c0,0.353-0.138,0.691-0.382,0.944c-0.246,0.254-0.58,0.401-0.933,0.414
	c-0.353-0.013-0.687-0.16-0.932-0.414c-0.245-0.253-0.382-0.592-0.382-0.944c0-0.354,0.137-0.692,0.382-0.944
	C284.164,275.134,284.498,274.986,284.851,274.973L284.851,274.973z M277.245,277.472c-0.352-0.012-0.685-0.161-0.93-0.414
	c-0.243-0.253-0.38-0.591-0.38-0.942c0-0.353,0.137-0.691,0.38-0.945c0.245-0.253,0.578-0.401,0.93-0.413
	c0.353,0.012,0.686,0.16,0.931,0.413c0.245,0.254,0.382,0.593,0.382,0.945c0,0.352-0.137,0.689-0.382,0.943
	C277.931,277.312,277.598,277.461,277.245,277.472L277.245,277.472z M335.48,222.171c0.353,0.011,0.687,0.16,0.932,0.413
	c0.245,0.254,0.382,0.593,0.382,0.945c0,0.354-0.137,0.691-0.382,0.945c-0.245,0.253-0.579,0.4-0.932,0.412
	c-0.353-0.012-0.686-0.16-0.931-0.413c-0.244-0.254-0.382-0.592-0.382-0.944s0.138-0.691,0.382-0.944
	C334.795,222.332,335.128,222.183,335.48,222.171L335.48,222.171z M330.7,227.604c0.353,0.011,0.686,0.159,0.932,0.413
	c0.245,0.253,0.382,0.592,0.382,0.944s-0.137,0.691-0.382,0.945c-0.246,0.254-0.579,0.402-0.932,0.413
	c-0.353-0.012-0.686-0.16-0.931-0.413c-0.244-0.254-0.382-0.593-0.382-0.945c0-0.352,0.138-0.69,0.382-0.943
	C330.015,227.764,330.348,227.615,330.7,227.604L330.7,227.604z M303.104,252.267c-0.352-0.013-0.685-0.161-0.931-0.415
	c-0.243-0.253-0.38-0.592-0.38-0.943s0.137-0.69,0.38-0.943c0.246-0.254,0.579-0.402,0.931-0.415
	c0.353,0.012,0.686,0.161,0.932,0.415c0.243,0.253,0.381,0.592,0.381,0.943c0,0.353-0.138,0.691-0.381,0.943
	C303.789,252.106,303.456,252.255,303.104,252.267L303.104,252.267z M308.971,249.658c-0.352-0.012-0.686-0.16-0.93-0.414
	c-0.244-0.253-0.381-0.592-0.381-0.943s0.137-0.69,0.381-0.943c0.244-0.255,0.578-0.401,0.93-0.415
	c0.352,0.013,0.685,0.16,0.931,0.415c0.245,0.252,0.381,0.591,0.381,0.943s-0.136,0.69-0.381,0.943
	C309.655,249.498,309.322,249.648,308.971,249.658L308.971,249.658z M314.838,246.182c-0.353-0.013-0.686-0.16-0.93-0.414
	c-0.245-0.253-0.382-0.592-0.382-0.943c0-0.353,0.137-0.69,0.382-0.943c0.244-0.254,0.577-0.403,0.93-0.415
	c0.353,0.012,0.686,0.16,0.93,0.414c0.245,0.253,0.382,0.592,0.382,0.944c0,0.352-0.137,0.69-0.382,0.944
	C315.523,246.023,315.19,246.169,314.838,246.182L314.838,246.182z M320.271,241.403c-0.353-0.014-0.686-0.162-0.931-0.414
	c-0.244-0.254-0.381-0.593-0.381-0.945c0-0.352,0.137-0.689,0.381-0.943c0.245-0.253,0.578-0.401,0.931-0.415
	c0.352,0.013,0.685,0.162,0.93,0.415s0.382,0.591,0.382,0.943c0,0.354-0.137,0.691-0.382,0.945
	C320.955,241.241,320.622,241.39,320.271,241.403L320.271,241.403z M325.701,232.819c0.354,0.011,0.688,0.16,0.933,0.414
	c0.245,0.253,0.383,0.592,0.383,0.944s-0.138,0.692-0.383,0.945s-0.579,0.4-0.933,0.413c-0.352-0.014-0.686-0.16-0.929-0.414
	c-0.246-0.254-0.382-0.593-0.382-0.944c0-0.353,0.136-0.691,0.382-0.944C325.016,232.98,325.35,232.83,325.701,232.819
	L325.701,232.819z"/>
<path fill="#020202" d="M259.253,292.029c0.249,4.197,0.362,8.401,0.213,12.619c-0.028,2.142-0.241,4.276-0.637,6.382
	c-0.063,0.282-0.146,0.561-0.245,0.832l-0.203,0.444l-0.105,0.218c-0.011,0.028-0.021,0.057-0.035,0.083
	c-0.034,0.151-0.034,0.308-0.003,0.459s0.095,0.295,0.187,0.42c0.512,0.788,1.19,1.455,1.986,1.954
	c1.653,1.094,3.531,1.801,5.495,2.068c1.963,0.268,3.963,0.09,5.848-0.521c0.467-0.159,0.924-0.343,1.371-0.551
	c0.482-0.229,0.978-0.452,1.476-0.657c1.004-0.413,2.038-0.748,3.092-1.002c2.107-0.483,4.278-0.644,6.434-0.479
	c2.139,0.108,4.252,0.491,6.293,1.135c1.02,0.321,2.011,0.721,2.968,1.194c0.936,0.444,1.902,0.821,2.891,1.127
	c1.994,0.628,4.022,1.134,6.077,1.515c2.053,0.394,4.118,0.732,6.196,0.958c4.138,0.496,8.313,0.573,12.465,0.233
	c2.017-0.137,3.997-0.595,5.868-1.356c0.832-0.337,1.543-0.913,2.047-1.655c0.191-0.366,0.307-0.768,0.338-1.18
	s-0.021-0.826-0.155-1.217l0.143,0.278c-0.403-0.452-0.841-0.873-1.311-1.257c-0.48-0.409-0.998-0.786-1.516-1.16
	c-1.063-0.729-2.17-1.388-3.317-1.974c-2.319-1.168-4.73-2.146-7.209-2.922c-2.497-0.773-5.033-1.408-7.598-1.903
	c-1.28-0.28-2.572-0.439-3.858-0.667c-1.361-0.172-2.706-0.451-4.023-0.836c-2.634-0.762-5.137-1.92-7.423-3.433
	c-2.293-1.507-4.24-3.484-5.712-5.8c-1.469-2.317-2.428-4.919-2.815-7.636c-0.379-2.656-0.358-5.355,0.063-8.006
	c0.005-0.022,0.016-0.045,0.035-0.059s0.041-0.02,0.064-0.018c0.024,0.002,0.045,0.014,0.06,0.03
	c0.016,0.019,0.023,0.041,0.021,0.064c-0.189,2.627-0.011,5.267,0.529,7.845c0.518,2.54,1.55,4.948,3.032,7.076
	c1.49,2.09,3.378,3.867,5.557,5.227c2.188,1.351,4.569,2.359,7.063,2.995c1.24,0.324,2.501,0.561,3.774,0.708
	c1.328,0.212,2.675,0.362,3.99,0.629c1.319,0.253,2.641,0.496,3.94,0.853c1.31,0.302,2.6,0.701,3.889,1.095
	c2.579,0.828,5.079,1.886,7.471,3.158c2.481,1.253,4.722,2.937,6.614,4.974c0.061,0.068,0.104,0.149,0.13,0.238l0.012,0.041
	c0.188,0.609,0.247,1.252,0.175,1.885c-0.071,0.634-0.273,1.245-0.596,1.797c-0.69,0.996-1.666,1.761-2.797,2.195
	c-2.041,0.781-4.201,1.207-6.385,1.26c-4.234,0.141-8.472-0.125-12.655-0.793c-4.179-0.569-8.309-1.451-12.354-2.636
	c-1.018-0.312-2.016-0.681-2.992-1.104c-0.937-0.432-1.908-0.785-2.904-1.06c-1.997-0.52-4.053-0.782-6.115-0.782
	c-2.041-0.056-4.081,0.196-6.049,0.748c-0.972,0.294-1.924,0.649-2.851,1.064c-0.466,0.207-0.921,0.428-1.381,0.661
	c-0.499,0.248-1.011,0.471-1.533,0.664c-2.112,0.744-4.376,0.95-6.589,0.602c-2.198-0.342-4.292-1.176-6.125-2.44
	c-0.974-0.643-1.791-1.496-2.39-2.495c-0.164-0.297-0.277-0.618-0.337-0.953c-0.076-0.396-0.029-0.807,0.138-1.174l0.144-0.27
	l0.059-0.138l0.128-0.271c0.085-0.219,0.155-0.443,0.211-0.671c0.465-2.005,0.762-4.046,0.891-6.1
	c0.318-4.164,0.512-8.357,0.665-12.554c0-0.011,0.003-0.023,0.007-0.034c0.005-0.011,0.012-0.021,0.021-0.029
	c0.008-0.008,0.018-0.015,0.029-0.019c0.011-0.004,0.022-0.006,0.034-0.006c0.023,0.001,0.044,0.01,0.061,0.024
	C259.242,291.985,259.251,292.006,259.253,292.029z"/>
<path fill="#020202" d="M312.313,250.085c0.876,1.611,1.665,3.269,2.416,4.943c0.748,1.676,1.458,3.372,2.068,5.111
	c0.626,1.738,1.158,3.512,1.595,5.309c0.479,1.827,0.706,3.711,0.675,5.601c-0.014,0.489-0.064,0.978-0.154,1.459
	c-0.042,0.247-0.099,0.492-0.17,0.733l-0.112,0.365c-0.016,0.055-0.046,0.139-0.05,0.167c-0.004,0.024-0.008,0.05-0.016,0.074
	c-0.111,0.432,0.328,1.227,0.872,1.799c1.201,1.216,2.673,2.129,4.296,2.665c1.625,0.57,3.348,0.811,5.067,0.706
	c1.729-0.121,3.415-0.598,4.952-1.397c1.708-0.813,3.517-1.395,5.377-1.73c1.856-0.288,3.738-0.355,5.609-0.203
	c1.86,0.118,3.701,0.443,5.487,0.971c0.894,0.264,1.768,0.584,2.619,0.958c0.813,0.405,1.646,0.767,2.497,1.083
	c3.458,1.138,7.026,1.909,10.646,2.298c3.604,0.462,7.248,0.567,10.875,0.32c1.789-0.123,3.563-0.414,5.298-0.868
	c0.839-0.232,1.655-0.546,2.434-0.937c0.747-0.346,1.416-0.843,1.964-1.46c0.521-0.565,0.83-1.295,0.876-2.064
	c0.071-0.785-0.059-1.575-0.378-2.296c-0.35-0.751-0.821-1.438-1.395-2.037c-0.585-0.656-1.212-1.273-1.877-1.848
	c-2.721-2.302-5.814-4.121-9.147-5.382c-1.668-0.653-3.369-1.213-5.1-1.674c-1.736-0.468-3.573-0.938-5.319-1.53
	c-3.528-1.166-6.938-2.659-10.188-4.458c-3.224-1.828-6.284-3.93-9.147-6.28c-2.881-2.319-5.518-4.929-7.868-7.786
	c-2.371-2.838-4.223-6.073-5.466-9.558c-0.008-0.022-0.007-0.048,0.005-0.07c0.011-0.021,0.029-0.038,0.051-0.045
	c0.022-0.008,0.046-0.006,0.067,0.003c0.021,0.011,0.037,0.027,0.046,0.047c1.497,3.313,3.522,6.363,5.993,9.028
	c2.449,2.672,5.143,5.104,8.048,7.269c5.715,4.432,12.168,7.822,19.062,10.014c1.723,0.567,3.428,1.021,5.222,1.503
	c1.806,0.476,3.578,1.074,5.303,1.789c3.501,1.395,6.739,3.374,9.573,5.858c0.707,0.633,1.374,1.313,1.993,2.032
	c0.682,0.737,1.23,1.588,1.621,2.514c0.396,0.972,0.537,2.028,0.409,3.07c-0.061,0.532-0.199,1.053-0.412,1.543
	c-0.235,0.476-0.536,0.917-0.894,1.31c-0.689,0.737-1.521,1.326-2.447,1.729c-0.875,0.393-1.785,0.699-2.721,0.914
	c-1.823,0.395-3.682,0.614-5.549,0.66c-3.685,0.081-7.368-0.146-11.014-0.679c-3.648-0.475-7.248-1.269-10.759-2.375
	c-0.864-0.296-1.756-0.676-2.56-1.034c-0.833-0.34-1.687-0.622-2.559-0.844c-1.746-0.425-3.537-0.653-5.335-0.682
	c-1.783-0.06-3.568,0.088-5.317,0.439c-1.727,0.402-3.394,1.021-4.963,1.843c-1.697,0.944-3.581,1.51-5.519,1.652
	c-1.937,0.145-3.883-0.136-5.701-0.82c-1.853-0.651-3.522-1.738-4.869-3.17c-0.351-0.391-0.648-0.824-0.885-1.293
	c-0.294-0.55-0.395-1.185-0.282-1.798l0.071-0.257l0.051-0.161l0.095-0.288c0.063-0.196,0.111-0.397,0.149-0.6
	c0.084-0.416,0.138-0.838,0.155-1.262c-0.021-3.588-0.624-7.147-1.785-10.542c-1.074-3.484-2.324-6.913-3.743-10.272
	c-0.01-0.022-0.012-0.046-0.002-0.069c0.009-0.021,0.025-0.04,0.047-0.05c0.022-0.009,0.045-0.009,0.066-0.002
	C312.283,250.051,312.302,250.065,312.313,250.085z"/>
<path fill="#020202" d="M165.929,91.849c0.352-0.012,0.686-0.161,0.931-0.414c0.244-0.254,0.381-0.592,0.381-0.945
	c0-0.352-0.137-0.69-0.381-0.944c-0.245-0.253-0.579-0.402-0.931-0.414c-0.352,0.012-0.686,0.161-0.931,0.414
	c-0.245,0.253-0.381,0.592-0.381,0.944c0,0.353,0.137,0.691,0.381,0.945C165.244,91.688,165.577,91.837,165.929,91.849z"/>
<path fill="#020202" d="M144.388,93.535c0.353-0.012,0.686-0.161,0.931-0.414c0.245-0.254,0.381-0.592,0.381-0.945
	c0-0.352-0.136-0.69-0.381-0.944c-0.245-0.253-0.578-0.402-0.931-0.414c-0.352,0.012-0.686,0.161-0.93,0.414
	c-0.245,0.253-0.381,0.592-0.381,0.944c0,0.353,0.136,0.691,0.381,0.945C143.702,93.374,144.036,93.523,144.388,93.535z"/>
<path fill="#020202" d="M162.061,101.591c0.63,0.774,1.151,1.471,1.766,2.086c0.299,0.314,0.621,0.605,0.964,0.871
	c0.342,0.287,0.727,0.511,1.139,0.818c-0.505,0.067-1.019-0.003-1.487-0.203c-0.477-0.192-0.907-0.483-1.263-0.852
	c-0.352-0.365-0.635-0.791-0.836-1.255C162.135,102.595,162.038,102.094,162.061,101.591z"/>
<path fill="#020202" d="M168.413,86.273c-0.475,0.113-0.975,0.069-1.422-0.125c-0.448-0.195-0.82-0.53-1.061-0.955
	c0.474-0.125,0.977-0.081,1.421,0.124C167.804,85.506,168.178,85.843,168.413,86.273z"/>
<path fill="#020202" d="M142.991,94.903c0.463,0.06,0.929,0.092,1.396,0.098c0.426,0.006,0.835-0.06,1.397-0.098
	c-0.135,0.244-0.339,0.442-0.586,0.571c-0.25,0.134-0.528,0.205-0.81,0.205c-0.282,0.01-0.561-0.058-0.806-0.193
	C143.336,95.348,143.132,95.147,142.991,94.903z"/>
<path fill="#020202" d="M162.951,179.258c0.352-0.012,0.686-0.16,0.931-0.414c0.245-0.253,0.381-0.592,0.381-0.944
	s-0.137-0.69-0.381-0.943c-0.245-0.254-0.579-0.402-0.931-0.415c-0.352,0.013-0.686,0.161-0.93,0.415
	c-0.245,0.253-0.382,0.591-0.382,0.943s0.137,0.691,0.382,0.944C162.265,179.098,162.599,179.246,162.951,179.258z"/>
<path fill="#020202" d="M167.514,175.347c0.352-0.013,0.686-0.161,0.931-0.414s0.382-0.592,0.382-0.944
	c0-0.352-0.137-0.69-0.382-0.943c-0.245-0.254-0.579-0.402-0.931-0.415c-0.352,0.013-0.686,0.161-0.93,0.415
	c-0.245,0.253-0.381,0.592-0.381,0.943c0,0.353,0.137,0.691,0.381,0.944S167.162,175.334,167.514,175.347z"/>
<path fill="#020202" d="M172.294,170.567c0.353-0.012,0.686-0.161,0.931-0.414c0.244-0.253,0.382-0.592,0.382-0.944
	s-0.138-0.691-0.382-0.944c-0.245-0.254-0.578-0.401-0.931-0.414c-0.352,0.013-0.686,0.16-0.93,0.414
	c-0.245,0.253-0.382,0.592-0.382,0.944s0.137,0.691,0.382,0.944C171.608,170.406,171.942,170.555,172.294,170.567z"/>
<path fill="#020202" d="M176.423,165.134c0.353-0.013,0.686-0.161,0.931-0.414c0.246-0.254,0.382-0.592,0.382-0.944
	c0-0.353-0.136-0.691-0.382-0.944c-0.245-0.253-0.578-0.402-0.931-0.414c-0.352,0.012-0.686,0.161-0.93,0.414
	c-0.246,0.253-0.382,0.592-0.382,0.944c0,0.352,0.136,0.69,0.382,0.944C175.737,164.973,176.071,165.121,176.423,165.134z"/>
<path fill="#020202" d="M179.9,159.701c0.352-0.012,0.686-0.161,0.93-0.414c0.245-0.254,0.382-0.592,0.382-0.945
	s-0.137-0.69-0.382-0.944c-0.244-0.253-0.578-0.402-0.93-0.414c-0.353,0.012-0.686,0.161-0.931,0.414
	c-0.244,0.254-0.382,0.591-0.382,0.944s0.138,0.69,0.382,0.945C179.215,159.541,179.548,159.69,179.9,159.701z"/>
</svg>
