<svg width="112" height="33" viewBox="0 0 112 33" fill="none" xmlns="http://www.w3.org/2000/svg">
<rect y="2" width="112" height="28" rx="14" fill="#F23F3F"/>
<path d="M39.0837 10.02C40.6303 10.02 41.957 10.3 43.0637 10.86C44.1703 11.42 45.017 12.2267 45.6037 13.28C46.1903 14.3333 46.4837 15.5867 46.4837 17.04C46.4837 18.48 46.1903 19.7267 45.6037 20.78C45.017 21.82 44.1703 22.62 43.0637 23.18C41.957 23.7267 40.6303 24 39.0837 24H34.9437V10.02H39.0837ZM39.0837 22.84C41.0303 22.84 42.5103 22.3333 43.5237 21.32C44.5503 20.2933 45.0637 18.8667 45.0637 17.04C45.0637 15.2 44.5503 13.7667 43.5237 12.74C42.5103 11.7 41.0303 11.18 39.0837 11.18H36.3437V22.84H39.0837ZM55.3448 24.14C54.0514 24.14 52.8781 23.84 51.8248 23.24C50.7714 22.6267 49.9381 21.78 49.3248 20.7C48.7248 19.6067 48.4248 18.3733 48.4248 17C48.4248 15.6267 48.7248 14.4 49.3248 13.32C49.9381 12.2267 50.7714 11.38 51.8248 10.78C52.8781 10.1667 54.0514 9.86 55.3448 9.86C56.6514 9.86 57.8314 10.1667 58.8848 10.78C59.9381 11.38 60.7648 12.2267 61.3648 13.32C61.9648 14.4 62.2648 15.6267 62.2648 17C62.2648 18.3733 61.9648 19.6067 61.3648 20.7C60.7648 21.78 59.9381 22.6267 58.8848 23.24C57.8314 23.84 56.6514 24.14 55.3448 24.14ZM55.3448 22.92C56.3848 22.92 57.3181 22.68 58.1448 22.2C58.9714 21.72 59.6248 21.0333 60.1048 20.14C60.5848 19.2333 60.8248 18.1867 60.8248 17C60.8248 15.8133 60.5848 14.7733 60.1048 13.88C59.6248 12.9867 58.9714 12.3 58.1448 11.82C57.3181 11.34 56.3848 11.1 55.3448 11.1C54.3048 11.1 53.3714 11.34 52.5448 11.82C51.7181 12.3 51.0648 12.9867 50.5848 13.88C50.1048 14.7733 49.8648 15.8133 49.8648 17C49.8648 18.1867 50.1048 19.2333 50.5848 20.14C51.0648 21.0333 51.7181 21.72 52.5448 22.2C53.3714 22.68 54.3048 22.92 55.3448 22.92ZM64.1865 17C64.1865 15.6267 64.4865 14.4 65.0865 13.32C65.6865 12.2267 66.5065 11.38 67.5465 10.78C68.5865 10.1667 69.7465 9.86 71.0265 9.86C72.5865 9.86 73.9198 10.2333 75.0265 10.98C76.1465 11.7133 76.9598 12.7533 77.4665 14.1H75.8265C75.4265 13.1533 74.8131 12.4133 73.9865 11.88C73.1731 11.3467 72.1865 11.08 71.0265 11.08C69.9998 11.08 69.0731 11.32 68.2465 11.8C67.4331 12.28 66.7931 12.9733 66.3265 13.88C65.8598 14.7733 65.6265 15.8133 65.6265 17C65.6265 18.1867 65.8598 19.2267 66.3265 20.12C66.7931 21.0133 67.4331 21.7 68.2465 22.18C69.0731 22.66 69.9998 22.9 71.0265 22.9C72.1865 22.9 73.1731 22.64 73.9865 22.12C74.8131 21.5867 75.4265 20.8533 75.8265 19.92H77.4665C76.9598 21.2533 76.1465 22.2867 75.0265 23.02C73.9065 23.7533 72.5731 24.12 71.0265 24.12C69.7465 24.12 68.5865 23.82 67.5465 23.22C66.5065 22.6067 65.6865 21.76 65.0865 20.68C64.4865 19.6 64.1865 18.3733 64.1865 17Z" fill="white"/>
</svg>
