<svg width="526" height="335" viewBox="0 0 526 335" fill="none" xmlns="http://www.w3.org/2000/svg">
<path d="M275.632 58.7953C351.694 75.8443 377.722 28.0677 433.749 124.462C483.242 209.614 433.749 268.712 325.983 291.089C171.466 323.173 67.8287 190.038 71.0741 124.462C74.3195 58.8852 182.219 37.8573 275.632 58.7953Z" fill="#FFF4F4"/>
<path d="M480.34 191.186C479.69 190.336 479.12 189.436 478.55 188.526C467.56 171.246 419.54 179.436 419.54 179.436C414.11 221.096 404.66 216.186 402.91 213.566C401.16 210.946 398 185.216 395.91 181.716C389.87 181.186 377.53 181.276 377.53 181.276C365.62 181.556 354.42 192.036 343.4 209.106C332.38 226.166 312.95 240.606 312.95 240.606C312.95 240.606 318.72 241.136 320.82 253.736C322.11 254.136 325.98 252.426 328.8 251.046C331.316 249.815 334.122 249.3 336.91 249.556C341.45 249.976 347.98 251.426 353.2 256.366C353.842 256.965 354.524 257.519 355.24 258.026C355.9 257.656 356.27 257.406 356.27 257.406C367.03 252.946 373.33 237.456 373.33 237.456C372.457 235.508 371.949 233.417 371.83 231.286C371.66 229.165 371.69 227.032 371.92 224.916C372.15 222.846 372.31 220.796 372.37 218.736C372.475 216.659 372.385 214.576 372.1 212.516C372.958 214.473 373.446 216.572 373.54 218.706C373.687 220.826 373.644 222.954 373.41 225.066C373.18 227.126 373.05 229.176 373 231.246C372.926 233.322 373.037 235.4 373.33 237.456C373.934 242.983 375.241 248.41 377.22 253.606C380.063 254.548 382.995 255.195 385.97 255.536C387.434 255.703 388.909 255.75 390.38 255.676C391.887 255.592 393.389 255.432 394.88 255.196C393.535 256.002 392.054 256.558 390.51 256.836C389.738 256.985 388.956 257.079 388.17 257.116C387.383 257.126 386.595 257.096 385.81 257.026C384.249 256.857 382.717 256.487 381.25 255.926C379.788 255.382 378.426 254.598 377.22 253.606C378.063 255.919 379.181 258.121 380.55 260.166C387.968 260.593 395.238 262.415 401.98 265.536C403.69 266.326 405.26 267.386 406.84 268.166C408.449 268.969 410.134 269.608 411.87 270.076C415.366 271.027 418.968 271.538 422.59 271.596C424.43 271.656 426.18 271.556 428.08 271.496C429.947 271.475 431.814 271.565 433.67 271.766C437.35 272.146 441.02 272.566 444.66 273.206C446.05 273.446 447.43 273.706 448.81 273.976C448.171 273.108 447.621 272.176 447.17 271.196C446.468 269.72 445.941 268.165 445.6 266.566C445.251 264.967 445.04 263.341 444.97 261.706C444.88 260.057 444.943 258.403 445.16 256.766L445.17 256.716L445.19 256.646C445.738 254.872 446.077 253.039 446.2 251.186C446.355 249.307 446.375 247.418 446.26 245.536C446.13 243.652 445.9 241.776 445.57 239.916C445.21 238.086 444.73 236.176 444.47 234.246C443.946 230.399 443.826 226.508 444.11 222.636C444.21 220.706 444.41 218.776 444.7 216.876C444.967 214.969 445.331 213.076 445.79 211.206C445.316 215.008 445.056 218.834 445.01 222.666C444.955 226.47 445.233 230.271 445.84 234.026C445.97 234.966 446.2 235.886 446.39 236.806L447.01 239.646C447.379 241.565 447.623 243.506 447.74 245.456C448.036 249.366 447.585 253.296 446.41 257.036C446.162 258.574 446.035 260.129 446.03 261.686C446.019 263.27 446.143 264.853 446.4 266.416C446.652 267.984 447.054 269.525 447.6 271.016C447.986 272.064 448.471 273.072 449.05 274.026C451.22 274.466 453.37 274.966 455.5 275.556C459.081 276.492 462.524 277.894 465.74 279.726C462.417 278.163 458.919 277.001 455.32 276.266C453.47 275.836 451.607 275.463 449.73 275.146C449.725 275.141 449.718 275.137 449.71 275.136C447.98 274.836 446.24 274.576 444.49 274.346C440.85 273.876 437.2 273.466 433.55 273.176C431.742 273.007 429.926 272.937 428.11 272.966C426.34 273.026 424.4 273.156 422.56 273.096C418.811 273.019 415.088 272.461 411.48 271.436C409.67 270.907 407.915 270.203 406.24 269.336C405.4 268.926 404.581 268.376 403.81 267.926C403.04 267.456 402.27 266.966 401.46 266.566C398.226 264.868 394.82 263.521 391.3 262.546C387.78 261.491 384.187 260.696 380.55 260.166L372.28 260.956C372.536 261.308 372.722 261.705 372.83 262.126C374.96 269.016 371.89 296.006 371.89 296.006C383.7 304.666 449.07 318.056 449.07 318.056C491.21 325.146 491.6 287.726 491.6 287.726C499.14 220.576 484.32 196.346 480.34 191.186ZM427.61 259.636C426.838 259.785 426.056 259.879 425.27 259.916C424.483 259.926 423.695 259.896 422.91 259.826C421.349 259.657 419.817 259.287 418.35 258.726C416.887 258.182 415.526 257.398 414.32 256.406C417.163 257.348 420.095 257.995 423.07 258.336C424.534 258.503 426.009 258.55 427.48 258.476C428.987 258.392 430.489 258.232 431.98 257.996C430.635 258.802 429.154 259.358 427.61 259.636V259.636Z" fill="black"/>
<path d="M395.822 181.763C395.534 181.329 395.214 180.917 394.864 180.531C394.515 180.152 394.132 179.805 393.72 179.496C393.31 179.193 392.869 178.937 392.402 178.733C391.954 178.531 391.476 178.402 390.987 178.35L391.143 178.319C390.14 178.802 389.079 179.157 387.986 179.374C386.877 179.613 385.734 179.651 384.611 179.485C383.445 179.312 382.346 178.832 381.427 178.094C380.583 177.337 379.842 176.473 379.223 175.522C378.016 173.693 376.943 171.779 376.011 169.795C375.073 167.824 374.228 165.833 373.441 163.786L374.249 164.32C373.318 164.414 372.378 164.271 371.516 163.904C371.014 163.669 370.591 163.294 370.297 162.824C370.026 162.37 369.864 161.859 369.825 161.331C369.778 160.427 369.906 159.523 370.203 158.668C370.464 157.852 370.808 157.065 371.229 156.319C372.02 155.163 372.391 153.771 372.28 152.374C372.217 151.694 372.03 151.032 371.728 150.419L371.183 149.399C370.994 149.037 370.812 148.669 370.641 148.293C370.287 147.54 370.006 146.755 369.799 145.949C369.574 145.165 369.391 144.368 369.252 143.564C369.079 142.765 369.025 141.947 368.924 141.138C368.893 140.322 368.843 139.508 368.886 138.692C368.954 135.413 369.757 132.191 371.235 129.262C371.286 129.164 371.365 129.082 371.461 129.026C371.557 128.97 371.667 128.943 371.778 128.947C371.889 128.951 371.996 128.987 372.088 129.05C372.179 129.113 372.251 129.201 372.294 129.303L372.304 129.325C373.524 132.143 375.082 134.803 376.943 137.246C378.796 139.713 381.021 141.877 383.54 143.659C386.051 145.446 388.92 146.667 391.949 147.239C394.972 147.797 398.079 147.713 401.069 146.995L401.09 146.99C401.16 146.974 401.234 146.978 401.302 147.003C401.37 147.027 401.429 147.07 401.474 147.127C402.68 148.788 403.52 150.685 403.939 152.695C404.385 154.657 404.612 156.664 404.618 158.676C404.628 160.68 404.486 162.681 404.191 164.662C403.839 166.543 403.706 168.459 403.796 170.371C403.886 172.218 404.386 174.023 405.259 175.653C406.13 177.224 407.461 178.491 409.074 179.283C410.717 180.049 412.533 180.372 414.34 180.219C416.192 180.07 418.004 179.603 419.698 178.84C419.861 178.769 420.04 178.743 420.216 178.763C420.393 178.784 420.561 178.85 420.704 178.957C420.847 179.063 420.959 179.205 421.029 179.368C421.099 179.532 421.125 179.711 421.104 179.887L421.102 179.9C420.368 186.274 419.226 192.594 417.684 198.822C416.885 201.965 415.835 205.039 414.543 208.014C413.88 209.534 413.066 210.983 412.112 212.34C411.613 213.039 411.048 213.688 410.423 214.277C409.774 214.913 409.012 215.421 408.176 215.775C407.28 216.16 406.289 216.269 405.331 216.089C404.382 215.894 403.51 215.429 402.82 214.749C402.452 214.4 402.158 213.98 401.956 213.514C401.794 213.111 401.658 212.699 401.546 212.28C401.322 211.481 401.152 210.694 400.984 209.905C400.324 206.757 399.87 203.603 399.366 200.455L397.885 191.019C397.631 189.449 397.366 187.881 397.059 186.323C396.809 184.763 396.395 183.235 395.822 181.763L395.816 181.749C395.805 181.726 395.804 181.699 395.812 181.674C395.821 181.65 395.838 181.63 395.861 181.619C395.885 181.607 395.911 181.605 395.936 181.613C395.96 181.62 395.981 181.637 395.993 181.66C396.69 183.111 397.214 184.638 397.555 186.21C397.952 187.759 398.306 189.315 398.649 190.873C399.343 193.989 399.927 197.123 400.553 200.245C401.169 203.367 401.806 206.491 402.507 209.566C402.69 210.33 402.877 211.096 403.102 211.825C403.203 212.173 403.326 212.515 403.467 212.849C403.591 213.112 403.767 213.347 403.986 213.538C404.44 213.978 405.017 214.269 405.64 214.372C406.264 214.475 406.904 214.386 407.475 214.116C408.735 213.443 409.794 212.448 410.543 211.232C411.382 209.954 412.104 208.603 412.699 207.194C413.91 204.308 414.888 201.33 415.623 198.288C417.11 192.137 418.269 185.912 419.095 179.639L420.499 180.699C418.583 181.529 416.538 182.023 414.455 182.159C412.316 182.305 410.175 181.888 408.247 180.95C406.309 179.974 404.724 178.419 403.711 176.499C402.758 174.626 402.234 172.563 402.177 170.462C402.125 168.436 402.314 166.411 402.74 164.429C403.097 162.527 403.308 160.601 403.37 158.666C403.441 156.739 403.293 154.811 402.928 152.917C402.6 151.049 401.89 149.269 400.843 147.687L401.248 147.819C398.141 148.463 394.938 148.49 391.82 147.898C390.268 147.595 388.755 147.115 387.312 146.468C385.866 145.838 384.483 145.071 383.183 144.177C380.595 142.375 378.279 140.211 376.306 137.751C374.287 135.313 372.574 132.637 371.205 129.784L372.273 129.846C371.019 132.631 370.395 135.658 370.448 138.712C370.454 140.235 370.613 141.754 370.924 143.246C371.069 143.993 371.254 144.731 371.481 145.458C371.68 146.177 371.94 146.878 372.258 147.553C372.414 147.894 372.584 148.232 372.761 148.569C372.939 148.914 373.122 149.209 373.334 149.633C373.734 150.438 373.984 151.309 374.071 152.203C374.207 153.981 373.734 155.753 372.732 157.228C371.993 158.42 371.578 159.784 371.527 161.185C371.523 161.438 371.59 161.687 371.721 161.903C371.852 162.119 372.041 162.294 372.267 162.408C372.865 162.656 373.514 162.756 374.16 162.699L374.17 162.698C374.343 162.69 374.513 162.738 374.657 162.834C374.8 162.931 374.909 163.07 374.968 163.233C375.683 165.23 376.491 167.227 377.353 169.177C378.182 171.133 379.152 173.027 380.253 174.845C380.779 175.726 381.417 176.535 382.152 177.252C382.903 177.898 383.812 178.332 384.786 178.512C386.845 178.839 388.955 178.576 390.87 177.753L390.911 177.737C390.948 177.722 390.988 177.717 391.027 177.722C391.586 177.808 392.127 177.986 392.629 178.247C393.116 178.496 393.574 178.799 393.994 179.149C394.404 179.503 394.777 179.896 395.11 180.323C395.438 180.746 395.733 181.193 395.993 181.66C396 181.672 396.004 181.684 396.006 181.697C396.008 181.71 396.007 181.723 396.003 181.736C396 181.749 395.994 181.761 395.986 181.771C395.978 181.781 395.968 181.79 395.957 181.797C395.934 181.809 395.908 181.812 395.883 181.806C395.858 181.799 395.836 181.784 395.822 181.763Z" fill="black"/>
<path d="M372.154 163.273C371.95 164.864 371.737 166.441 371.57 168.021C371.414 169.602 371.262 171.179 371.214 172.755C371.136 174.323 371.201 175.894 371.408 177.45C371.51 178.22 371.717 178.973 372.023 179.688C372.31 180.421 372.788 181.065 373.408 181.551C372.675 181.174 372.07 180.588 371.67 179.868C371.274 179.146 370.98 178.373 370.798 177.571C370.455 175.98 370.323 174.351 370.405 172.727C370.471 171.117 370.656 169.514 370.957 167.932C371.239 166.351 371.639 164.794 372.154 163.273Z" fill="black"/>
<path d="M371.673 129.612C371.467 129.253 371.337 128.855 371.289 128.444C371.242 128.033 371.279 127.616 371.398 127.22L371.563 126.624L371.822 126.073C371.911 125.89 371.993 125.7 372.092 125.523L372.431 125.022C372.882 124.354 373.393 123.729 373.958 123.155C374.531 122.599 375.14 122.087 375.738 121.554C378.26 119.647 380.961 117.989 383.803 116.604C385.222 115.931 386.655 115.287 388.088 114.647C389.538 114.052 390.996 113.477 392.458 112.912C393.923 112.376 395.41 111.913 396.889 111.422C397.638 111.197 398.359 110.941 399.159 110.72C399.935 110.512 400.721 110.344 401.514 110.219C404.664 109.701 407.887 109.832 410.984 110.605C414.069 111.382 416.921 112.893 419.297 115.009C421.641 117.157 423.573 119.716 424.996 122.559C426.426 125.391 427.518 128.38 428.252 131.466L428.266 131.549C429.038 135.784 430.397 139.891 432.304 143.751C433.244 145.677 434.334 147.527 435.561 149.284C436.77 151.044 438.134 152.692 439.637 154.209L442.015 156.411C442.87 157.16 443.675 157.965 444.422 158.822C445.951 160.511 447.213 162.425 448.163 164.497C450.132 168.59 450.625 173.239 449.557 177.654C449.551 177.678 449.535 177.699 449.514 177.713C449.492 177.726 449.466 177.731 449.441 177.726C449.416 177.721 449.394 177.707 449.379 177.686C449.365 177.665 449.358 177.64 449.362 177.615L449.364 177.603C449.645 175.448 449.558 173.26 449.107 171.133C448.698 169.027 447.957 166.999 446.911 165.125C446.397 164.194 445.825 163.296 445.199 162.436C444.556 161.589 443.859 160.784 443.113 160.027C442.383 159.252 441.601 158.528 440.773 157.859L438.233 155.659C434.969 152.507 432.32 148.776 430.419 144.656C429.473 142.616 428.673 140.512 428.024 138.359C427.35 136.205 426.861 133.997 426.559 131.76L426.574 131.843C425.976 128.84 425.084 125.904 423.909 123.077C422.734 120.245 421.008 117.675 418.832 115.515C417.713 114.47 416.467 113.57 415.124 112.836C413.771 112.118 412.325 111.591 410.827 111.272C407.827 110.675 404.732 110.748 401.764 111.488C401.029 111.658 400.303 111.867 399.59 112.113C398.904 112.355 398.175 112.669 397.45 112.945L393.083 114.579C391.649 115.157 390.212 115.725 388.766 116.272L384.515 118.099C381.715 119.355 379.015 120.824 376.44 122.493C375.839 122.951 375.216 123.395 374.633 123.878C374.06 124.366 373.526 124.898 373.036 125.469L372.67 125.899C372.564 126.051 372.475 126.212 372.376 126.369L372.084 126.847L371.883 127.36C371.594 128.04 371.577 128.805 371.837 129.496L371.846 129.517C371.857 129.54 371.858 129.566 371.85 129.59C371.842 129.613 371.826 129.633 371.804 129.645C371.782 129.657 371.756 129.66 371.732 129.654C371.708 129.648 371.687 129.633 371.673 129.612V129.612Z" fill="black"/>
<path d="M374.146 148.934C375.53 147.939 377.039 147.133 378.635 146.536C379.432 146.229 380.252 145.983 381.086 145.8C381.926 145.587 382.8 145.547 383.656 145.681C382.839 145.858 382.037 146.101 381.259 146.407L378.923 147.291C377.36 147.878 375.799 148.484 374.146 148.934Z" fill="black"/>
<path d="M378.522 154.523C378.837 154.512 379.135 154.379 379.354 154.153C379.573 153.926 379.695 153.624 379.695 153.309C379.695 152.994 379.573 152.691 379.354 152.465C379.135 152.238 378.837 152.106 378.522 152.095C378.208 152.106 377.909 152.238 377.691 152.465C377.472 152.691 377.35 152.994 377.35 153.309C377.35 153.624 377.472 153.926 377.691 154.153C377.909 154.379 378.208 154.512 378.522 154.523Z" fill="black"/>
<path d="M376.564 169.23C377.173 169.249 377.782 169.232 378.389 169.179C378.981 169.125 379.564 169.054 380.143 168.944C380.721 168.831 381.298 168.702 381.876 168.543C382.456 168.387 383.038 168.215 383.656 168.06C383.196 168.497 382.671 168.859 382.099 169.135C381.525 169.414 380.917 169.617 380.29 169.739C379.027 170.011 377.708 169.831 376.564 169.23Z" fill="black"/>
<path d="M372.061 292.42C369.054 291.313 365.962 290.451 362.816 289.843C359.72 289.212 356.538 289.11 353.408 289.542L352.255 289.737L351.13 290.042C350.383 290.251 349.649 290.504 348.932 290.799C347.499 291.416 346.125 292.162 344.827 293.029C343.505 293.896 342.251 294.888 340.774 295.745C339.295 296.575 337.704 297.187 336.05 297.56C334.408 297.949 332.721 298.119 331.034 298.066C329.266 298.068 327.525 297.645 325.955 296.833C325.521 296.569 325.135 296.235 324.811 295.844C324.522 295.488 324.343 295.228 324.089 294.936C323.613 294.388 323.062 293.91 322.452 293.516C321.11 292.736 319.694 292.094 318.224 291.598C316.638 291.094 315.118 290.404 313.694 289.543C312.973 289.055 312.339 288.45 311.819 287.752C311.564 287.422 311.335 287.108 311.089 286.817C310.969 286.666 310.842 286.537 310.713 286.39C310.572 286.223 310.409 286.056 310.289 285.888C309.334 284.564 308.457 283.184 307.664 281.757C306.86 280.354 306.06 278.956 305.293 277.533L305.528 277.705L303.469 277.256C302.757 277.135 302.059 276.944 301.385 276.686C300.032 276.121 298.845 275.223 297.934 274.075C297.435 273.5 297.092 272.807 296.939 272.062C296.881 271.669 296.906 271.269 297.013 270.886C297.12 270.504 297.306 270.149 297.56 269.843C298.046 269.27 298.641 268.799 299.31 268.457C299.98 268.115 300.71 267.91 301.46 267.852C302.184 267.81 302.91 267.84 303.629 267.941L305.725 268.092C307.123 268.18 308.522 268.246 309.921 268.289C312.719 268.374 315.518 268.355 318.299 268.181C321.06 268.038 323.804 267.653 326.498 267.032C327.801 266.723 329.063 266.261 330.257 265.655C330.817 265.363 331.338 265.002 331.808 264.58C332.28 264.147 332.709 263.67 333.088 263.154C333.405 262.795 333.602 262.347 333.654 261.871C333.637 261.768 333.62 261.728 333.488 261.615C333.292 261.489 333.077 261.394 332.852 261.332C331.602 261.079 330.315 261.061 329.058 261.28C328.416 261.37 327.781 261.51 327.16 261.698C326.907 261.773 326.663 261.876 326.432 262.004L326.217 262.145C326.122 262.21 326.027 262.262 325.932 262.316C325.746 262.42 325.554 262.513 325.357 262.594C324.624 262.887 323.857 263.086 323.074 263.187C322.698 263.241 322.324 263.279 321.951 263.304C321.519 263.343 321.084 263.327 320.656 263.257C319.751 263.103 318.914 262.68 318.253 262.042C317.625 261.412 317.169 260.63 316.929 259.773C316.511 258.129 316.732 256.387 317.547 254.899C317.953 254.07 318.593 253.379 319.388 252.911C319.653 252.771 319.941 252.678 320.238 252.636C320.412 252.613 320.588 252.612 320.762 252.632C320.853 252.642 320.942 252.658 321.031 252.681L321.144 252.711L321.157 252.709C321.361 252.729 321.567 252.716 321.767 252.67C323.053 252.374 324.308 251.952 325.511 251.411C326.144 251.142 326.774 250.861 327.402 250.567L328.342 250.122C328.679 249.961 329.022 249.809 329.37 249.667C330.764 249.108 332.229 248.748 333.722 248.596C335.199 248.462 336.686 248.514 338.15 248.749C339.581 248.945 340.999 249.232 342.393 249.609C345.202 250.349 347.872 251.538 350.302 253.13C351.506 253.937 352.634 254.854 353.671 255.869C354.671 256.79 355.742 257.632 356.872 258.389C361.693 261.2 367.258 262.469 372.821 262.026L372.83 262.025C372.856 262.023 372.881 262.032 372.901 262.049C372.921 262.065 372.933 262.089 372.935 262.115C372.938 262.141 372.93 262.166 372.914 262.187C372.898 262.207 372.875 262.22 372.849 262.224C367.162 263.097 361.345 262.104 356.269 259.395C355.027 258.644 353.846 257.796 352.737 256.86C349.667 254.133 345.958 252.226 341.954 251.314C340.625 250.995 339.277 250.76 337.919 250.611C336.599 250.432 335.262 250.42 333.94 250.576C332.635 250.73 331.358 251.062 330.144 251.565C329.842 251.692 329.545 251.828 329.25 251.973L328.291 252.443C327.649 252.752 326.999 253.051 326.343 253.342C324.993 253.976 323.576 254.46 322.119 254.782C321.631 254.885 321.126 254.886 320.637 254.784L320.521 254.757C320.482 254.748 320.513 254.757 320.506 254.755L320.516 254.756C320.521 254.757 320.523 254.756 320.514 254.757C320.463 254.767 320.414 254.785 320.369 254.811C319.962 255.086 319.637 255.465 319.427 255.909C318.872 256.911 318.711 258.084 318.976 259.198C319.113 259.702 319.371 260.165 319.726 260.547C320.08 260.897 320.531 261.132 321.02 261.222C321.286 261.27 321.557 261.282 321.825 261.258C322.154 261.24 322.48 261.212 322.8 261.172C323.413 261.103 324.016 260.959 324.595 260.743C324.724 260.693 324.849 260.635 324.971 260.569C325.029 260.54 325.085 260.507 325.139 260.471L325.367 260.328C325.747 260.108 326.153 259.936 326.575 259.817C327.303 259.607 328.045 259.454 328.797 259.361C330.32 259.121 331.876 259.18 333.377 259.534C333.829 259.665 334.254 259.875 334.633 260.153C334.87 260.336 335.067 260.565 335.214 260.826C335.36 261.087 335.452 261.375 335.484 261.673C335.524 262.186 335.424 262.7 335.194 263.16C335.02 263.539 334.802 263.896 334.545 264.224C334.083 264.835 333.557 265.395 332.976 265.894C332.387 266.397 331.737 266.825 331.041 267.166C329.71 267.8 328.309 268.274 326.866 268.578C324.065 269.155 321.213 269.455 318.353 269.474C315.518 269.534 312.691 269.438 309.875 269.258C308.467 269.166 307.061 269.05 305.658 268.91L303.556 268.685C302.883 268.58 302.202 268.541 301.523 268.569C300.866 268.611 300.225 268.781 299.634 269.071C299.044 269.36 298.516 269.763 298.081 270.257C297.879 270.489 297.729 270.762 297.641 271.057C297.553 271.352 297.528 271.662 297.57 271.967C297.699 272.605 297.989 273.199 298.411 273.694C299.251 274.764 300.357 275.593 301.619 276.1C302.26 276.338 302.924 276.511 303.599 276.619L305.669 277.022C305.716 277.031 305.761 277.05 305.8 277.078C305.839 277.106 305.872 277.142 305.897 277.183L305.903 277.195C307.452 279.987 309.191 282.668 311.108 285.221C311.229 285.376 311.358 285.49 311.48 285.627C311.624 285.775 311.786 285.928 311.924 286.085C312.211 286.398 312.471 286.723 312.722 287.019C313.189 287.597 313.751 288.091 314.385 288.48C315.754 289.223 317.207 289.803 318.711 290.209C320.317 290.671 321.867 291.307 323.334 292.106C324.089 292.57 324.775 293.137 325.372 293.792C325.656 294.1 325.949 294.493 326.176 294.753C326.377 294.973 326.61 295.162 326.866 295.314C328.182 295.957 329.63 296.285 331.094 296.272C332.629 296.32 334.163 296.176 335.662 295.845C337.157 295.525 338.597 294.991 339.938 294.258C341.253 293.51 342.571 292.551 343.956 291.678C345.358 290.789 346.839 290.03 348.38 289.411C349.163 289.124 349.963 288.884 350.775 288.693L351.993 288.417L353.228 288.258C356.502 287.925 359.808 288.172 362.996 288.988C366.138 289.783 369.198 290.87 372.137 292.235C372.161 292.246 372.179 292.265 372.189 292.288C372.199 292.312 372.2 292.338 372.19 292.362C372.181 292.386 372.163 292.406 372.14 292.417C372.117 292.428 372.091 292.43 372.066 292.422L372.061 292.42Z" fill="black"/>
<path d="M305.595 277.363C307.542 277.196 309.489 277.118 311.437 277.053C313.384 276.979 315.331 276.969 317.279 276.958L320.2 276.98C321.203 276.979 322.202 277.117 323.168 277.389C325.018 278.046 326.822 278.827 328.567 279.726C327.627 279.457 326.705 279.138 325.774 278.846C324.876 278.501 323.956 278.216 323.02 277.994C322.092 277.803 321.146 277.719 320.2 277.746L317.279 277.767C315.331 277.757 313.384 277.747 311.437 277.673C309.489 277.608 307.542 277.53 305.595 277.363Z" fill="black"/>
<path d="M306.585 279.104C307.894 280.113 309.145 281.19 310.388 282.278C311.031 282.8 311.602 283.416 312.228 283.851C312.859 284.305 313.566 284.643 314.317 284.848C315.04 285.065 315.877 285.098 316.701 285.252C317.523 285.387 318.338 285.565 319.141 285.785C320.785 286.13 322.313 286.891 323.579 287.995C322.899 287.543 322.152 287.199 321.365 286.977C320.591 286.729 319.801 286.533 319 286.391C318.198 286.252 317.397 286.108 316.587 286.009C315.751 285.93 314.92 285.802 314.099 285.627C313.259 285.387 312.471 284.994 311.774 284.466C311.133 283.924 310.526 283.342 309.957 282.723C308.808 281.546 307.668 280.359 306.585 279.104Z" fill="black"/>
<path d="M288.182 253.214C287.537 251.907 286.749 250.675 285.832 249.542L285.986 249.642C284.452 249.401 283.023 248.715 281.875 247.669C281.276 247.064 280.907 246.269 280.832 245.421C280.795 245 280.814 244.577 280.888 244.161C280.99 243.765 281.114 243.374 281.259 242.992C281.959 241.5 283.193 240.325 284.716 239.697C285.478 239.335 286.307 239.136 287.151 239.114C288.059 239.108 288.947 239.387 289.689 239.911L288.373 240.331C288.574 239.787 288.85 239.272 289.191 238.803C289.515 238.343 289.894 237.924 290.32 237.557C291.181 236.821 292.202 236.299 293.302 236.031C294.364 235.777 295.464 235.72 296.547 235.863L297.32 235.963C297.622 236.007 297.918 236.08 298.205 236.182C298.739 236.364 299.251 236.605 299.731 236.902C301.543 238.073 302.993 239.727 303.916 241.677C304.822 243.524 305.482 245.481 305.878 247.5L303.991 247.615C304.155 246.331 304.541 245.085 305.133 243.934C305.724 242.749 306.603 241.73 307.691 240.974C308.802 240.247 310.095 239.846 311.423 239.817C311.74 239.804 312.058 239.814 312.374 239.845L312.846 239.875C313.031 239.883 313.214 239.913 313.392 239.964C314.031 240.154 314.634 240.448 315.176 240.835C317.124 242.365 318.564 244.448 319.307 246.811C320.092 249.047 320.6 251.372 320.821 253.732C320.302 251.456 319.558 249.238 318.599 247.11C317.726 245.035 316.288 243.247 314.449 241.948C314.015 241.681 313.543 241.481 313.05 241.352C312.944 241.327 312.835 241.317 312.727 241.322L312.32 241.319C311.017 241.253 309.729 241.621 308.657 242.366C307.854 243.033 307.196 243.857 306.721 244.786C306.246 245.716 305.965 246.732 305.895 247.774L305.894 247.78C305.87 248.006 305.766 248.215 305.602 248.372C305.438 248.528 305.223 248.621 304.997 248.634C304.771 248.647 304.547 248.579 304.366 248.443C304.185 248.306 304.058 248.11 304.008 247.889C303.625 246.05 303.006 244.268 302.166 242.588C301.381 240.973 300.188 239.591 298.704 238.58C298.35 238.355 297.972 238.171 297.577 238.03C297.402 237.964 297.221 237.916 297.036 237.887L296.348 237.791C295.479 237.665 294.595 237.694 293.736 237.875C292.913 238.047 292.142 238.41 291.485 238.935C290.843 239.456 290.334 240.123 289.998 240.879L289.958 240.974C289.872 241.176 289.709 241.336 289.505 241.418C289.302 241.5 289.074 241.497 288.872 241.412C288.804 241.382 288.74 241.344 288.682 241.299C288.19 240.965 287.618 240.769 287.025 240.731C286.431 240.694 285.839 240.816 285.309 241.086C284.074 241.522 283.039 242.391 282.396 243.532C282.063 244.067 281.901 244.69 281.933 245.319C281.964 245.948 282.188 246.553 282.573 247.051C283.52 248.072 284.74 248.799 286.089 249.146L286.122 249.156C286.172 249.171 286.215 249.203 286.243 249.246C287.068 250.474 287.72 251.809 288.182 253.214Z" fill="black"/>
<path d="M281.435 252.535C280.899 251.431 279.947 250.584 278.788 250.18C277.663 249.858 276.459 249.948 275.394 250.435C274.882 250.593 274.421 250.887 274.062 251.284C273.702 251.682 273.456 252.17 273.35 252.695C273.301 253.796 273.601 254.884 274.206 255.804C274.816 256.821 275.541 257.763 276.367 258.613C276.568 258.834 276.779 259.035 276.988 259.24L277.666 259.833C278.149 260.251 278.617 260.677 279.08 261.107C280.935 262.823 282.669 264.626 284.398 266.455C284.528 266.592 284.613 266.765 284.643 266.951L284.653 267.015C284.767 267.597 284.957 268.161 285.218 268.693C285.765 269.836 286.544 270.852 287.504 271.679C287.992 272.12 288.479 272.416 289.132 272.917C290.327 273.855 291.335 275.009 292.104 276.319C292.879 277.606 293.452 279.004 293.805 280.464L293.76 280.321C294.216 281.583 295.072 282.661 296.197 283.392C297.399 284.094 298.763 284.468 300.155 284.479C301.614 284.511 303.072 284.36 304.494 284.03C305.949 283.713 307.376 283.28 308.761 282.734C307.46 283.498 306.085 284.129 304.658 284.617C303.208 285.125 301.696 285.434 300.162 285.536C298.551 285.652 296.938 285.331 295.494 284.607C294.764 284.201 294.108 283.675 293.554 283.05C293.019 282.42 292.573 281.719 292.228 280.968L292.21 280.921L292.182 280.825C291.813 279.572 291.266 278.379 290.56 277.281C289.861 276.195 288.98 275.238 287.958 274.451C287.499 274.098 286.786 273.657 286.228 273.161C285.641 272.667 285.107 272.114 284.635 271.51C284.153 270.903 283.743 270.243 283.412 269.543C283.062 268.812 282.82 268.034 282.694 267.233L282.95 267.793C281.276 265.971 279.547 264.176 277.814 262.422C277.377 261.988 276.937 261.558 276.491 261.144L275.783 260.479C275.554 260.239 275.322 260.001 275.111 259.752C274.246 258.763 273.503 257.673 272.898 256.507C272.191 255.283 271.924 253.855 272.141 252.458C272.219 252.091 272.357 251.739 272.55 251.417C272.756 251.113 272.991 250.829 273.25 250.567L274.118 249.97L275.051 249.587C276.327 249.135 277.724 249.175 278.972 249.7C279.555 249.977 280.075 250.372 280.499 250.86C280.923 251.348 281.242 251.918 281.435 252.535Z" fill="black"/>
<path d="M283.673 267.124C283.368 266.017 283.389 264.846 283.734 263.751C283.9 263.179 284.194 262.653 284.593 262.212C284.789 261.986 285.031 261.804 285.302 261.678C285.573 261.551 285.868 261.484 286.167 261.479C285.723 261.758 285.354 262.141 285.094 262.596C284.841 263.037 284.643 263.507 284.505 263.995C284.185 264.985 283.99 266.032 283.673 267.124Z" fill="black"/>
<path d="M286.036 249.396C286.724 249.227 287.285 249.11 287.881 248.992C288.504 248.852 289.139 248.77 289.777 248.746C289.344 249.295 288.724 249.665 288.035 249.787C287.693 249.867 287.338 249.874 286.994 249.806C286.649 249.739 286.323 249.599 286.036 249.396Z" fill="black"/>
<path d="M289.687 240.604C289.675 241.472 289.789 242.338 290.026 243.174C290.235 244.008 290.68 244.765 291.308 245.353C291.639 245.633 292.025 245.842 292.441 245.968C292.856 246.093 293.293 246.133 293.724 246.083C294.173 246.047 294.618 245.973 295.054 245.864L296.341 245.399L295.094 245.982C294.656 246.136 294.206 246.253 293.749 246.332C293.275 246.426 292.788 246.422 292.315 246.322C291.843 246.222 291.396 246.026 291.001 245.748C290.227 245.149 289.642 244.34 289.317 243.418C288.97 242.519 288.757 241.573 288.687 240.612C288.681 240.546 288.688 240.479 288.708 240.416C288.728 240.353 288.76 240.294 288.803 240.243C288.846 240.193 288.898 240.151 288.957 240.121C289.016 240.09 289.081 240.072 289.147 240.067C289.213 240.062 289.279 240.07 289.342 240.091C289.405 240.111 289.464 240.144 289.514 240.188C289.564 240.231 289.605 240.284 289.634 240.344C289.664 240.403 289.681 240.468 289.686 240.534C289.687 240.55 289.687 240.565 289.687 240.58L289.687 240.604Z" fill="black"/>
<path d="M293.716 246.253C294.41 247.31 295.023 248.418 295.55 249.567C296.139 250.724 296.543 251.967 296.745 253.25C296.802 253.489 296.916 253.71 297.077 253.896C297.238 254.081 297.441 254.224 297.67 254.313C298.193 254.576 298.754 254.756 299.332 254.846C299.923 254.954 300.529 254.959 301.122 254.861C301.734 254.809 302.302 254.523 302.708 254.062C302.555 254.353 302.343 254.608 302.087 254.811C301.83 255.015 301.533 255.163 301.216 255.246C300.584 255.433 299.924 255.507 299.267 255.465C298.595 255.435 297.935 255.276 297.323 254.997C296.967 254.857 296.652 254.628 296.409 254.332C296.167 254.035 296.005 253.681 295.938 253.304C295.737 252.106 295.414 250.933 294.976 249.8L293.716 246.253Z" fill="black"/>
<path d="M305.926 247.534C306.147 249.095 306.643 250.605 307.39 251.994C307.577 252.326 307.79 252.643 308.026 252.942C308.327 253.302 308.592 253.69 308.82 254.099C309.049 254.514 309.233 254.953 309.367 255.407C309.505 255.886 309.569 256.284 309.665 256.679C309.713 257.032 309.809 257.377 309.952 257.704C310.147 257.998 310.394 258.255 310.68 258.462C310.962 258.683 311.285 258.846 311.631 258.941C311.976 259.036 312.337 259.062 312.693 259.016C313.442 258.861 314.116 258.454 314.603 257.864C315.15 257.256 315.617 256.58 315.99 255.853L315.969 255.917C316.218 254.74 316.385 253.546 316.466 252.346C316.575 251.141 316.495 249.926 316.228 248.746C316.582 249.915 316.751 251.132 316.73 252.353C316.736 253.578 316.655 254.801 316.487 256.014C316.485 256.033 316.48 256.051 316.472 256.067L316.466 256.079C316.124 256.885 315.677 257.643 315.137 258.334C314.582 259.096 313.783 259.646 312.873 259.894C312.394 259.994 311.899 259.998 311.419 259.905C310.938 259.813 310.48 259.626 310.072 259.355C309.652 259.094 309.283 258.758 308.984 258.365C308.82 258.146 308.7 257.898 308.632 257.634L308.445 257.01C308.276 256.243 307.982 255.509 307.575 254.838C307.367 254.522 307.13 254.226 306.867 253.955C306.552 253.613 306.264 253.246 306.006 252.858C305.026 251.329 304.33 249.635 303.952 247.858C303.923 247.73 303.919 247.597 303.941 247.467C303.962 247.338 304.01 247.214 304.079 247.102C304.149 246.991 304.24 246.894 304.347 246.818C304.454 246.742 304.576 246.687 304.704 246.658C304.832 246.628 304.965 246.624 305.094 246.646C305.224 246.668 305.348 246.715 305.459 246.785C305.571 246.855 305.667 246.946 305.744 247.053C305.82 247.16 305.874 247.281 305.904 247.409C305.909 247.433 305.914 247.457 305.918 247.481L305.926 247.534Z" fill="black"/>
<path d="M304.08 265.056C304.12 265.056 304.15 265.066 304.19 265.066L304.28 265.126L304.08 265.056Z" fill="black"/>
<path d="M324.37 263.706C307.19 261.096 291 254.436 286.98 252.706C286.284 252.401 285.539 252.221 284.78 252.176C281.12 251.986 279.86 253.176 279.52 254.406C279.368 255 279.411 255.627 279.643 256.195C279.876 256.762 280.285 257.24 280.81 257.556L298.68 268.796L298.69 268.786C299.59 267.703 300.633 266.748 301.79 265.946C301.368 266.834 300.848 267.673 300.24 268.446C301.904 267.989 303.66 267.996 305.32 268.466C326.01 270.426 331.21 266.106 331.21 266.106C328.99 264.036 324.37 263.706 324.37 263.706ZM309.28 261.996L313.48 265.056L303.85 263.616L295.18 257.806L309.28 261.996ZM314.68 267.186C311.1 266.856 307.53 266.446 303.96 266.046C303.89 266.033 303.823 266.01 303.76 265.976C300.46 263.986 297.17 261.976 293.91 259.916L289.02 256.806C287.42 255.736 285.79 254.706 284.2 253.606C285.91 254.506 287.59 255.456 289.28 256.376L294.31 259.246C297.63 261.136 300.91 263.096 304.19 265.066C307.71 265.496 311.25 265.936 314.77 266.436C318.32 266.936 321.88 267.456 325.42 268.076C321.83 267.856 318.25 267.526 314.68 267.186H314.68Z" fill="black"/>
<path d="M304.28 265.126L304.08 265.056C304.12 265.056 304.15 265.066 304.19 265.066L304.28 265.126Z" fill="white"/>
<path d="M182.459 121.676C182.459 121.676 179.891 120.135 177.495 122.874C177.495 122.874 173.215 116.793 155.07 122.059C155.07 122.059 157.466 126.64 159.178 126.64C160.89 126.64 155.926 134.514 151.304 134.172C151.304 134.172 143.429 145.641 149.421 156.768C155.326 167.735 159.568 171.219 165.426 164.105C165.605 163.884 165.806 163.682 166.024 163.499C167.709 162.11 175.166 156.334 177.809 160.641C178.372 161.598 178.533 162.739 178.257 163.814C177.051 168.867 171.409 187.476 155.07 180.049C155.07 180.049 136.028 172.909 140.519 155.992C140.999 154.272 141.696 152.619 142.592 151.074C143.456 149.495 143.988 147.757 144.157 145.965C144.325 144.173 144.126 142.366 143.571 140.654C142.882 138.214 141.329 136.107 139.202 134.727C137.139 133.441 134.42 132.866 132.361 136.463C131.508 137.96 131.059 139.652 131.056 141.375C131.052 142.951 131.346 144.885 132.645 145.813L131.056 148.894C130.193 147.136 129.088 145.508 127.774 144.055C125.575 141.827 124.162 138.943 123.75 135.84C123.168 130.917 123.868 123.566 129.734 114.999C129.734 114.999 137.609 99.2505 152.331 99.5929C167.053 99.9353 179.72 103.872 182.459 121.676Z" fill="black"/>
<path d="M157.809 142.217C160.366 141.633 162.993 141.416 165.612 141.575C166.93 141.64 168.239 141.839 169.518 142.167C170.824 142.447 172.037 143.054 173.044 143.929C171.881 143.389 170.639 143.039 169.365 142.893C168.106 142.712 166.837 142.581 165.556 142.523C162.996 142.365 160.423 142.353 157.809 142.217Z" fill="black"/>
<path d="M182.46 141.973C181.523 142.258 180.657 142.735 179.916 143.375C179.565 143.665 179.278 144.025 179.076 144.433C178.874 144.841 178.76 145.287 178.741 145.741C178.81 146.675 179.055 147.587 179.462 148.429L180.582 151.181C181.417 153.043 181.902 155.043 182.013 157.081C182.011 157.617 181.913 158.15 181.722 158.651C181.518 159.159 181.183 159.605 180.751 159.942C179.875 160.494 178.84 160.74 177.81 160.641C178.776 160.559 179.696 160.191 180.453 159.584C180.763 159.253 180.998 158.857 181.139 158.426C181.28 157.994 181.325 157.537 181.271 157.086C181.197 156.133 181.004 155.193 180.695 154.288C180.407 153.362 180.063 152.443 179.697 151.528C179.345 150.607 178.965 149.69 178.622 148.746C178.458 148.27 178.292 147.795 178.163 147.292C178.003 146.773 177.949 146.227 178.004 145.686C178.061 145.148 178.237 144.63 178.517 144.167C178.798 143.705 179.177 143.31 179.628 143.011C180.476 142.445 181.446 142.089 182.46 141.973Z" fill="black"/>
<path d="M182.459 121.676C182.78 123.594 183.018 125.524 183.174 127.463C183.353 129.399 183.463 131.341 183.505 133.289C183.535 135.237 183.506 137.188 183.354 139.141C183.265 141.131 182.82 143.089 182.041 144.923C182.03 144.946 182.015 144.967 181.998 144.986C181.397 145.632 180.834 146.313 180.309 147.023C180.049 147.379 179.817 147.754 179.617 148.147C179.394 148.529 179.304 148.975 179.363 149.413C179.226 148.972 179.25 148.496 179.433 148.072C179.59 147.643 179.782 147.228 180.006 146.831C180.453 146.038 180.97 145.287 181.55 144.586L181.507 144.648C181.839 143.772 182.06 142.858 182.165 141.928C182.313 140.989 182.373 140.03 182.444 139.075C182.557 137.157 182.577 135.228 182.588 133.298C182.588 129.434 182.503 125.564 182.459 121.676Z" fill="black"/>
<path d="M172.188 155.228C172.008 155.599 171.862 155.987 171.752 156.385C171.641 156.753 171.616 157.142 171.681 157.521C171.734 157.897 171.898 158.248 172.152 158.53C172.421 158.841 172.72 159.124 173.044 159.377C172.837 159.316 172.633 159.243 172.434 159.158C172.24 159.052 172.057 158.926 171.888 158.783C171.535 158.477 171.297 158.06 171.213 157.6C171.153 157.145 171.221 156.682 171.409 156.263C171.585 155.862 171.852 155.508 172.188 155.228Z" fill="black"/>
<path d="M132.645 145.812C133.237 146.556 133.71 147.388 134.046 148.277C134.226 148.731 134.356 149.204 134.434 149.686C134.476 149.939 134.493 150.195 134.484 150.451L134.479 150.648L134.491 150.755C134.486 150.824 134.501 150.894 134.535 150.955C134.681 151.268 134.941 151.515 135.261 151.645C135.641 151.84 136.042 151.991 136.455 152.098C137.335 152.335 138.239 152.466 139.15 152.489C138.25 152.841 137.276 152.958 136.319 152.827C135.819 152.776 135.33 152.651 134.868 152.456C134.596 152.35 134.347 152.192 134.137 151.99C133.926 151.788 133.758 151.546 133.641 151.279C133.579 151.128 133.549 150.966 133.552 150.804L133.549 150.563L133.556 150.414C133.567 150.206 133.562 149.999 133.542 149.792C133.505 149.354 133.436 148.919 133.337 148.489C133.143 147.61 132.888 146.726 132.645 145.812Z" fill="black"/>
<path d="M131.057 148.894C130.675 150.279 130.136 151.615 129.451 152.878C128.781 154.159 127.972 155.362 127.038 156.467C126.104 157.592 124.996 158.56 123.757 159.335C122.514 160.106 121.091 160.539 119.63 160.591C120.967 160.189 122.224 159.555 123.343 158.719C124.438 157.877 125.434 156.915 126.314 155.85C127.218 154.787 128.054 153.668 128.816 152.499C129.584 151.325 130.346 150.134 131.057 148.894Z" fill="black"/>
<path d="M143.601 188.951C144.682 188.476 145.705 187.878 146.648 187.167C147.584 186.468 148.472 185.707 149.306 184.889C150.166 184.095 150.937 183.207 151.737 182.338L152.903 180.993C153.283 180.533 153.661 180.071 154.079 179.627C153.84 180.183 153.563 180.719 153.287 181.259C152.974 181.774 152.666 182.297 152.322 182.796C151.628 183.796 150.838 184.726 149.965 185.574C149.088 186.428 148.109 187.172 147.05 187.788C146 188.425 144.822 188.822 143.601 188.951Z" fill="black"/>
<path d="M126.474 156.158C125.622 154.895 124.569 153.782 123.355 152.861C123.103 152.638 122.797 152.484 122.467 152.414C122.138 152.344 121.795 152.361 121.474 152.462C120.906 152.848 120.499 153.428 120.328 154.092C120.094 154.801 119.926 155.53 119.824 156.27C119.774 156.638 119.728 157.02 119.695 157.374C119.697 157.711 119.727 158.107 119.761 158.475C119.908 159.985 120.188 161.478 120.597 162.939C121.35 165.911 122.521 168.761 124.073 171.404C125.646 174.047 127.528 176.493 129.679 178.691C130.757 179.782 131.878 180.832 133.016 181.856C134.197 182.831 135.326 183.878 136.556 184.773C137.15 185.252 137.804 185.641 138.423 186.079C139.079 186.456 139.709 186.885 140.392 187.205C141.712 187.922 143.117 188.473 144.573 188.843C147.481 189.615 150.571 189.29 153.255 187.932C155.953 186.492 158.219 184.36 159.82 181.755C159.826 181.744 159.836 181.736 159.848 181.732C159.86 181.728 159.873 181.729 159.884 181.735C159.895 181.741 159.903 181.751 159.906 181.763C159.91 181.775 159.91 181.787 159.905 181.799C158.512 184.627 156.322 186.987 153.606 188.588C152.215 189.377 150.684 189.89 149.099 190.099C147.508 190.287 145.896 190.184 144.342 189.797C142.799 189.43 141.314 188.853 139.928 188.081C139.221 187.73 138.579 187.275 137.908 186.869C137.278 186.404 136.611 185.986 136.014 185.484C134.761 184.543 133.664 183.444 132.505 182.411C131.914 181.908 131.413 181.308 130.87 180.755C130.347 180.181 129.781 179.65 129.295 179.043C127.269 176.701 125.428 174.203 123.791 171.574C122.123 168.945 120.795 166.115 119.839 163.153C119.371 161.654 119.066 160.109 118.929 158.545C118.902 158.145 118.879 157.771 118.888 157.336C118.933 156.924 118.989 156.541 119.052 156.147C119.178 155.361 119.376 154.588 119.644 153.838C119.765 153.424 119.967 153.038 120.238 152.703C120.509 152.368 120.844 152.09 121.224 151.886C121.651 151.719 122.123 151.709 122.557 151.859C122.951 151.994 123.319 152.196 123.645 152.455C124.841 153.474 125.829 154.715 126.556 156.108C126.559 156.114 126.561 156.12 126.562 156.126C126.562 156.132 126.562 156.138 126.56 156.144C126.559 156.15 126.556 156.156 126.552 156.161C126.548 156.166 126.543 156.17 126.538 156.173C126.527 156.178 126.515 156.18 126.503 156.177C126.492 156.174 126.481 156.167 126.474 156.158Z" fill="black"/>
<path d="M129.367 152.127C127.838 151.186 126.133 150.567 124.357 150.31C122.607 149.99 120.801 150.314 119.271 151.221C118.549 151.722 117.942 152.371 117.491 153.125L115.938 155.356C114.91 156.872 113.759 158.3 112.496 159.628C112.467 159.657 112.431 159.679 112.393 159.694C112.354 159.708 112.313 159.715 112.271 159.713L112.248 159.711C105.851 159.332 99.432 159.18 93.0297 159.224C89.8279 159.25 86.6294 159.379 83.4493 159.628C80.2938 159.803 77.1694 160.345 74.1396 161.244L74.0861 161.259L74.0128 161.275C72.3359 161.704 70.7386 162.399 69.2818 163.334C68.524 163.793 67.7948 164.298 67.0982 164.845L66.0428 165.657C65.7022 165.943 65.3812 166.254 65.0494 166.55C62.4061 168.966 60.0577 171.686 58.0532 174.653C54.0298 180.637 50.7414 187.084 48.2587 193.854C47.6451 195.552 46.9731 197.229 46.4069 198.945L44.7866 204.121C44.2382 205.825 43.7479 207.631 43.1092 209.356C42.4882 211.099 41.7615 212.784 41.066 214.458L38.9244 219.485L37.8092 221.991C37.4291 222.857 37.0055 223.704 36.5399 224.528C36.4453 224.682 36.338 224.827 36.2191 224.963C36.2869 224.966 36.2928 224.81 36.2966 224.872C36.2857 224.97 36.2898 225.069 36.3088 225.165C36.3801 225.519 36.5021 225.86 36.6711 226.179C37.0448 226.893 37.5437 227.534 38.1441 228.071C39.3703 229.173 40.9037 229.874 42.5392 230.08L41.8963 231.641C40.8876 230.853 39.9329 229.998 39.0385 229.082C38.5484 228.589 38.121 228.037 37.766 227.439C37.6591 227.244 37.5742 227.038 37.5129 226.825C37.4806 226.684 37.4588 226.541 37.4476 226.397C37.4475 226.209 37.4797 226.021 37.5426 225.844C37.6143 225.653 37.7296 225.481 37.8792 225.342C37.9487 225.277 38.0218 225.217 38.0981 225.16C38.1644 225.122 38.2288 225.091 38.2961 225.06C38.5212 224.956 38.7614 224.889 39.0077 224.861C39.7112 224.811 40.4184 224.861 41.1079 225.01C41.7522 225.127 42.3689 225.283 42.9832 225.444L44.8147 226.027L46.5862 226.737C51.2134 228.825 55.3172 231.597 59.5893 234.036C63.8336 236.514 68.2232 238.735 72.7343 240.686C77.2604 242.614 81.8863 244.298 86.5922 245.731L86.5978 245.733C86.7268 245.773 86.8383 245.856 86.9139 245.968C86.9895 246.079 87.0246 246.214 87.0135 246.348C86.606 250.946 86.4409 255.563 86.5189 260.178C86.5508 262.474 86.747 264.763 87.1058 267.03C87.2764 268.137 87.5942 269.215 88.0508 270.237C88.2633 270.697 88.5813 271.101 88.9789 271.415C89.0808 271.459 89.1795 271.507 89.278 271.559C89.382 271.591 89.4929 271.589 89.5992 271.614C89.8383 271.642 90.1647 271.625 90.4433 271.633L118.263 271.709C127.536 271.754 136.808 271.704 146.081 271.693L173.9 271.599L173.579 271.741C175.474 269.746 177.547 267.929 179.773 266.312C181.994 264.672 184.407 263.309 186.958 262.253C189.537 261.168 192.307 260.612 195.104 260.618C196.523 260.643 197.934 260.848 199.302 261.227L203.156 262.518C204.444 262.936 205.736 263.344 207.03 263.721C208.274 264.14 209.562 264.418 210.869 264.55C212.32 264.713 213.724 265.169 214.994 265.888C215.663 266.245 216.267 266.712 216.781 267.268C217.069 267.576 217.291 267.939 217.436 268.334C217.581 268.73 217.644 269.151 217.623 269.572C217.659 270.289 217.634 271.007 217.55 271.72C217.461 272.548 217.111 273.326 216.551 273.942C215.948 274.537 215.153 274.9 214.308 274.966C213.564 275.045 212.813 275.021 212.076 274.896C211.374 274.785 210.679 274.627 209.998 274.422L208.053 273.834C207.431 273.656 206.799 273.518 206.159 273.421C205.63 273.312 205.084 273.317 204.556 273.436L204.748 272.112C207.322 273.915 210.344 274.969 213.48 275.159C215.064 275.243 216.654 275.152 218.219 274.887C219.835 274.666 221.438 274.395 223.066 274.124C223.886 273.994 224.701 273.851 225.602 273.793C226.096 273.752 226.594 273.782 227.079 273.88C227.666 274.006 228.196 274.318 228.59 274.771C228.928 275.174 229.188 275.637 229.355 276.136C229.832 277.476 229.904 278.928 229.56 280.308C229.318 281.225 228.886 282.081 228.294 282.821C227.702 283.561 226.961 284.17 226.12 284.607C224.544 285.416 222.828 285.919 221.064 286.09L221.834 285.51C221.422 286.45 220.911 287.343 220.31 288.175C219.712 289.014 219.016 289.779 218.237 290.453C217.418 291.139 216.486 291.678 215.483 292.046C214.451 292.393 213.36 292.532 212.274 292.453L213.096 292.115C211.425 294.062 209.786 295.973 207.904 297.814C207.664 298.042 207.41 298.273 207.127 298.501C206.836 298.723 206.531 298.925 206.215 299.108C205.621 299.443 205.004 299.735 204.368 299.982C203.128 300.463 201.846 300.831 200.539 301.078C197.951 301.561 195.309 301.683 192.688 301.44C192.034 301.394 191.388 301.288 190.738 301.215L188.813 300.877L187.008 300.582L185.17 300.39C180.169 300.133 175.154 300.295 170.18 300.874C165.171 301.382 160.176 302.138 155.206 303.018C152.74 303.456 150.298 304.036 147.81 304.584C145.332 305.134 142.846 305.67 140.353 306.174C135.366 307.17 130.357 308.077 125.318 308.799C115.242 310.294 105.075 311.098 94.8896 311.205C93.6165 311.21 92.3439 311.257 91.071 311.228L87.2524 311.142C84.7057 311.124 82.1645 310.943 79.6229 310.792C77.0781 310.683 74.5468 310.389 72.0128 310.142C70.7401 310.001 69.4935 309.923 68.1955 309.721C66.9102 309.522 65.6378 309.248 64.3848 308.899C59.324 307.534 54.7334 304.81 51.1105 301.021C47.4828 297.212 45.1888 292.329 44.5731 287.105C43.4581 276.98 43.0103 266.84 42.7564 256.696C42.535 246.552 42.5072 236.41 42.6732 226.268C42.6734 226.241 42.6842 226.216 42.7031 226.198C42.7221 226.179 42.7476 226.169 42.7741 226.169C42.8007 226.169 42.826 226.18 42.8446 226.199C42.8631 226.218 42.8734 226.243 42.8732 226.27C42.9156 236.407 43.1491 246.541 43.5736 256.669C44.0221 266.787 44.5756 276.923 45.8333 286.941C46.479 291.866 48.7077 296.448 52.1837 299.997C55.6473 303.547 60.0143 306.085 64.814 307.337C66.0064 307.658 67.2167 307.908 68.4386 308.086C69.6479 308.265 70.9351 308.338 72.1827 308.465C74.6963 308.688 77.2054 308.959 79.7292 309.044C82.2495 309.172 84.7681 309.33 87.2931 309.326L91.0779 309.379C92.3394 309.398 93.6013 309.34 94.8628 309.324L98.6472 309.247L102.428 309.051C104.95 308.951 107.465 308.73 109.981 308.528C112.5 308.364 115.004 308.029 117.516 307.784C120.02 307.472 122.526 307.163 125.023 306.789C130.021 306.064 134.991 305.155 139.943 304.156C142.419 303.651 144.888 303.114 147.359 302.561C149.82 302.014 152.312 301.418 154.837 300.964C159.848 300.067 164.885 299.295 169.963 298.771C175.065 298.166 180.21 298.015 185.337 298.319L187.281 298.531L189.226 298.859L191.044 299.186C191.653 299.257 192.259 299.361 192.87 299.406C195.303 299.644 197.757 299.544 200.162 299.109C201.348 298.89 202.512 298.564 203.638 298.133C204.186 297.924 204.717 297.677 205.23 297.393C205.463 297.26 205.687 297.113 205.903 296.953C206.114 296.784 206.331 296.591 206.551 296.383C208.304 294.688 209.985 292.758 211.622 290.866C211.717 290.755 211.837 290.667 211.97 290.608C212.104 290.549 212.25 290.521 212.396 290.526L212.444 290.528C213.259 290.587 214.078 290.487 214.854 290.233C215.639 289.945 216.37 289.526 217.014 288.992C217.674 288.423 218.266 287.777 218.775 287.069C219.292 286.361 219.734 285.601 220.095 284.803L220.097 284.797C220.165 284.643 220.271 284.51 220.405 284.409C220.54 284.308 220.698 284.244 220.865 284.223C222.378 284.085 223.853 283.667 225.214 282.989C225.839 282.679 226.392 282.239 226.836 281.698C227.279 281.158 227.603 280.53 227.786 279.856C227.966 279.176 228.004 278.465 227.897 277.77C227.83 277.126 227.605 276.509 227.241 275.974C227.098 275.794 226.895 275.674 226.669 275.634C226.348 275.572 226.02 275.554 225.695 275.581C224.955 275.619 224.146 275.746 223.343 275.866C221.727 276.118 220.087 276.378 218.445 276.585C216.764 276.848 215.059 276.925 213.361 276.816C209.898 276.574 206.572 275.363 203.765 273.321L203.75 273.31C203.64 273.229 203.554 273.119 203.502 272.992C203.45 272.865 203.434 272.726 203.455 272.591C203.476 272.456 203.535 272.329 203.623 272.224C203.712 272.119 203.827 272.041 203.957 271.998C204.746 271.762 205.581 271.728 206.386 271.9C207.089 272.014 207.784 272.173 208.467 272.376L210.417 272.987C211.035 273.181 211.665 273.332 212.303 273.44C213.533 273.649 214.871 273.626 215.529 272.94C216.223 272.264 216.266 270.926 216.234 269.59C216.24 269.438 216.234 269.286 216.216 269.134C216.214 269.024 216.19 268.915 216.144 268.814C216.055 268.574 215.921 268.353 215.748 268.164C215.339 267.721 214.86 267.348 214.33 267.06C213.235 266.427 212.026 266.016 210.771 265.85C209.374 265.699 207.999 265.39 206.671 264.93C205.361 264.534 204.065 264.11 202.773 263.676L198.912 262.337C197.662 261.986 196.374 261.789 195.076 261.751C192.427 261.722 189.799 262.223 187.346 263.225C182.392 265.322 177.923 268.419 174.22 272.323L174.207 272.337C174.167 272.378 174.119 272.41 174.066 272.432C174.013 272.454 173.957 272.465 173.899 272.465L146.083 272.371C136.811 272.36 127.539 272.31 118.267 272.356L90.4514 272.432C90.1513 272.427 89.8954 272.45 89.5587 272.423C89.3791 272.407 89.2009 272.378 89.0257 272.335L88.5382 272.109C88.0082 271.723 87.5816 271.212 87.2964 270.621C86.7871 269.532 86.4273 268.379 86.2267 267.194C85.8275 264.886 85.5945 262.552 85.5294 260.21C85.3862 255.553 85.4886 250.892 85.8364 246.247L86.2576 246.864C81.4859 245.482 76.7921 243.844 72.1964 241.957C67.6062 240.044 63.1353 237.856 58.8079 235.405C54.4613 233.017 50.324 230.243 45.9155 228.285L44.244 227.622L42.5407 227.088C41.9594 226.938 41.3766 226.794 40.8042 226.693C40.2841 226.581 39.7516 226.539 39.2204 226.566C39.1494 226.584 39.0253 226.599 39.0425 226.609L39.0309 226.606C39.0486 226.602 39.0646 226.592 39.0767 226.578C39.0851 226.551 39.1433 226.511 39.1536 226.452C39.1837 226.215 39.1525 226.437 39.2846 226.618C39.5703 227.078 39.9084 227.503 40.2921 227.885C41.1299 228.733 42.0229 229.525 42.9651 230.256L42.9733 230.262C43.1236 230.38 43.231 230.544 43.2791 230.729C43.3271 230.915 43.313 231.11 43.2392 231.287C43.1653 231.463 43.0355 231.61 42.8699 231.706C42.7043 231.802 42.5119 231.84 42.3222 231.816C40.3243 231.572 38.4492 230.721 36.9488 229.38C36.1896 228.703 35.5582 227.896 35.0849 226.996C34.8269 226.511 34.6438 225.99 34.5419 225.451C34.4754 225.101 34.4846 224.74 34.569 224.394C34.6382 224.136 34.767 223.898 34.9451 223.699C34.9649 223.644 34.9517 223.694 35.016 223.578C35.4087 222.9 35.8068 222.042 36.1825 221.24L37.2973 218.771L39.4548 213.778C40.163 212.1 40.8845 210.449 41.4922 208.77C42.1242 207.088 42.5944 205.384 43.1672 203.632L44.8321 198.41C45.4138 196.678 46.1031 194.981 46.7335 193.266C49.2976 186.388 52.6809 179.845 56.8103 173.777C57.8626 172.265 58.991 170.807 60.191 169.409C61.4137 168.022 62.7224 166.712 64.1095 165.489C64.4587 165.185 64.7961 164.867 65.1552 164.574L66.2705 163.738C67.0105 163.172 67.7841 162.651 68.5869 162.179C70.2055 161.166 71.9826 160.432 73.8442 160.008L73.7177 160.038C76.8595 159.141 80.096 158.617 83.3604 158.477C86.5837 158.265 89.8064 158.178 93.0251 158.192C99.4642 158.206 105.886 158.532 112.299 159.044L112.052 159.127C113.307 157.856 114.457 156.486 115.491 155.03L117.085 152.843C117.587 152.052 118.25 151.376 119.03 150.859C119.819 150.35 120.718 150.036 121.652 149.941C122.567 149.833 123.493 149.851 124.403 149.996C126.211 150.297 127.939 150.966 129.479 151.961C129.501 151.975 129.517 151.998 129.523 152.023C129.528 152.049 129.524 152.076 129.51 152.098C129.496 152.121 129.474 152.137 129.448 152.143C129.423 152.149 129.396 152.144 129.373 152.131L129.367 152.127Z" fill="black"/>
<path d="M82.4053 169.094C83.652 169.447 84.7833 170.124 85.6849 171.054C86.614 171.971 87.3571 173.058 87.8733 174.256C88.3905 175.448 88.6812 176.725 88.7307 178.023C88.7555 178.662 88.7228 179.302 88.6329 179.935C88.5241 180.563 88.358 181.18 88.1368 181.778C87.9149 181.159 87.8148 180.562 87.6518 179.979C87.4769 179.399 87.3721 178.822 87.1776 178.27C86.8674 177.174 86.4872 176.099 86.0392 175.052C85.5897 174.011 85.0643 173.005 84.467 172.041C83.8415 171.017 83.1529 170.032 82.4053 169.094Z" fill="black"/>
<path d="M86.7674 193.06C87.1526 197.499 87.3406 201.937 87.4591 206.374C87.5901 210.812 87.6041 215.248 87.5956 219.685C87.5496 224.121 87.4784 228.558 87.2909 232.993C87.1159 237.429 86.8698 241.864 86.4249 246.298C86.0372 241.858 85.8481 237.42 85.7302 232.983C85.5997 228.545 85.5857 224.109 85.5968 219.672C85.6452 215.236 85.7163 210.8 85.9044 206.364C86.08 201.928 86.325 197.493 86.7674 193.06Z" fill="black"/>
<path d="M178.316 163.733C181.979 166.025 185.574 168.411 189.102 170.893C190.868 172.132 192.619 173.394 194.356 174.678L196.941 176.652C197.394 176.992 197.821 177.366 198.218 177.77L198.832 178.412L199.349 179.067C200.689 180.795 201.911 182.61 203.007 184.502C204.112 186.366 205.187 188.242 206.232 190.13C208.298 193.924 210.426 197.675 212.615 201.384C213.71 203.24 214.826 205.084 215.963 206.916L217.664 209.661C218.168 210.559 218.767 211.4 219.45 212.17C220.175 212.881 221.038 213.585 221.788 214.47C222.677 215.396 223.213 216.605 223.301 217.886C223.233 219.199 222.661 220.436 221.704 221.337C221.295 221.751 220.864 222.143 220.415 222.512C220.012 222.837 219.621 223.177 219.239 223.528C218.469 224.235 217.761 224.978 217.041 225.776C216.308 226.586 215.549 227.372 214.779 228.149C213.224 229.702 211.573 231.155 209.835 232.501C208.064 233.872 206.135 235.028 204.091 235.944C203.018 236.398 201.892 236.709 200.738 236.872C199.528 237.051 198.291 236.944 197.13 236.558C196.945 236.502 196.787 236.379 196.687 236.214L196.68 236.203C195.929 234.96 195.108 233.72 194.276 232.506C193.446 231.287 192.576 230.097 191.667 228.937C190.755 227.785 189.779 226.685 188.746 225.64C187.751 224.566 186.532 223.723 185.176 223.171L185.169 223.168C185.145 223.16 185.125 223.143 185.113 223.12C185.102 223.098 185.099 223.072 185.106 223.048C185.112 223.023 185.128 223.002 185.149 222.989C185.171 222.976 185.197 222.971 185.221 222.976C186.703 223.358 188.074 224.087 189.22 225.101C190.395 226.052 191.497 227.091 192.515 228.208C194.561 230.424 196.44 232.787 198.139 235.279L197.69 234.924C199.594 235.313 201.574 235.025 203.289 234.11C205.161 233.217 206.921 232.106 208.531 230.8C210.2 229.504 211.796 228.117 213.311 226.645C214.077 225.912 214.836 225.168 215.57 224.4C216.313 223.618 217.114 222.819 217.952 222.092C218.373 221.725 218.805 221.369 219.25 221.03C219.654 220.693 220.037 220.405 220.376 220.062C221.03 219.497 221.458 218.714 221.579 217.858C221.527 216.97 221.173 216.127 220.576 215.468C219.963 214.68 219.19 213.966 218.439 213.108C218.241 212.884 218.055 212.649 217.884 212.404L217.45 211.671L216.67 210.24L215.146 207.384C214.139 205.477 213.112 203.583 212.063 201.702C209.959 197.944 207.741 194.248 205.338 190.673C202.957 187.103 200.541 183.489 197.961 180.191L197.473 179.581L196.964 179.061C196.615 178.688 196.237 178.344 195.833 178.031L193.319 176.034L188.243 172.048C184.851 169.394 181.503 166.677 178.199 163.895C178.18 163.879 178.167 163.856 178.164 163.83C178.161 163.805 178.167 163.78 178.182 163.759C178.197 163.739 178.219 163.724 178.244 163.72C178.269 163.715 178.295 163.72 178.317 163.733L178.316 163.733Z" fill="black"/>
<path d="M191.703 196.026C189.952 202.605 188.299 209.2 186.919 215.82C186.208 219.102 185.712 222.426 185.434 225.772C185.339 227.382 185.33 229.158 185.188 230.88C185.051 232.635 184.757 234.375 184.311 236.079C183.26 239.447 181.576 242.583 179.349 245.319C178.321 246.691 177.23 248.018 176.21 249.351C175.719 250.013 175.221 250.67 174.78 251.378C174.307 252.062 173.88 252.78 173.454 253.501C171.78 256.428 170.282 259.453 168.97 262.559C167.586 265.653 166.393 268.833 165.227 272.032C166.712 265.344 169.017 258.866 172.09 252.743C172.883 251.196 173.792 249.71 174.809 248.298C175.817 246.904 176.85 245.574 177.824 244.198C179.871 241.623 181.419 238.688 182.385 235.543C182.814 233.96 183.101 232.342 183.244 230.708C183.403 229.041 183.398 227.414 183.551 225.632C183.908 222.205 184.527 218.811 185.402 215.479C187.081 208.865 189.185 202.368 191.703 196.026Z" fill="black"/>
<path d="M220.965 220.791C223.165 222.5 225.25 224.321 227.368 226.016C227.903 226.428 228.437 226.834 228.96 227.191L229.832 227.71C230.152 227.913 230.458 228.126 230.748 228.349C231.871 229.253 232.904 230.264 233.833 231.367C235.678 233.551 237.129 236.039 238.121 238.721C239.159 241.376 239.452 244.265 238.969 247.075C238.677 244.376 237.906 241.75 236.692 239.322C235.509 236.928 234.036 234.689 232.307 232.654C231.473 231.633 230.551 230.688 229.55 229.83C229.309 229.615 229.059 229.417 228.809 229.233L227.942 228.632C227.372 228.19 226.832 227.711 226.325 227.198C224.345 225.233 222.55 223.088 220.965 220.791Z" fill="black"/>
<path d="M198.886 236.039C200.852 238.677 202.196 241.726 202.816 244.957C202.886 245.369 202.945 245.784 203 246.202C203.039 246.605 203.044 247.083 203.094 247.429C203.172 248.136 203.34 248.83 203.596 249.494C204.153 250.911 204.868 252.262 205.727 253.52C206.577 254.823 207.513 256.068 208.528 257.247C209.018 257.855 209.56 258.419 210.08 259.003C210.645 259.541 211.16 260.138 211.742 260.66C213.96 262.912 216.617 264.685 219.549 265.869C217.916 265.703 216.328 265.241 214.862 264.504C213.397 263.757 212.01 262.866 210.724 261.842C208.133 259.8 205.882 257.361 204.055 254.615C203.126 253.209 202.373 251.696 201.81 250.108C201.538 249.258 201.383 248.375 201.347 247.483C201.321 247.032 201.333 246.706 201.333 246.31L201.276 245.164C200.917 242.024 200.112 238.952 198.886 236.039Z" fill="black"/>
<path d="M220.965 261.704C221.165 260.415 221.611 259.178 222.28 258.059C222.937 256.927 223.734 255.884 224.653 254.953C225.582 254.039 226.614 253.234 227.727 252.556C228.28 252.219 228.851 251.913 229.438 251.64C230.037 251.393 230.637 251.154 231.247 250.954C230.186 251.69 229.14 252.398 228.147 253.167C227.157 253.928 226.214 254.748 225.325 255.624C224.448 256.508 223.638 257.455 222.902 258.458C222.151 259.474 221.502 260.561 220.965 261.704Z" fill="black"/>
<path d="M224.573 263.987C226.795 260.435 229.229 257.019 231.862 253.76C233.178 252.127 234.547 250.531 235.966 248.974C237.411 247.424 238.94 245.957 240.548 244.578C242.187 243.139 244.031 241.952 246.021 241.058C247.096 240.605 248.254 240.383 249.421 240.406C250.616 240.437 251.785 240.771 252.816 241.378C254.736 242.615 256.205 244.438 257.005 246.578C257.422 247.596 257.723 248.657 257.903 249.742C258.126 250.865 258.103 252.023 257.837 253.137L257.517 252.435C259.766 253.583 261.933 254.826 264.081 256.12C266.225 257.414 268.341 258.757 270.38 260.217C272.464 261.637 274.394 263.269 276.14 265.087C277.023 266.026 277.773 267.081 278.367 268.225C279.02 269.442 279.175 270.866 278.799 272.196L278.81 272.159C278.526 273.26 277.917 274.25 277.063 274.999C276.598 275.371 276.058 275.637 275.479 275.778C274.901 275.919 274.299 275.932 273.715 275.815C272.632 275.595 271.602 275.165 270.683 274.55C269.801 273.973 268.967 273.325 268.191 272.611L269.53 272.032C269.493 273.403 269.2 274.756 268.665 276.019C268.141 277.295 267.358 278.447 266.364 279.403C265.368 280.344 264.201 281.087 262.926 281.59C262.387 281.824 261.862 282.088 261.353 282.381C261.119 282.515 260.894 282.664 260.679 282.828C260.599 282.889 260.523 282.958 260.453 283.032C260.4 283.078 260.414 283.132 260.462 282.954L260.123 281.997C260.746 282.538 261.261 283.192 261.641 283.924C262.047 284.676 262.259 285.517 262.259 286.371C262.259 287.226 262.047 288.067 261.642 288.819C261.273 289.533 260.787 290.181 260.205 290.735C259.035 291.837 257.55 292.544 255.957 292.757C255.218 292.846 254.473 292.88 253.729 292.86C252.927 292.859 252.131 292.733 251.369 292.485L252.077 292.488C249.748 293.209 247.355 293.702 244.93 293.96C242.512 294.208 240.074 294.194 237.658 293.921C236.4 293.802 235.165 293.51 233.987 293.055C233.333 292.802 232.74 292.41 232.25 291.907C231.76 291.404 231.385 290.802 231.149 290.14C230.803 288.816 230.962 287.41 231.596 286.197C231.879 285.61 232.245 285.066 232.684 284.584C233.151 284 233.822 283.615 234.562 283.506L234.479 283.516C234.827 283.464 235.179 283.434 235.532 283.428C235.878 283.42 236.225 283.433 236.57 283.465C237.276 283.523 237.965 283.707 238.605 284.009L238.09 284.611C237.772 284.047 237.523 283.447 237.35 282.823C237.171 282.202 237.091 281.557 237.113 280.911C237.136 280.259 237.32 279.622 237.649 279.059C237.983 278.515 238.437 278.055 238.976 277.714C238.999 277.699 239.026 277.694 239.052 277.699C239.078 277.705 239.101 277.72 239.115 277.742C239.129 277.763 239.134 277.789 239.13 277.813C239.125 277.838 239.113 277.861 239.093 277.877C238.625 278.24 238.246 278.706 237.985 279.239C237.738 279.763 237.622 280.338 237.646 280.917C237.673 281.498 237.792 282.071 237.997 282.616C238.197 283.16 238.46 283.678 238.781 284.16C238.83 284.232 238.855 284.318 238.852 284.405C238.849 284.492 238.818 284.575 238.765 284.644C238.711 284.712 238.637 284.762 238.553 284.785C238.469 284.809 238.38 284.805 238.299 284.775L238.266 284.762C237.7 284.556 237.105 284.442 236.503 284.424C236.196 284.413 235.889 284.42 235.583 284.445C235.283 284.468 234.985 284.51 234.69 284.571L234.65 284.577L234.606 284.581C234.187 284.726 233.824 284.999 233.569 285.362C233.237 285.776 232.966 286.235 232.764 286.725C232.337 287.649 232.265 288.698 232.561 289.671C232.748 290.115 233.028 290.514 233.383 290.841C233.737 291.167 234.158 291.413 234.616 291.563C235.658 291.914 236.743 292.123 237.841 292.185C240.127 292.36 242.426 292.29 244.698 291.975C246.966 291.695 249.202 291.198 251.376 290.492C251.597 290.418 251.837 290.416 252.059 290.487L252.084 290.495C253.259 290.753 254.47 290.802 255.663 290.64C256.813 290.491 257.889 289.986 258.738 289.195C259.571 288.47 260.093 287.452 260.197 286.353C260.201 285.827 260.078 285.307 259.839 284.839C259.592 284.346 259.261 283.901 258.86 283.523L258.789 283.457C258.668 283.346 258.579 283.205 258.532 283.048C258.485 282.891 258.481 282.724 258.52 282.565C258.599 282.234 258.768 281.931 259.008 281.691C259.155 281.538 259.315 281.397 259.485 281.271C259.773 281.059 260.075 280.866 260.389 280.694C260.973 280.372 261.576 280.084 262.193 279.831C263.269 279.438 264.26 278.84 265.109 278.071C265.943 277.296 266.615 276.364 267.088 275.328C267.569 274.29 267.857 273.173 267.94 272.032L267.944 271.973C267.953 271.822 268.005 271.678 268.094 271.556C268.183 271.434 268.305 271.34 268.446 271.285C268.586 271.231 268.739 271.218 268.887 271.247C269.035 271.277 269.171 271.348 269.28 271.453C269.971 272.131 270.714 272.755 271.501 273.318C272.237 273.874 273.074 274.282 273.965 274.521C274.369 274.631 274.793 274.649 275.205 274.574C275.618 274.499 276.008 274.333 276.349 274.089C277.049 273.524 277.566 272.764 277.833 271.905L277.844 271.868C278.195 270.78 278.11 269.598 277.606 268.571C277.105 267.468 276.43 266.454 275.607 265.567C273.928 263.751 272.058 262.123 270.028 260.711C265.936 257.893 261.578 255.481 257.016 253.512C256.893 253.457 256.793 253.361 256.733 253.241C256.672 253.121 256.656 252.983 256.686 252.852L256.695 252.81C256.846 251.873 256.802 250.914 256.565 249.994C256.349 249.029 256.025 248.09 255.6 247.197C254.837 245.432 253.559 243.939 251.932 242.914C251.129 242.478 250.237 242.233 249.324 242.198C248.411 242.163 247.502 242.338 246.667 242.711C244.839 243.518 243.136 244.585 241.612 245.878C240.012 247.171 238.485 248.551 237.037 250.012C235.561 251.46 234.134 252.967 232.748 254.513C229.992 257.621 227.31 260.814 224.738 264.1C224.73 264.111 224.72 264.12 224.709 264.126C224.697 264.133 224.685 264.137 224.672 264.139C224.659 264.141 224.646 264.14 224.633 264.137C224.62 264.134 224.608 264.128 224.598 264.12C224.578 264.105 224.565 264.083 224.56 264.058C224.556 264.033 224.56 264.008 224.573 263.987Z" fill="black"/>
<path d="M244.657 248.751C244.667 250.602 244.903 252.445 245.358 254.24C245.595 255.088 245.97 255.891 246.47 256.616C246.942 257.298 247.653 257.778 248.463 257.96C249.297 258.161 250.168 258.151 250.998 257.932C251.86 257.733 252.676 257.373 253.405 256.873C254.92 255.82 256.229 254.499 257.267 252.974C256.532 254.749 255.359 256.308 253.859 257.508C253.085 258.152 252.177 258.614 251.202 258.86C250.226 259.107 249.207 259.13 248.221 258.93C247.19 258.679 246.292 258.05 245.704 257.168C245.167 256.331 244.794 255.4 244.603 254.424C244.261 252.547 244.279 250.621 244.657 248.751Z" fill="black"/>
<path d="M259.378 266.44C261.279 266.508 263.128 267.078 264.738 268.093C265.549 268.583 266.301 269.166 266.979 269.83C267.657 270.485 268.247 271.225 268.736 272.032C268.025 271.416 267.34 270.804 266.613 270.25C265.897 269.688 265.148 269.172 264.369 268.703C263.593 268.228 262.788 267.803 261.958 267.431C261.12 267.046 260.258 266.715 259.378 266.44Z" fill="black"/>
<path d="M238.437 284.386C238.878 284.831 239.386 285.205 239.943 285.494C240.484 285.808 241.034 286.103 241.59 286.39C242.701 286.962 243.83 287.51 244.965 288.047C247.226 289.145 249.516 290.195 251.727 291.49C249.242 290.911 246.828 290.059 244.531 288.948C243.375 288.398 242.259 287.767 241.192 287.058C240.071 286.403 239.126 285.486 238.437 284.386Z" fill="black"/>
<path d="M256.069 270.777C256.46 270.991 256.802 271.285 257.072 271.64C257.228 271.828 257.34 272.049 257.401 272.286C257.462 272.523 257.47 272.771 257.425 273.011C257.283 273.489 256.985 273.905 256.58 274.194C256.214 274.475 255.814 274.708 255.389 274.887C255.194 274.97 255.006 275.066 254.824 275.175C254.653 275.259 254.487 275.354 254.329 275.461L253.897 275.84C253.767 275.981 253.647 276.131 253.539 276.29C253.083 276.925 252.81 277.673 252.75 278.452C252.636 279.221 252.752 280.006 253.082 280.71C253.413 281.414 253.944 282.004 254.609 282.407C254.772 282.518 254.954 282.6 255.145 282.651C255.334 282.713 255.518 282.797 255.713 282.849C256.118 282.927 256.527 282.976 256.939 282.997C257.363 283.008 257.787 282.993 258.209 282.952C258.629 282.878 259.056 282.816 259.492 282.76C259.09 282.919 258.679 283.071 258.261 283.212C257.832 283.331 257.397 283.423 256.957 283.487C256.505 283.525 256.049 283.527 255.596 283.493C255.367 283.454 255.141 283.402 254.918 283.336C254.687 283.293 254.463 283.214 254.255 283.103C253.372 282.702 252.657 282.005 252.233 281.132C251.824 280.266 251.659 279.305 251.755 278.352C251.852 277.399 252.208 276.491 252.783 275.725C252.929 275.534 253.09 275.355 253.263 275.188L253.834 274.741C254.235 274.51 254.658 274.317 255.096 274.167C255.86 273.993 256.527 273.529 256.957 272.874C257.021 272.695 257.045 272.504 257.026 272.314C257.007 272.125 256.947 271.943 256.849 271.78C256.645 271.405 256.381 271.067 256.069 270.777Z" fill="black"/>
<path d="M247.965 251.604C248.082 252.13 248.242 252.645 248.445 253.144C248.613 253.617 248.913 254.034 249.308 254.344C249.506 254.484 249.731 254.58 249.97 254.625C250.208 254.67 250.453 254.663 250.688 254.604C250.946 254.558 251.2 254.492 251.448 254.409C251.699 254.313 251.945 254.202 252.211 254.115C252.002 254.293 251.773 254.449 251.548 254.62C251.298 254.754 251.038 254.868 250.769 254.961C250.481 255.059 250.175 255.089 249.873 255.049C249.572 255.009 249.283 254.899 249.031 254.729C248.571 254.354 248.245 253.84 248.101 253.264C247.949 252.724 247.903 252.161 247.965 251.604Z" fill="black"/>
<path d="M248.879 250.954C249.416 250.802 249.971 250.728 250.529 250.733C251.097 250.736 251.661 250.826 252.202 251C252.766 251.184 253.257 251.541 253.608 252.019C253.911 252.515 254.016 253.107 253.9 253.677C253.836 253.154 253.634 252.658 253.316 252.238C252.973 251.862 252.532 251.588 252.043 251.447C251.016 251.137 249.951 250.971 248.879 250.954Z" fill="black"/>
<path d="M256.524 281.048C256.722 280.642 257.024 280.295 257.399 280.043C257.599 279.905 257.824 279.808 258.062 279.759C258.3 279.709 258.545 279.709 258.784 279.756C259.239 279.902 259.638 280.185 259.927 280.565C260.046 280.758 260.17 280.945 260.272 281.14C260.349 281.351 260.437 281.551 260.497 281.762C260.204 281.429 259.945 281.097 259.653 280.807C259.382 280.531 259.045 280.328 258.673 280.219C258.303 280.131 257.913 280.182 257.577 280.361C257.198 280.545 256.845 280.775 256.524 281.048Z" fill="black"/>
<path d="M238.969 283.263C238.995 282.48 239.195 281.713 239.554 281.016C239.649 280.821 239.783 280.647 239.947 280.505C240.112 280.364 240.304 280.257 240.511 280.192C240.73 280.15 240.956 280.158 241.171 280.215C241.386 280.272 241.586 280.378 241.755 280.523C242.085 280.771 242.364 281.08 242.58 281.431C242.8 281.804 242.874 282.245 242.788 282.67C242.67 283.052 242.47 283.404 242.201 283.701C241.932 283.997 241.602 284.231 241.232 284.386C241.829 283.953 242.253 283.323 242.428 282.607C242.459 282.273 242.382 281.938 242.207 281.652C242.01 281.361 241.762 281.109 241.475 280.906C241.363 280.795 241.226 280.711 241.076 280.66C240.926 280.609 240.767 280.593 240.609 280.613C240.297 280.717 240.032 280.929 239.862 281.21C239.469 281.849 239.168 282.54 238.969 283.263Z" fill="black"/>
<path d="M226.77 277.47C226.723 278.252 226.504 279.014 226.127 279.701C226.027 279.894 225.888 280.064 225.72 280.202C225.552 280.339 225.357 280.44 225.148 280.5C224.928 280.536 224.703 280.522 224.489 280.46C224.275 280.397 224.078 280.286 223.913 280.137C223.59 279.88 223.319 279.564 223.112 279.207C222.902 278.829 222.839 278.386 222.936 277.964C223.064 277.585 223.274 277.238 223.55 276.949C223.827 276.659 224.163 276.434 224.536 276.289C223.928 276.706 223.488 277.325 223.295 278.036C223.255 278.369 223.324 278.706 223.49 278.997C223.68 279.292 223.921 279.551 224.203 279.761C224.312 279.875 224.447 279.963 224.595 280.018C224.744 280.072 224.903 280.093 225.061 280.077C225.376 279.981 225.646 279.776 225.824 279.499C226.233 278.871 226.552 278.187 226.77 277.47Z" fill="black"/>
<path d="M233.929 290.406C234.133 289.866 234.42 289.361 234.78 288.909C234.964 288.67 235.184 288.461 235.432 288.29C235.575 288.184 235.742 288.114 235.917 288.086C236.093 288.059 236.273 288.075 236.442 288.133C236.74 288.302 236.964 288.577 237.07 288.903C237.177 289.181 237.245 289.473 237.271 289.77C237.341 290.344 237.316 290.925 237.195 291.49C237.134 290.933 237.039 290.381 236.911 289.835C236.85 289.576 236.77 289.32 236.672 289.072C236.558 288.854 236.422 288.618 236.25 288.567C235.925 288.39 235.419 288.791 235.049 289.155C234.655 289.553 234.281 289.97 233.929 290.406Z" fill="black"/>
<path d="M220.96 264.046L216.92 268.496C216.92 268.496 216.95 274.186 214.07 274.426C214.07 274.426 212.61 275.746 213.65 276.016C214.58 276.246 217.93 275.416 219.38 275.586C219.38 275.586 226.25 274.226 227.42 274.966C227.772 275.205 228.068 275.517 228.288 275.881C228.507 276.246 228.644 276.653 228.69 277.076L229.25 277.016L250.92 278.306L260.32 264.046L220.96 264.046ZM248.88 274.026L218.47 273.516L222.44 267.126H252.91L248.88 274.026Z" fill="black"/>
<path d="M196.04 274.429C197.212 273.575 198.537 272.954 199.944 272.6C201.373 272.233 202.854 272.105 204.325 272.222C204.457 272.232 204.58 272.295 204.666 272.395C204.752 272.496 204.794 272.627 204.785 272.759C204.775 272.891 204.713 273.013 204.613 273.1C204.512 273.187 204.382 273.23 204.25 273.221C204.229 273.219 204.209 273.216 204.188 273.212C202.823 272.943 201.422 272.902 200.043 273.09C198.635 273.275 197.276 273.73 196.04 274.429Z" fill="black"/>
<path d="M204.257 284.758C207.071 284.811 209.884 284.908 212.698 285.176C213.394 285.238 214.122 285.352 214.795 285.43C215.474 285.504 216.159 285.517 216.84 285.471C218.19 285.379 219.515 285.061 220.76 284.53L220.793 284.516C220.914 284.462 221.052 284.459 221.176 284.507C221.3 284.555 221.399 284.65 221.453 284.772C221.506 284.893 221.51 285.031 221.462 285.155C221.414 285.278 221.318 285.378 221.197 285.431L221.169 285.443C219.791 285.945 218.337 286.208 216.87 286.22C216.145 286.227 215.422 286.169 214.708 286.049C213.989 285.921 213.334 285.777 212.634 285.672C209.866 285.242 207.06 284.977 204.257 284.758Z" fill="black"/>
<path d="M206.425 292.519C207.379 292.175 208.343 291.855 209.317 291.558C210.302 291.247 211.307 291.001 212.324 290.822C212.455 290.801 212.59 290.832 212.698 290.91C212.806 290.988 212.878 291.106 212.9 291.237C212.921 291.369 212.889 291.503 212.811 291.611C212.733 291.719 212.615 291.792 212.484 291.813C212.458 291.817 212.431 291.819 212.404 291.819H212.394C211.4 291.831 210.407 291.907 209.422 292.047C208.422 292.177 207.422 292.336 206.425 292.519Z" fill="black"/>
<path d="M210.191 267.25C210.703 267.781 211.305 268.218 211.969 268.539C212.641 268.85 213.347 269.083 214.072 269.236C213.688 269.325 213.293 269.346 212.902 269.297C212.507 269.244 212.122 269.132 211.759 268.966C211.404 268.782 211.079 268.543 210.799 268.257C210.519 267.975 210.311 267.63 210.191 267.25Z" fill="black"/>
<path d="M225.455 284.934C225.19 284.935 224.935 284.831 224.746 284.644C224.558 284.458 224.451 284.204 224.45 283.939C224.449 283.673 224.553 283.419 224.74 283.23C224.926 283.042 225.18 282.935 225.446 282.934L238.113 282.815C238.245 282.811 238.376 282.834 238.499 282.882C238.622 282.93 238.734 283.003 238.829 283.095C238.923 283.187 238.997 283.298 239.048 283.42C239.098 283.542 239.124 283.673 239.122 283.805C239.124 283.936 239.099 284.067 239.05 284.189C239.001 284.311 238.928 284.422 238.836 284.515C238.744 284.609 238.635 284.684 238.514 284.735C238.393 284.787 238.263 284.814 238.132 284.815L225.464 284.934H225.455Z" fill="black"/>
<path d="M260.263 284.61C259.998 284.61 259.744 284.505 259.556 284.317C259.368 284.13 259.263 283.876 259.263 283.611C259.263 283.345 259.368 283.091 259.555 282.903C259.742 282.716 259.997 282.61 260.262 282.61L295.18 282.564H295.181C295.447 282.564 295.701 282.669 295.889 282.856C296.076 283.044 296.182 283.298 296.182 283.563C296.182 283.828 296.077 284.083 295.89 284.271C295.702 284.458 295.448 284.564 295.183 284.564L260.265 284.61H260.263Z" fill="black"/>
<path d="M492.077 284.301C491.811 284.301 491.557 284.196 491.369 284.009C491.182 283.821 491.076 283.567 491.076 283.302C491.076 283.037 491.181 282.782 491.369 282.595C491.556 282.407 491.81 282.301 492.076 282.301L524.171 282.262H524.172C524.437 282.262 524.692 282.367 524.879 282.555C525.067 282.742 525.172 282.997 525.172 283.262C525.173 283.527 525.067 283.781 524.88 283.969C524.692 284.157 524.438 284.262 524.173 284.262L492.078 284.301H492.077Z" fill="black"/>
<path d="M309.281 283.786H306.907C306.843 283.786 306.782 283.761 306.737 283.717C306.692 283.672 306.666 283.612 306.665 283.548C306.665 283.517 306.67 283.487 306.682 283.458C306.694 283.429 306.711 283.403 306.733 283.381C306.754 283.359 306.78 283.341 306.809 283.329C306.837 283.317 306.868 283.311 306.899 283.311H309.281C309.312 283.311 309.343 283.317 309.372 283.329C309.401 283.34 309.427 283.358 309.45 283.38C309.472 283.402 309.489 283.428 309.501 283.457C309.513 283.486 309.52 283.517 309.52 283.548C309.52 283.58 309.513 283.611 309.501 283.64C309.489 283.668 309.472 283.695 309.45 283.717C309.427 283.739 309.401 283.756 309.372 283.768C309.343 283.78 309.312 283.786 309.281 283.786Z" fill="black"/>
<path d="M1.00465 287.027C0.739433 287.028 0.48459 286.924 0.296184 286.737C0.107777 286.551 0.00124138 286.297 1.07799e-05 286.031C-0.00121982 285.766 0.102956 285.511 0.289623 285.323C0.476289 285.135 0.730156 285.028 0.995372 285.027L45.0227 284.618C45.2857 284.622 45.537 284.727 45.7247 284.912C45.9125 285.096 46.0224 285.345 46.032 285.608C46.0333 285.739 46.0086 285.87 45.9595 285.991C45.9104 286.113 45.8378 286.224 45.7458 286.318C45.6538 286.412 45.5442 286.486 45.4233 286.538C45.3025 286.589 45.1726 286.616 45.0413 286.618L1.01393 287.027H1.00465Z" fill="black"/>
<path d="M167.053 148.608C167.423 148.596 167.773 148.44 168.03 148.174C168.287 147.908 168.431 147.552 168.431 147.182C168.431 146.812 168.287 146.456 168.03 146.19C167.773 145.924 167.423 145.768 167.053 145.755C166.683 145.768 166.333 145.924 166.076 146.19C165.819 146.456 165.675 146.812 165.675 147.182C165.675 147.552 165.819 147.908 166.076 148.174C166.333 148.44 166.683 148.596 167.053 148.608Z" fill="black"/>
<path d="M239.166 120.939L227.487 121.374C223.656 121.49 219.867 121.583 216.1 121.653C212.339 121.705 208.59 121.765 204.857 121.723C201.121 121.695 197.387 121.528 193.614 121.423L194.17 120.868C194.11 123.023 194.012 125.178 193.983 127.333C193.93 129.488 193.928 131.643 193.915 133.799C193.912 138.109 194.003 142.419 194.124 146.729L193.614 146.219L202.934 145.96C203.029 145.957 203.123 145.973 203.212 146.008C203.301 146.042 203.382 146.093 203.45 146.159L203.478 146.185L207.037 149.608H205.813L209.255 146.068C209.338 145.982 209.437 145.914 209.547 145.867C209.656 145.82 209.774 145.795 209.893 145.794L209.917 145.794C214.803 145.754 219.69 145.653 224.576 145.662C227.02 145.65 229.463 145.66 231.906 145.692L239.236 145.785L238.292 146.729C238.359 142.529 238.481 138.327 238.654 134.04L239.166 120.939ZM239.307 120.797L239.818 133.557C239.992 137.89 240.113 142.309 240.18 146.729C240.184 146.976 240.09 147.214 239.918 147.391C239.746 147.568 239.511 147.669 239.265 147.673H239.262L239.236 147.673L231.906 147.766C229.463 147.795 227.02 147.805 224.576 147.796C219.69 147.805 214.803 147.705 209.917 147.664L210.578 147.391L207.037 150.832L207.017 150.853C206.937 150.93 206.842 150.991 206.739 151.033C206.635 151.074 206.524 151.094 206.413 151.093C206.302 151.091 206.192 151.067 206.089 151.023C205.987 150.979 205.894 150.915 205.816 150.835L205.813 150.832L202.39 147.273L202.934 147.498L193.614 147.24L193.586 147.239C193.454 147.235 193.33 147.179 193.239 147.084C193.149 146.988 193.1 146.861 193.104 146.729V146.729C193.226 142.419 193.316 138.109 193.313 133.799C193.3 131.643 193.298 129.488 193.246 127.333C193.217 125.178 193.119 123.023 193.059 120.868C193.057 120.797 193.069 120.727 193.094 120.66C193.119 120.594 193.158 120.533 193.206 120.482C193.255 120.43 193.313 120.389 193.378 120.36C193.443 120.331 193.513 120.315 193.583 120.313H193.584L193.614 120.313C197.446 120.208 201.314 120.041 205.183 120.013C209.053 119.971 212.908 120.031 216.75 120.083C220.587 120.153 224.402 120.246 228.174 120.362L239.307 120.797Z" fill="black"/>
<path d="M373.335 73.1006L356.147 73.398L339.104 73.6128L305.255 73.8506L288.415 73.7913L271.585 73.5784C260.354 73.406 249.066 73.3238 237.784 73.3521L238.106 73.0301L238.166 85.9605L238.315 98.8912L237.784 98.3604C247.727 98.2249 257.671 98.0967 267.614 98.0279L297.444 97.8633C307.387 97.7864 317.33 97.8748 327.274 97.8726C337.217 97.8604 347.16 97.991 357.104 98.0706L357.118 98.0708C357.331 98.0727 357.534 98.1591 357.684 98.3111L361.144 101.833H360.046L363.576 98.3811L363.589 98.3682C363.655 98.3041 363.733 98.2535 363.818 98.2195C363.903 98.1854 363.995 98.1685 364.086 98.1697L373.406 98.3052L372.82 98.8912C372.888 94.6473 372.944 90.4036 373.062 86.1031L373.335 73.1006ZM373.477 72.9593L373.751 85.8177C373.868 90.1377 373.924 94.5144 373.992 98.8911C373.994 99.0441 373.936 99.1917 373.829 99.3015C373.723 99.4113 373.577 99.4744 373.424 99.4768H373.423L373.406 99.4771L364.086 99.6126L364.596 99.4014L361.144 102.931C361.002 103.077 360.807 103.16 360.604 103.162C360.4 103.165 360.204 103.086 360.058 102.943L360.057 102.942L360.046 102.931L356.524 99.4714L357.104 99.7117C347.16 99.7913 337.217 99.9219 327.274 99.9097C317.33 99.9075 307.387 99.9959 297.444 99.9189L267.614 99.7544C257.671 99.6856 247.727 99.5574 237.784 99.4219H237.771C237.702 99.421 237.634 99.4066 237.57 99.3795C237.507 99.3524 237.45 99.313 237.402 99.2637C237.354 99.2145 237.316 99.1562 237.29 99.0922C237.265 99.0283 237.252 98.96 237.253 98.8911L237.402 85.9605L237.461 73.03C237.462 72.9446 237.496 72.8626 237.556 72.8022C237.617 72.7417 237.698 72.7077 237.784 72.7075C249.105 72.7361 260.421 72.6538 271.794 72.4814L288.869 72.2686L305.935 72.209L339.897 72.447L356.759 72.6616L373.477 72.9593Z" fill="black"/>
<path d="M279.165 17.9139C271.832 18.1227 264.624 18.2679 257.457 18.3929C250.275 18.5421 243.178 18.6087 236.085 18.6634C228.993 18.7191 221.949 18.6747 214.891 18.5167C207.828 18.3958 200.733 18.1988 193.614 18.1634L193.934 17.8434C193.931 19.9984 193.9 22.1534 193.924 24.3084L193.964 30.7738C193.969 35.0841 194.074 39.3941 194.137 43.7044L193.614 43.181L202.933 43.0064C203.021 43.0047 203.108 43.0203 203.189 43.0522C203.271 43.0842 203.345 43.1319 203.408 43.1927L203.427 43.211L206.974 46.6461H205.875L209.322 43.1112C209.397 43.0344 209.486 42.9732 209.585 42.9311C209.683 42.8889 209.789 42.8667 209.896 42.8656L209.916 42.8653L227.246 42.7147C233.022 42.6688 238.799 42.6266 244.576 42.6356C256.129 42.6302 267.682 42.7992 279.236 42.953L278.484 43.7044L278.791 30.9579L279.165 17.9139ZM279.306 17.7726L279.68 30.5897L279.987 43.7044C279.992 43.8991 279.919 44.0875 279.784 44.2283C279.65 44.3692 279.465 44.4509 279.27 44.4554L279.263 44.4557L279.235 44.4559C267.682 44.6097 256.129 44.7787 244.576 44.7733C238.799 44.7826 233.022 44.7401 227.246 44.6945L209.916 44.5436L210.509 44.298L206.974 47.745L206.958 47.7604C206.813 47.902 206.618 47.9801 206.415 47.9776C206.212 47.9751 206.019 47.8921 205.877 47.7469L205.875 47.745L202.44 44.1981L202.933 44.4024L193.614 44.2279L193.596 44.2276C193.529 44.2266 193.462 44.2122 193.4 44.1854C193.338 44.1585 193.282 44.1197 193.235 44.0711C193.187 44.0225 193.15 43.9651 193.126 43.9022C193.101 43.8392 193.089 43.7721 193.09 43.7044C193.153 39.3941 193.258 35.0841 193.263 30.7738L193.303 24.3085C193.327 22.1535 193.296 19.9984 193.293 17.8434C193.293 17.7584 193.327 17.6769 193.387 17.6168C193.447 17.5567 193.529 17.5229 193.614 17.5228C200.765 17.4874 207.94 17.2904 215.148 17.1698C222.359 17.0116 229.585 16.9674 236.764 17.0228C243.941 17.0777 251.115 17.1444 258.204 17.2936C265.307 17.4183 272.369 17.5638 279.306 17.7726V17.7726Z" fill="black"/>
</svg>
