<svg width="254" height="135" viewBox="0 0 254 135" fill="none" xmlns="http://www.w3.org/2000/svg">
<path d="M119.133 59.5946C120.054 60.7674 120.514 62.1068 120.514 63.619C120.514 64.9831 120.183 66.1867 119.514 67.2236C118.845 68.2606 117.881 69.0691 116.623 69.6555C115.359 70.2419 113.867 70.532 112.149 70.532H101.193V44.991H111.676C113.401 44.991 114.886 45.2687 116.132 45.8304C117.378 46.3921 118.329 47.1698 118.974 48.1697C119.618 49.1696 119.938 50.3053 119.938 51.5706C119.938 53.0582 119.545 54.305 118.753 55.3049C117.967 56.3048 116.918 57.0146 115.604 57.4282C117.034 57.7059 118.207 58.4219 119.133 59.5946ZM106.287 55.5333H110.946C112.161 55.5333 113.094 55.2617 113.751 54.7123C114.407 54.163 114.733 53.3791 114.733 52.3484C114.733 51.3238 114.407 50.5337 113.751 49.972C113.094 49.4103 112.161 49.1326 110.946 49.1326H106.287V55.5333ZM114.309 65.483C115.003 64.8966 115.347 64.0696 115.347 62.9956C115.347 61.8969 114.984 61.039 114.254 60.4156C113.524 59.7922 112.542 59.4835 111.308 59.4835H106.287V66.3657H111.418C112.652 66.3657 113.616 66.0694 114.309 65.483Z" fill="white"/>
<path d="M140.167 65.6682H130.052L128.377 70.5382H123.025L132.158 44.954H138.093L147.226 70.5382H141.837L140.167 65.6682ZM138.786 61.5698L135.11 50.8856L131.433 61.5698H138.786Z" fill="white"/>
<path d="M172.372 70.5382H167.277L155.738 53.0088V70.5382H150.644V44.954H155.738L167.277 62.5204V44.954H172.372V70.5382Z" fill="white"/>
<path d="M196.321 75.0378L192.46 70.39C191.392 70.6555 190.3 70.7912 189.183 70.7912C186.807 70.7912 184.622 70.2296 182.634 69.1062C180.645 67.9828 179.068 66.4274 177.902 64.4399C176.735 62.4525 176.152 60.1996 176.152 57.6874C176.152 55.2 176.735 52.9595 177.902 50.972C179.068 48.9845 180.645 47.4291 182.634 46.3057C184.622 45.1823 186.807 44.6207 189.183 44.6207C191.582 44.6207 193.774 45.1823 195.75 46.3057C197.726 47.4291 199.291 48.9845 200.445 50.972C201.599 52.9595 202.176 55.2 202.176 57.6874C202.176 59.9588 201.697 62.0266 200.74 63.8906C199.782 65.7546 198.475 67.273 196.83 68.4458L202.655 75.0316H196.321V75.0378ZM182.382 62.1932C183.039 63.4894 183.953 64.4831 185.132 65.1744C186.31 65.8719 187.661 66.2176 189.189 66.2176C190.717 66.2176 192.061 65.8719 193.227 65.1744C194.394 64.477 195.302 63.4832 195.959 62.1932C196.615 60.897 196.941 59.3972 196.941 57.6936C196.941 55.9839 196.615 54.4902 195.959 53.2125C195.302 51.9287 194.394 50.9473 193.227 50.2683C192.061 49.5832 190.717 49.2437 189.189 49.2437C187.661 49.2437 186.304 49.5832 185.132 50.2683C183.953 50.9535 183.039 51.9348 182.382 53.2125C181.725 54.4902 181.4 55.9901 181.4 57.6936C181.4 59.3972 181.725 60.897 182.382 62.1932Z" fill="white"/>
<path d="M211.063 44.991V60.7982C211.063 62.5327 211.511 63.8535 212.408 64.767C213.304 65.6805 214.568 66.1373 216.195 66.1373C217.846 66.1373 219.116 65.6805 220.012 64.767C220.908 63.8535 221.356 62.5265 221.356 60.7982V44.991H226.487V60.7674C226.487 62.94 226.021 64.7732 225.088 66.2731C224.155 67.773 222.903 68.9025 221.338 69.6555C219.773 70.4147 218.03 70.7912 216.115 70.7912C214.224 70.7912 212.506 70.4147 210.965 69.6555C209.425 68.9025 208.203 67.773 207.307 66.2731C206.411 64.7732 205.963 62.9339 205.963 60.7674V44.991H211.063Z" fill="white"/>
<path d="M236.504 49.1265V55.5333H245.054V59.5947H236.504V66.3657H246.146V70.5382H231.41V44.954H246.146V49.1265H236.504Z" fill="white"/>
<path d="M131.034 82.0557V106.523H126.155V96.1101H115.733V106.523H110.854V82.0557H115.733V92.1166H126.155V82.0557H131.034Z" fill="white"/>
<path d="M140.861 105.159C138.958 104.085 137.442 102.597 136.331 100.69C135.214 98.7889 134.656 96.6285 134.656 94.2213C134.656 91.8388 135.214 89.697 136.331 87.7898C137.448 85.8887 138.958 84.395 140.861 83.3211C142.763 82.2471 144.856 81.7101 147.134 81.7101C149.435 81.7101 151.528 82.2471 153.425 83.3211C155.315 84.395 156.819 85.8887 157.917 87.7898C159.022 89.697 159.575 91.8388 159.575 94.2213C159.575 96.6285 159.022 98.7827 157.917 100.69C156.813 102.597 155.309 104.085 153.406 105.159C151.504 106.233 149.411 106.77 147.134 106.77C144.856 106.77 142.763 106.233 140.861 105.159ZM151 101.387C152.117 100.721 152.989 99.7703 153.615 98.5296C154.241 97.289 154.554 95.857 154.554 94.2152C154.554 92.5795 154.241 91.1475 153.615 89.9192C152.989 88.691 152.117 87.7528 151 87.0985C149.883 86.4442 148.594 86.1171 147.134 86.1171C145.667 86.1171 144.372 86.4442 143.248 87.0985C142.125 87.7528 141.247 88.691 140.615 89.9192C139.989 91.1475 139.676 92.5795 139.676 94.2152C139.676 95.8508 139.989 97.289 140.615 98.5296C141.241 99.7703 142.119 100.721 143.248 101.387C144.378 102.054 145.673 102.387 147.134 102.387C148.6 102.387 149.889 102.054 151 101.387Z" fill="white"/>
<path d="M168.081 102.634H176.097V106.523H163.202V82.0557H168.081V102.634Z" fill="white"/>
<path d="M194.449 83.5679C196.388 84.574 197.886 86.006 198.942 87.8639C199.997 89.7217 200.525 91.8759 200.525 94.3324C200.525 96.789 199.997 98.9308 198.942 100.764C197.886 102.597 196.382 104.017 194.449 105.023C192.509 106.029 190.263 106.529 187.703 106.529H179.203V82.0619H187.703C190.263 82.0557 192.509 82.5618 194.449 83.5679ZM193.454 100.252C194.848 98.8506 195.547 96.8754 195.547 94.3263C195.547 91.7771 194.848 89.7896 193.454 88.3515C192.061 86.9133 190.085 86.1973 187.532 86.1973H184.082V102.356H187.532C190.085 102.35 192.061 101.653 193.454 100.252Z" fill="white"/>
<path d="M216.538 82.0557V97.1964C216.538 98.8567 216.968 100.122 217.827 100.999C218.686 101.875 219.896 102.313 221.454 102.313C223.032 102.313 224.253 101.875 225.113 100.999C225.972 100.122 226.401 98.8567 226.401 97.1964V82.0557H231.318V97.1655C231.318 99.2456 230.87 101.005 229.974 102.443C229.077 103.881 227.881 104.961 226.383 105.683C224.885 106.405 223.216 106.77 221.381 106.77C219.57 106.77 217.925 106.405 216.452 105.683C214.979 104.961 213.807 103.881 212.948 102.443C212.088 101.005 211.659 99.2456 211.659 97.1655V82.0557H216.538Z" fill="white"/>
<path d="M252.836 93.3078C252.223 94.4497 251.259 95.3756 249.946 96.0792C248.632 96.7828 246.975 97.1285 244.98 97.1285H240.905V106.523H236.025V82.0557H244.98C246.864 82.0557 248.466 82.3829 249.792 83.0371C251.118 83.6914 252.112 84.5925 252.775 85.7344C253.438 86.8825 253.769 88.1786 253.769 89.623C253.763 90.9377 253.45 92.166 252.836 93.3078ZM247.767 92.24C248.417 91.6228 248.743 90.7525 248.743 89.6291C248.743 87.2466 247.417 86.0554 244.771 86.0554H240.905V93.172H244.771C246.116 93.172 247.116 92.8573 247.767 92.24Z" fill="white"/>
<path d="M202.686 90.6414C202.71 90.8081 202.913 90.8821 203.041 90.771C203.717 90.16 205.454 88.5614 206.209 87.6417C206.423 87.3763 206.638 87.0985 206.73 86.7714C206.841 86.364 206.743 85.9319 206.614 85.5307C206.294 84.5185 205.785 83.5679 205.122 82.7409C205.049 82.6483 204.901 82.71 204.907 82.8273C204.999 84.1667 204.373 85.4875 203.778 86.7158C203.778 86.722 202.44 88.9008 202.686 90.6414Z" fill="white"/>
<path d="M75.3724 40.6603C75.7553 40.9259 76.2203 40.4765 75.981 40.0885C71.5572 32.9401 67.3249 26.4929 59.8791 21.6388C57.3425 19.9844 55.4896 19.7734 52.7478 18.3369C52.3444 18.1258 51.9342 18.5956 52.2008 18.9632C59.2227 28.5625 67.5506 35.2003 75.3724 40.6603Z" fill="white"/>
<path d="M71.0034 108.032C72.9042 99.4543 69.0684 91.6047 59.2706 80.7936C59.0381 80.5349 58.7988 80.2762 58.5595 80.0174C58.5527 80.0174 58.5458 80.0174 58.539 80.0174C34.8887 83.9389 17.6109 74.857 13.4948 72.4129C14.2264 74.5438 25.7883 83.4895 35.8802 86.8391C50.9427 91.8362 59.421 98.8688 61.7935 108.332C61.8141 108.407 61.8277 108.489 61.8482 108.563C64.1319 108.829 70.9829 108.141 71.0034 108.032Z" fill="white"/>
<path d="M74.0802 50.0486C59.1817 40.0885 40.6457 27.6979 30.5471 0.595235C30.4445 0.309299 30.2257 0.118675 29.9385 0.0437864C29.665 -0.0242937 29.3984 0.0301704 29.1796 0.213987C24.6396 4.0537 14.0418 14.2657 13.7683 26.0572C13.6179 32.552 16.6331 38.7201 22.7389 44.3912C27.7916 49.0819 32.9743 53.5888 37.9792 57.9391L38.0476 58.0004C46.5805 65.4143 54.6417 72.4197 60.9047 79.3299C70.6 90.032 74.4972 99.1684 73.0888 107.978C75.6664 108.189 81.1294 108.046 85.9087 104.05C92.1033 98.8756 95.2553 89.1062 95.2621 75.0272C95.269 64.2229 85.9224 57.9663 74.0802 50.0486Z" fill="white"/>
<path d="M59.6671 108.856C57.486 100.176 49.4795 93.6471 35.1896 88.9019C25.6379 85.7294 13.7204 77.3623 11.6009 73.4137C8.85229 73.9311 2.71923 75.5991 0.702221 80.3919C-1.14385 84.7831 0.75692 90.8967 6.36351 98.5693C14.6708 109.939 23.0055 112.144 29.6992 113.915C37.4049 115.95 44.0918 117.72 46.0404 131.813C50.8128 129.491 60.6244 122.697 60.262 112.989C60.2004 111.6 60.0022 110.204 59.6671 108.856Z" fill="white"/>
<path d="M40.9261 133.78C40.8919 133.998 40.6252 134.093 40.4611 133.944C39.586 133.154 37.3296 131.098 36.3451 129.92C36.0647 129.58 35.7844 129.226 35.6682 128.804C35.5246 128.279 35.6545 127.721 35.8186 127.211C36.2357 125.91 36.8921 124.685 37.7536 123.623C37.8493 123.5 38.0407 123.582 38.0339 123.738C37.9177 125.461 38.7245 127.163 39.5039 128.742C39.5107 128.736 41.2406 131.54 40.9261 133.78Z" fill="white"/>
</svg>
