<svg width="17" height="15" viewBox="0 0 17 15" fill="none" xmlns="http://www.w3.org/2000/svg">
<path d="M5.34803 14.6255C11.7615 14.6255 15.2704 8.99808 15.2704 4.11944C15.2704 3.96124 15.2671 3.79952 15.2605 3.64132C15.9431 3.11865 16.5321 2.47124 17 1.72952C16.3643 2.029 15.6893 2.22459 14.9982 2.3096C15.7259 1.84773 16.2708 1.12215 16.5318 0.267374C15.8472 0.696967 15.0985 1.00001 14.3179 1.16351C13.7918 0.57172 13.0964 0.179887 12.3389 0.0485876C11.5815 -0.0827114 10.8043 0.0538371 10.1276 0.437122C9.45079 0.820406 8.91211 1.42908 8.59481 2.16903C8.27751 2.90899 8.19926 3.73901 8.37217 4.53077C6.98593 4.45712 5.62979 4.07583 4.39165 3.41162C3.15352 2.74742 2.06103 1.81513 1.18502 0.675187C0.739783 1.48798 0.60354 2.44978 0.80398 3.36512C1.00442 4.28045 1.5265 5.08064 2.26412 5.60304C1.71036 5.58442 1.16873 5.42656 0.683984 5.14249V5.18819C0.683488 6.04116 0.961986 6.86799 1.47214 7.52813C1.98229 8.18826 2.6926 8.64097 3.48234 8.80929C2.96937 8.9579 2.43099 8.97955 1.90885 8.87257C2.1317 9.60613 2.56528 10.2477 3.14909 10.7078C3.73289 11.1679 4.43779 11.4235 5.16541 11.439C3.93013 12.4664 2.40421 13.0236 0.833398 13.021C0.554828 13.0206 0.276533 13.0025 0 12.9669C1.59577 14.0509 3.45208 14.6266 5.34803 14.6255Z" fill="white"/>
</svg>
